<svg width="135" height="161" viewBox="0 0 135 161" fill="none" xmlns="http://www.w3.org/2000/svg">
<path fill-rule="evenodd" clip-rule="evenodd" d="M82.1366 46.7177C82.1366 54.8273 75.5477 61.4004 67.4185 61.4004C59.2892 61.4004 52.7003 54.8273 52.7003 46.7177C52.7003 38.608 59.2892 32.035 67.4185 32.035C67.8718 32.035 68.3204 32.0554 68.7633 32.0954C70.1617 32.2218 70.4164 34.1604 69.6974 35.3636C69.1435 36.2906 68.8277 37.36 68.8277 38.4987C68.8277 42.0427 71.8871 44.9152 75.6616 44.9152C76.8741 44.9152 78.0127 44.6188 78.9999 44.099C80.1659 43.485 81.9088 43.8131 82.0506 45.1207C82.1074 45.6452 82.1366 46.178 82.1366 46.7177Z" fill="#F7F7F8"/>
<path d="M107.451 70.9679C104.065 76.5629 99.4312 81.5324 93.6607 85.4262C83.6426 92.1829 71.9157 94.5405 60.802 92.9492C54.3494 92.0213 51.2144 84.5464 54.9282 79.2023C56.8402 76.4495 60.1543 75.0473 63.4822 75.5044C70.3482 76.4598 77.5724 74.982 83.7528 70.8064C97.0541 61.833 100.561 43.7249 91.5558 30.435C89.4922 27.3832 86.9395 24.8469 84.0698 22.8639C84.0146 22.8261 83.9561 22.7883 83.9009 22.7505C83.8355 22.7024 83.8079 22.6852 83.8079 22.6852C74.2307 16.1897 61.2395 15.7773 51.087 22.6302C41.3203 29.2287 36.8176 40.728 38.7055 51.6397C39.3704 55.5885 40.8828 59.472 43.2736 63.0015V63.0118L43.284 63.0222C44.0522 64.1528 44.0901 65.6341 43.3012 66.7648L20.5881 99.455V46.7148C20.5984 36.9545 23.6645 27.3145 29.4797 19.2966C32.6043 14.9903 36.5145 11.1549 41.1687 8.01031C62.5658 -6.43086 91.7487 -0.80492 106.214 20.5303H106.225C116.787 36.1194 116.636 55.8394 107.455 70.9713L107.451 70.9679Z" fill="#F7F7F8"/>
<path d="M10.1593 145.422C10.1593 146.159 9.98507 146.854 9.63667 147.508C9.28827 148.161 8.73084 148.696 7.96436 149.114C7.19789 149.517 6.21541 149.718 5.01692 149.718H2.38304V155.599H0V141.106H5.01692C6.13179 141.106 7.07246 141.3 7.83894 141.69C8.61935 142.065 9.19769 142.579 9.57396 143.233C9.96416 143.886 10.1593 144.616 10.1593 145.422ZM5.01692 147.779C5.92275 147.779 6.59864 147.577 7.04459 147.174C7.49054 146.757 7.71352 146.173 7.71352 145.422C7.71352 143.838 6.81465 143.045 5.01692 143.045H2.38304V147.779H5.01692Z" fill="#F7F7F8"/>
<path d="M44.267 144.109L37.2015 161H34.7349L37.0761 155.411L32.5399 144.109H35.1947L38.4348 152.867L41.8003 144.109H44.267Z" fill="#F7F7F8"/>
<path d="M72.4653 149.781L76.1862 155.599H73.4896L71.0021 151.699L68.6608 155.599H66.1733L69.8941 149.948L66.1733 144.109H68.8699L71.3574 148.008L73.6986 144.109H76.1862L72.4653 149.781Z" fill="#F7F7F8"/>
<path d="M101.813 144.109V155.599H99.4302V144.109H101.813Z" fill="#F7F7F8"/>
<path d="M130.589 155.787C129.683 155.787 128.868 155.627 128.144 155.307C127.433 154.973 126.868 154.528 126.45 153.972C126.032 153.402 125.809 152.77 125.781 152.075H128.248C128.29 152.561 128.52 152.971 128.938 153.305C129.37 153.625 129.906 153.785 130.547 153.785C131.216 153.785 131.732 153.66 132.094 153.409C132.471 153.145 132.659 152.812 132.659 152.408C132.659 151.977 132.45 151.658 132.032 151.449C131.628 151.241 130.979 151.011 130.088 150.761C129.224 150.525 128.52 150.295 127.976 150.073C127.433 149.85 126.959 149.51 126.555 149.051C126.165 148.592 125.97 147.987 125.97 147.237C125.97 146.625 126.151 146.069 126.513 145.568C126.875 145.054 127.391 144.651 128.06 144.359C128.743 144.067 129.523 143.921 130.401 143.921C131.711 143.921 132.763 144.255 133.558 144.922C134.366 145.575 134.798 146.472 134.854 147.612H132.471C132.429 147.098 132.22 146.688 131.844 146.382C131.467 146.076 130.959 145.923 130.318 145.923C129.69 145.923 129.21 146.041 128.875 146.277C128.541 146.514 128.373 146.827 128.373 147.216C128.373 147.522 128.485 147.779 128.708 147.987C128.931 148.196 129.203 148.363 129.523 148.488C129.844 148.599 130.318 148.745 130.945 148.926C131.781 149.148 132.464 149.378 132.993 149.614C133.537 149.836 134.004 150.17 134.394 150.615C134.784 151.06 134.986 151.651 135 152.388C135 153.041 134.819 153.625 134.456 154.139C134.094 154.654 133.579 155.057 132.91 155.349C132.255 155.641 131.481 155.787 130.589 155.787Z" fill="#F7F7F8"/>
</svg>
