<svg width="95" height="100" viewBox="0 0 95 100" fill="none" xmlns="http://www.w3.org/2000/svg">
<path fill-rule="evenodd" clip-rule="evenodd" d="M62.1365 46.7176C62.1365 54.8272 55.5476 61.4003 47.4184 61.4003C39.2891 61.4003 32.7002 54.8272 32.7002 46.7176C32.7002 38.608 39.2891 32.0349 47.4184 32.0349C47.8717 32.0349 48.3203 32.0554 48.7632 32.0954C50.1616 32.2217 50.4163 34.1604 49.6973 35.3635C49.1434 36.2906 48.8276 37.36 48.8276 38.4987C48.8276 42.0426 51.887 44.9151 55.6615 44.9151C56.874 44.9151 58.0126 44.6187 58.9998 44.0989C60.1658 43.4849 61.9087 43.813 62.0505 45.1206C62.1073 45.6452 62.1365 46.178 62.1365 46.7176Z" fill="#F7F7F8"/>
<path d="M87.4512 70.9679C84.0647 76.5629 79.4311 81.5324 73.6607 85.4262C63.6425 92.1829 51.9156 94.5405 40.8019 92.9492C34.3494 92.0213 31.2144 84.5464 34.9281 79.2023C36.8401 76.4495 40.1543 75.0473 43.4822 75.5044C50.3481 76.4598 57.5724 74.982 63.7528 70.8064C77.0541 61.833 80.5611 43.7249 71.5558 30.435C69.4922 27.3832 66.9394 24.8469 64.0697 22.8639C64.0146 22.8261 63.956 22.7883 63.9009 22.7505C63.8355 22.7024 63.8079 22.6852 63.8079 22.6852C54.2307 16.1897 41.2395 15.7773 31.0869 22.6302C21.3202 29.2287 16.8176 40.728 18.7055 51.6397C19.3704 55.5885 20.8827 59.472 23.2736 63.0015V63.0118L23.2839 63.0222C24.0522 64.1528 24.0901 65.6341 23.3011 66.7648L0.588013 99.455V46.7148C0.598348 36.9545 3.66443 27.3145 9.47965 19.2966C12.6043 14.9903 16.5144 11.1549 21.1687 8.01031C42.5658 -6.43086 71.7487 -0.80492 86.2144 20.5303H86.2248C96.7872 36.1194 96.6357 55.8394 87.4546 70.9713L87.4512 70.9679Z" fill="#F7F7F8"/>
</svg>
