<svg width="97" height="100" viewBox="0 0 97 100" fill="none" xmlns="http://www.w3.org/2000/svg">
<path d="M68.8026 27.9013C68.8021 27.9018 68.802 27.9026 68.8023 27.9032L77.7657 46.7927C78.367 48.0599 78.4405 49.5142 77.9698 50.8356L71.6892 68.4703C71.2184 69.7923 70.2416 70.8731 68.9738 71.4748L50.086 80.4388L41.5612 84.488L35.3313 87.4457L29.3008 90.3052L11.2414 98.8722C6.98308 100.892 2.40817 96.7555 3.99061 92.316L10.7035 73.483L12.9403 67.1998L15.2581 60.6991L18.4238 51.8089L25.4392 32.1111C25.9102 30.7887 26.8874 29.7077 28.1557 29.1061L45.0638 21.0862C46.3311 20.4851 47.7851 20.4119 49.1064 20.8825L68.8018 27.8984C68.803 27.8988 68.8034 27.9003 68.8026 27.9013ZM31.3418 34.7189C31.3418 34.7185 31.3411 34.7184 31.341 34.7188L21.3183 62.8608L18.995 69.3618L16.7634 75.6393L15.2662 79.8407C13.684 84.2804 18.2593 88.4168 22.5175 86.3963L26.5405 84.4874L38.8011 78.6729L63.8042 66.804C65.072 66.2022 66.0487 65.1213 66.5194 63.7992L71.0112 51.1834C71.4817 49.8621 71.4082 48.4081 70.8069 47.1409L65.071 35.0526C64.4693 33.7846 63.3884 32.8076 62.0662 32.3368L49.4514 27.8445C48.1304 27.3741 46.6767 27.4473 45.4097 28.0482L31.3424 34.7193C31.3421 34.7194 31.3418 34.7192 31.3418 34.7189Z" fill="#8480F7"/>
<path d="M28.7544 71.7762C28.7549 71.7757 28.755 71.7749 28.7547 71.7743L19.7913 52.8848C19.19 51.6175 19.1166 50.1633 19.5872 48.8419L25.8678 31.2072C26.3386 29.8852 27.3154 28.8044 28.5832 28.2027L47.471 19.2387L55.9958 15.1895L62.2257 12.2317L68.2562 9.37227L86.3157 0.805318C90.5739 -1.2147 95.1488 2.92195 93.5664 7.36146L86.8535 26.1944L84.6167 32.4777L82.2989 38.9784L79.1332 47.8686L72.1178 67.5664C71.6468 68.8887 70.6696 69.9698 69.4013 70.5713L52.4932 78.5913C51.2259 79.1924 49.7719 79.2656 48.4507 78.795L28.7552 71.7791C28.754 71.7787 28.7536 71.7772 28.7544 71.7762ZM66.2152 64.9585C66.2152 64.959 66.2159 64.9591 66.216 64.9587L76.2387 36.8167L78.562 30.3157L80.7936 24.0382L82.2909 19.8368C83.873 15.3971 79.2977 11.2607 75.0395 13.2812L71.0165 15.1901L58.7559 21.0046L33.7528 32.8735C32.485 33.4753 31.5083 34.5562 31.0376 35.8782L26.5458 48.4941C26.0753 49.8154 26.1488 51.2694 26.7501 52.5366L32.486 64.6249C33.0877 65.8929 34.1686 66.8699 35.4908 67.3407L48.1056 71.833C49.4266 72.3034 50.8803 72.2302 52.1473 71.6293L66.2146 64.9582C66.2149 64.9581 66.2152 64.9582 66.2152 64.9585Z" fill="#8480F7"/>
<path d="M95.5512 91.3067C96.3232 93.0411 94.6128 94.843 92.8406 94.1624L72.9926 86.5403L67.9702 84.6112L67.5791 84.4611C65.8069 83.7808 65.7417 81.2975 67.4758 80.5252L69.9678 79.4154L76.1048 76.6827C76.6206 76.4531 77.0242 76.0281 77.2269 75.5011L79.6397 69.2278L80.6149 66.6865C81.295 64.914 83.7786 64.8488 84.5509 66.5831L84.7208 66.9648L86.9029 71.8767L95.5512 91.3067Z" fill="#454381"/>
<path d="M1.41693 11.1975C0.550682 9.5082 2.15931 7.61489 3.96631 8.19692L24.2037 14.7152L29.3246 16.365L29.7234 16.4934C31.5303 17.0751 31.732 19.5511 30.0431 20.4176L27.6159 21.6629L21.6386 24.7291C21.1362 24.9868 20.7567 25.4334 20.5833 25.9707L18.5194 32.3673L17.6855 34.9584C17.1039 36.7656 14.6277 36.9674 13.7612 35.2782L13.5705 34.9065L11.1214 30.1221L1.41693 11.1975Z" fill="#454381"/>
</svg>
