<svg width="98" height="104" viewBox="0 0 98 104" fill="none" xmlns="http://www.w3.org/2000/svg">
<path fill-rule="evenodd" clip-rule="evenodd" d="M64.6787 48.565C64.6787 56.9953 57.8457 63.8283 49.4154 63.8283C40.9851 63.8283 34.1522 56.9953 34.1522 48.565C34.1522 40.1347 40.9851 33.3018 49.4154 33.3018C49.8856 33.3018 50.3508 33.323 50.8101 33.3646C52.2603 33.4959 52.5244 35.5113 51.7788 36.762C51.2044 37.7257 50.8768 38.8374 50.8768 40.0211C50.8768 43.7052 54.0495 46.6913 57.9639 46.6913C59.2213 46.6913 60.4021 46.3832 61.4258 45.8428C62.635 45.2045 64.4425 45.5456 64.5895 46.9049C64.6485 47.4502 64.6787 48.0041 64.6787 48.565Z" fill="#454385"/>
<path d="M90.9309 73.7741C87.419 79.5903 82.6138 84.7564 76.6297 88.8042C66.2405 95.8279 54.0792 98.2788 42.5539 96.6246C35.8624 95.66 32.6113 87.8896 36.4626 82.3341C38.4454 79.4724 41.8823 78.0148 45.3334 78.49C52.4537 79.4832 59.9455 77.9469 66.3548 73.6062C80.1487 64.278 83.7856 45.4538 74.4468 31.6385C72.3068 28.466 69.6595 25.8294 66.6835 23.768C66.6263 23.7287 66.5656 23.6894 66.5084 23.6501C66.4405 23.6 66.4119 23.5822 66.4119 23.5822C56.48 16.8299 43.0076 16.4012 32.4791 23.525C22.3507 30.3845 17.6813 42.3385 19.6391 53.6816C20.3286 57.7866 21.897 61.8236 24.3764 65.4927V65.5034L24.3871 65.5142C25.1838 66.6896 25.2231 68.2294 24.4049 69.4048L0.850586 103.388V48.562C0.861304 38.4158 4.04095 28.3945 10.0715 20.0596C13.3119 15.5831 17.3669 11.596 22.1935 8.32705C44.3831 -6.68515 74.6469 -0.836748 89.6483 21.3421H89.659C100.613 37.5476 100.456 58.0474 90.9345 73.7777L90.9309 73.7741Z" fill="#8580FF"/>
</svg>
