<svg width="141" height="168" viewBox="0 0 141 168" fill="none" xmlns="http://www.w3.org/2000/svg">
<path fill-rule="evenodd" clip-rule="evenodd" d="M85.6787 48.5649C85.6787 56.9952 78.8457 63.8282 70.4154 63.8282C61.9851 63.8282 55.1521 56.9952 55.1521 48.5649C55.1521 40.1346 61.9851 33.3016 70.4154 33.3016C70.8855 33.3016 71.3507 33.3229 71.8101 33.3645C73.2602 33.4958 73.5243 35.5111 72.7788 36.7619C72.2043 37.7256 71.8768 38.8372 71.8768 40.021C71.8768 43.7051 75.0495 46.6911 78.9638 46.6911C80.2212 46.6911 81.402 46.383 82.4258 45.8427C83.6349 45.2044 85.4424 45.5454 85.5894 46.9048C85.6484 47.4501 85.6787 48.0039 85.6787 48.5649Z" fill="#454385"/>
<path d="M111.931 73.7741C108.419 79.5903 103.614 84.7564 97.6297 88.8042C87.2405 95.8279 75.0792 98.2788 63.5539 96.6246C56.8624 95.66 53.6113 87.8896 57.4626 82.3341C59.4454 79.4724 62.8823 78.0148 66.3334 78.49C73.4537 79.4832 80.9455 77.9469 87.3548 73.6062C101.149 64.278 104.786 45.4538 95.4468 31.6385C93.3068 28.466 90.6595 25.8294 87.6835 23.768C87.6263 23.7287 87.5656 23.6894 87.5084 23.6501C87.4405 23.6 87.4119 23.5822 87.4119 23.5822C77.48 16.8299 64.0076 16.4012 53.4791 23.525C43.3507 30.3845 38.6813 42.3385 40.6391 53.6816C41.3286 57.7866 42.897 61.8236 45.3764 65.4927V65.5034L45.3871 65.5142C46.1838 66.6896 46.2231 68.2294 45.4049 69.4048L21.8506 103.388V48.562C21.8613 38.4158 25.0409 28.3945 31.0715 20.0596C34.3119 15.5831 38.3669 11.596 43.1935 8.32705C65.3831 -6.68515 95.6469 -0.836748 110.648 21.3421H110.659C121.613 37.5476 121.456 58.0474 111.934 73.7777L111.931 73.7741Z" fill="#8580FF"/>
<path d="M11.0355 151.173C11.0355 151.939 10.8549 152.661 10.4936 153.34C10.1323 154.02 9.5542 154.576 8.75934 155.01C7.96448 155.429 6.94561 155.638 5.70273 155.638H2.9713V161.752H0.5V146.685H5.70273C6.8589 146.685 7.83441 146.888 8.62927 147.292C9.43858 147.682 10.0383 148.217 10.4285 148.896C10.8332 149.576 11.0355 150.334 11.0355 151.173ZM5.70273 153.622C6.64212 153.622 7.34304 153.413 7.8055 152.994C8.26797 152.56 8.4992 151.953 8.4992 151.173C8.4992 149.525 7.56705 148.701 5.70273 148.701H2.9713V153.622H5.70273Z" fill="#474752"/>
<path d="M46.4065 149.807L39.0793 167.366H36.5213L38.9493 161.556L34.2451 149.807H36.9982L40.3583 158.912L43.8485 149.807H46.4065Z" fill="#474752"/>
<path d="M75.6492 155.703L79.5079 161.752H76.7114L74.1318 157.698L71.7038 161.752H69.1241L72.9828 155.877L69.1241 149.807H71.9206L74.5003 153.861L76.9282 149.807H79.5079L75.6492 155.703Z" fill="#474752"/>
<path d="M106.084 149.807V161.752H103.613V149.807H106.084Z" fill="#474752"/>
<path d="M135.926 161.947C134.987 161.947 134.141 161.78 133.39 161.448C132.653 161.101 132.067 160.639 131.634 160.061C131.2 159.468 130.969 158.811 130.94 158.088H133.498C133.541 158.594 133.78 159.02 134.213 159.367C134.661 159.699 135.218 159.866 135.883 159.866C136.576 159.866 137.111 159.735 137.487 159.475C137.877 159.201 138.072 158.854 138.072 158.435C138.072 157.987 137.855 157.654 137.422 157.438C137.003 157.221 136.331 156.982 135.406 156.722C134.51 156.477 133.78 156.238 133.216 156.007C132.653 155.776 132.161 155.422 131.742 154.945C131.337 154.468 131.135 153.839 131.135 153.059C131.135 152.423 131.323 151.845 131.699 151.324C132.074 150.79 132.609 150.371 133.303 150.067C134.011 149.764 134.82 149.612 135.731 149.612C137.089 149.612 138.18 149.959 139.004 150.652C139.842 151.332 140.29 152.264 140.348 153.449H137.877C137.834 152.914 137.617 152.488 137.227 152.17C136.836 151.852 136.309 151.693 135.644 151.693C134.994 151.693 134.495 151.816 134.148 152.061C133.801 152.307 133.628 152.632 133.628 153.037C133.628 153.355 133.744 153.622 133.975 153.839C134.206 154.056 134.488 154.229 134.82 154.359C135.153 154.475 135.644 154.627 136.294 154.815C137.162 155.046 137.87 155.284 138.419 155.53C138.983 155.761 139.467 156.108 139.871 156.57C140.276 157.033 140.486 157.647 140.5 158.413C140.5 159.092 140.312 159.699 139.936 160.234C139.561 160.769 139.026 161.188 138.332 161.491C137.653 161.795 136.851 161.947 135.926 161.947Z" fill="#474752"/>
</svg>
