<svg width="206" height="216" viewBox="0 0 206 216" fill="none" xmlns="http://www.w3.org/2000/svg">
<g opacity="0.5">
<path d="M146.935 60.2663C146.934 60.2674 146.934 60.2691 146.934 60.2705L166.341 101.078C167.643 103.816 167.802 106.958 166.784 109.812L153.194 147.905C152.175 150.761 150.061 153.096 147.317 154.395L106.436 173.755L87.9852 182.5L74.5011 188.887L61.4488 195.063L22.361 213.565C13.1444 217.928 3.24085 208.99 6.66494 199.4L21.1904 158.719L26.0303 145.146L31.0455 131.103L37.8955 111.899L53.0754 69.3495C54.0944 66.4929 56.2094 64.158 58.9545 62.8587L95.5504 45.5381C98.2932 44.24 101.44 44.0821 104.3 45.0991L146.933 60.2601C146.936 60.261 146.937 60.2642 146.935 60.2663ZM65.8523 74.9845C65.8522 74.9835 65.8508 74.9833 65.8505 74.9842L44.1634 135.775L39.1363 149.818L34.3076 163.378L31.0678 172.454C27.6443 182.044 37.5488 190.981 46.7652 186.617L55.4726 182.494L82.0092 169.937L136.126 144.304C138.87 143.004 140.984 140.669 142.002 137.814L151.722 110.562C152.74 107.707 152.58 104.566 151.278 101.829L138.86 75.7139C137.557 72.9745 135.217 70.8637 132.355 69.8462L105.049 60.1387C102.19 59.1221 99.0431 59.28 96.3008 60.5776L65.8536 74.9852C65.853 74.9855 65.8523 74.9851 65.8523 74.9845Z" fill="#8480F7"/>
<path d="M60.2706 155.036C60.2716 155.035 60.2719 155.034 60.2712 155.032L40.865 114.224C39.563 111.487 39.4037 108.345 40.422 105.491L54.0119 67.3973C55.0307 64.5416 57.1448 62.2071 59.8888 60.9076L100.769 41.5482L119.22 32.803L132.704 26.4153L145.757 20.2397L184.845 1.73771C194.061 -2.6249 203.965 6.31237 200.541 15.9023L186.015 56.5842L181.175 70.1569L176.16 84.1993L169.31 103.403L154.13 145.953C153.111 148.81 150.996 151.145 148.251 152.444L111.655 169.765C108.912 171.063 105.765 171.221 102.905 170.204L60.2722 155.043C60.2696 155.042 60.2687 155.038 60.2706 155.036ZM141.353 140.318C141.353 140.319 141.355 140.319 141.355 140.319L163.042 79.5279L168.069 65.4849L172.898 51.9246L176.138 42.8491C179.561 33.2587 169.657 24.322 160.44 28.6857L151.733 32.8083L125.196 45.3658L71.0796 70.9989C68.3356 72.2986 66.2218 74.6333 65.2032 77.4892L55.4839 104.741C54.466 107.595 54.6254 110.736 55.9271 113.474L68.3458 139.589C69.6485 142.328 71.9884 144.439 74.8505 145.457L102.157 155.164C105.016 156.181 108.163 156.023 110.905 154.725L141.352 140.318C141.353 140.317 141.353 140.318 141.353 140.318Z" fill="#8480F7"/>
<path d="M204.855 197.209C206.526 200.954 202.821 204.846 198.984 203.377L156.012 186.928L145.138 182.765L144.291 182.441C140.454 180.973 140.315 175.611 144.07 173.942L149.466 171.544L162.756 165.64C163.873 165.143 164.747 164.225 165.187 163.087L170.414 149.539L172.527 144.051C174.001 140.223 179.379 140.08 181.05 143.825L181.418 144.649L186.14 155.255L204.855 197.209Z" fill="#8480F7"/>
<path d="M1.07567 24.2008C-0.799012 20.5533 2.68508 16.4638 6.59733 17.7196L50.4121 31.7848L61.4991 35.3446L62.3625 35.6217C66.2746 36.8769 66.71 42.2237 63.0525 44.0959L57.7965 46.7864L44.8526 53.4114C43.7647 53.9682 42.9426 54.9328 42.5669 56.0933L38.0944 69.908L36.2875 75.504C35.0272 79.407 29.6655 79.8442 27.7902 76.1969L27.3775 75.3941L22.0774 65.0636L1.07567 24.2008Z" fill="#8480F7"/>
</g>
</svg>
