<svg width="119" height="124" viewBox="0 0 119 124" fill="none" xmlns="http://www.w3.org/2000/svg">
<path d="M84.6751 34.5975C84.6745 34.5982 84.6744 34.5991 84.6748 34.5999L95.7894 58.0228C96.535 59.5942 96.6261 61.3975 96.0425 63.0361L88.2546 84.9031C87.6708 86.5424 86.4595 87.8825 84.8874 88.6287L61.4666 99.744L50.8959 104.765L43.1707 108.433L35.693 111.978L13.2992 122.601C8.01896 125.106 2.34607 119.977 4.3083 114.472L12.6323 91.1189L15.4059 83.3277L18.28 75.2668L22.2055 64.243L30.9046 39.8177C31.4886 38.178 32.7003 36.8375 34.273 36.0915L55.2391 26.1468C56.8105 25.4015 58.6135 25.3106 60.2518 25.8942L84.6742 34.5939C84.6757 34.5945 84.6762 34.5963 84.6751 34.5975ZM38.2238 43.0514C38.2237 43.0508 38.2229 43.0507 38.2227 43.0513L25.7946 77.9473L22.9138 86.0085L20.1466 93.7926L18.29 99.0023C16.3281 104.508 22.0015 109.637 27.2816 107.131L32.2702 104.764L47.4732 97.5543L78.4772 82.8369C80.0492 82.0906 81.2604 80.7504 81.844 79.111L87.4139 63.4673C87.9972 61.8289 87.9061 60.0259 87.1605 58.4547L80.048 43.4652C79.3019 41.8928 77.9615 40.6814 76.322 40.0975L60.6796 34.5271C59.0416 33.9438 57.239 34.0346 55.668 34.7796L38.2245 43.0518C38.2242 43.052 38.2238 43.0518 38.2238 43.0514Z" fill="#8480F7"/>
<path d="M35.0155 89.0025C35.0161 89.0018 35.0162 89.0009 35.0158 89.0001L23.9012 65.5772C23.1556 64.0058 23.0645 62.2025 23.6481 60.5639L31.436 38.6969C32.0198 37.0576 33.2311 35.7175 34.8032 34.9713L58.224 23.856L68.7947 18.8349L76.5199 15.1674L83.9976 11.6216L106.391 0.998602C111.672 -1.50622 117.345 3.62322 115.382 9.12821L107.058 32.4811L104.285 40.2723L101.411 48.3332L97.4851 59.357L88.786 83.7823C88.202 85.422 86.9903 86.7625 85.4176 87.5085L64.4515 97.4532C62.8801 98.1985 61.0771 98.2894 59.4388 97.7058L35.0164 89.0061C35.0149 89.0055 35.0144 89.0037 35.0155 89.0025ZM81.4668 80.5486C81.4669 80.5492 81.4677 80.5493 81.4678 80.5487L93.896 45.6527L96.7768 37.5915L99.544 29.8074L101.401 24.5977C103.363 19.0924 97.6891 13.9633 92.409 16.4687L87.4204 18.8358L72.2173 26.0457L41.2134 40.7631C39.6414 41.5094 38.4302 42.8497 37.8465 44.489L32.2767 60.1327C31.6934 61.7711 31.7845 63.5741 32.53 65.1453L39.6426 80.1348C40.3887 81.7072 41.7291 82.9186 43.3686 83.5025L59.0109 89.0729C60.649 89.6562 62.4516 89.5654 64.0226 88.8204L81.4661 80.5482C81.4664 80.548 81.4668 80.5482 81.4668 80.5486Z" fill="#8480F7"/>
<path d="M117.843 113.22C118.801 115.371 116.68 117.605 114.482 116.761L89.8707 107.31L83.643 104.918L83.158 104.732C80.9604 103.888 80.8797 100.809 83.0299 99.8512L86.12 98.4751L93.7299 95.0866C94.3694 94.8018 94.8699 94.2748 95.1212 93.6213L98.1131 85.8424L99.3223 82.6912C100.166 80.4934 103.245 80.4125 104.203 82.563L104.414 83.0363L107.119 89.1271L117.843 113.22Z" fill="white"/>
<path d="M1.11692 13.8849C0.0427681 11.7902 2.03746 9.44249 4.27815 10.1642L29.3725 18.2469L35.7224 20.2926L36.2169 20.4518C38.4575 21.1732 38.7076 24.2434 36.6133 25.3179L33.6037 26.862L26.1918 30.6641C25.5689 30.9837 25.0982 31.5374 24.8832 32.2037L22.3239 40.1355L21.29 43.3485C20.5688 45.5894 17.4983 45.8396 16.4238 43.7451L16.1873 43.2841L13.1504 37.3514L1.11692 13.8849Z" fill="white"/>
</svg>
