<svg width="20" height="21" viewBox="0 0 20 21" fill="none" xmlns="http://www.w3.org/2000/svg">
<path d="M10 2.16667C5.40833 2.16667 1.66666 5.90834 1.66666 10.5C1.66666 15.0917 5.40833 18.8333 10 18.8333C14.5917 18.8333 18.3333 15.0917 18.3333 10.5C18.3333 5.90834 14.5917 2.16667 10 2.16667ZM13.3333 11.125H10.625V13.8333C10.625 14.175 10.3417 14.4583 10 14.4583C9.65833 14.4583 9.375 14.175 9.375 13.8333V11.125H6.66666C6.325 11.125 6.04166 10.8417 6.04166 10.5C6.04166 10.1583 6.325 9.87501 6.66666 9.87501H9.375V7.16667C9.375 6.82501 9.65833 6.54167 10 6.54167C10.3417 6.54167 10.625 6.82501 10.625 7.16667V9.87501H13.3333C13.675 9.87501 13.9583 10.1583 13.9583 10.5C13.9583 10.8417 13.675 11.125 13.3333 11.125Z" fill="#8480F7"/>
</svg>
