<svg width="20" height="20" viewBox="0 0 20 20" fill="none" xmlns="http://www.w3.org/2000/svg">
<path d="M9.58333 16.6667C5.67886 16.6667 2.5 13.4878 2.5 9.58333C2.5 5.67886 5.67886 2.5 9.58333 2.5C13.4878 2.5 16.6667 5.67886 16.6667 9.58333C16.6667 13.4878 13.4878 16.6667 9.58333 16.6667ZM9.58333 3.53659C6.24553 3.53659 3.53659 6.25244 3.53659 9.58333C3.53659 12.9142 6.24553 15.6301 9.58333 15.6301C12.9211 15.6301 15.6301 12.9142 15.6301 9.58333C15.6301 6.25244 12.9211 3.53659 9.58333 3.53659Z" fill="#6B6B7A"/>
<path fill-rule="evenodd" clip-rule="evenodd" d="M9.58333 16.75C5.63284 16.75 2.41666 13.5338 2.41666 9.58333C2.41666 5.63284 5.63284 2.41667 9.58333 2.41667C13.5338 2.41667 16.75 5.63284 16.75 9.58333C16.75 13.5338 13.5338 16.75 9.58333 16.75ZM9.58333 3.61992C6.29161 3.61992 3.61992 6.2984 3.61992 9.58333C3.61992 12.8683 6.29161 15.5467 9.58333 15.5467C12.875 15.5467 15.5467 12.8683 15.5467 9.58333C15.5467 6.2984 12.875 3.61992 9.58333 3.61992ZM2.5 9.58333C2.5 13.4878 5.67886 16.6667 9.58333 16.6667C13.4878 16.6667 16.6667 13.4878 16.6667 9.58333C16.6667 5.67886 13.4878 2.5 9.58333 2.5C5.67886 2.5 2.5 5.67886 2.5 9.58333ZM3.53658 9.58333C3.53658 6.25244 6.24553 3.53658 9.58333 3.53658C12.9211 3.53658 15.6301 6.25244 15.6301 9.58333C15.6301 12.9142 12.9211 15.6301 9.58333 15.6301C6.24553 15.6301 3.53658 12.9142 3.53658 9.58333Z" fill="#6B6B7A"/>
<path d="M18.3333 18.9583C18.175 18.9583 18.0167 18.9 17.8917 18.775L15.4167 16.25C15.175 16.0084 15.175 15.6084 15.4167 15.3667C15.6584 15.125 16.0584 15.125 16.3 15.3667L18.775 17.8917C19.0167 18.1333 19.0167 18.5333 18.775 18.775C18.65 18.9 18.4917 18.9583 18.3333 18.9583Z" fill="#6B6B7A"/>
</svg>
