<svg width="20" height="20" viewBox="0 0 20 20" fill="none" xmlns="http://www.w3.org/2000/svg">
<path d="M7.70833 4.16667C7.70833 2.9 8.73333 1.875 10 1.875C11.2667 1.875 12.2917 2.9 12.2917 4.16667C12.2917 5.43333 11.2667 6.45833 10 6.45833C8.73333 6.45833 7.70833 5.43333 7.70833 4.16667Z" fill="#BFBDFB"/>
<path d="M7.70833 15.8333C7.70833 14.5667 8.73333 13.5417 10 13.5417C11.2667 13.5417 12.2917 14.5667 12.2917 15.8333C12.2917 17.1 11.2667 18.125 10 18.125C8.73333 18.125 7.70833 17.1 7.70833 15.8333Z" fill="#BFBDFB"/>
<path d="M7.70833 10C7.70833 8.73333 8.73333 7.70833 10 7.70833C11.2667 7.70833 12.2917 8.73333 12.2917 10C12.2917 11.2667 11.2667 12.2917 10 12.2917C8.73333 12.2917 7.70833 11.2667 7.70833 10Z" fill="#BFBDFB"/>
</svg>
