<svg width="22" height="21" viewBox="0 0 22 21" fill="none" xmlns="http://www.w3.org/2000/svg">
<path d="M3.1875 2.6875L6.6875 5.40625C8.09375 4.34375 9.84375 3.5 12 3.5C14.5 3.5 16.5312 4.65625 18 6.03125C19.4688 7.375 20.4375 9 20.9062 10.125C21 10.375 21 10.6562 20.9062 10.9062C20.5 11.9062 19.6562 13.3438 18.4062 14.5938L21.6875 17.1875C22.0312 17.4375 22.0938 17.9062 21.8125 18.2188C21.5625 18.5625 21.0938 18.625 20.7812 18.3438L2.28125 3.84375C1.9375 3.59375 1.875 3.125 2.15625 2.8125C2.40625 2.46875 2.875 2.40625 3.1875 2.6875ZM7.90625 6.375L9.34375 7.5C10.0625 6.875 10.9688 6.5 12 6.5C14.1875 6.5 16 8.3125 16 10.5C16 11.1875 15.8438 11.8125 15.5312 12.3438L17.2188 13.6562C18.3125 12.5938 19.0625 11.375 19.4375 10.5C19.0312 9.5625 18.1875 8.25 16.9688 7.125C15.6875 5.9375 14.0312 5 12 5C10.4062 5 9.0625 5.5625 7.90625 6.375ZM14.3125 11.4062C14.4375 11.125 14.5 10.8125 14.5 10.5C14.5 9.125 13.375 8 12 8C11.9688 8 11.9375 8 11.9375 8C11.9688 8.1875 12 8.34375 12 8.5C12 8.84375 11.9062 9.125 11.7812 9.40625L14.3125 11.4062ZM14.625 15.4688L15.9375 16.5C14.7812 17.125 13.4688 17.5 12 17.5C9.46875 17.5 7.4375 16.375 5.96875 15C4.5 13.625 3.53125 12 3.0625 10.9062C2.96875 10.6562 2.96875 10.375 3.0625 10.125C3.375 9.40625 3.875 8.5 4.59375 7.5625L5.75 8.5C5.1875 9.21875 4.78125 9.9375 4.53125 10.5C4.96875 11.4375 5.78125 12.7812 7 13.9062C8.28125 15.0938 9.9375 16 12 16C12.9375 16 13.8125 15.8125 14.625 15.4688ZM8 10.5H7.96875C7.96875 10.4375 8 10.3438 8 10.25L9.75 11.625C10.0625 12.2812 10.6875 12.7812 11.4375 12.9375L13.1875 14.3438C12.8125 14.4375 12.4062 14.5 12 14.5C9.78125 14.5 8 12.7188 8 10.5Z" fill="#828292"/>
</svg>
