<svg width="24" height="25" viewBox="0 0 24 25" fill="none" xmlns="http://www.w3.org/2000/svg">
<path d="M20.125 13C20.125 10.1094 18.5625 7.45312 16.0625 5.96875C13.5234 4.52344 10.4375 4.52344 7.9375 5.96875C5.39844 7.45312 3.875 10.1094 3.875 13C3.875 15.9297 5.39844 18.5859 7.9375 20.0703C10.4375 21.5156 13.5234 21.5156 16.0625 20.0703C18.5625 18.5859 20.125 15.9297 20.125 13ZM2 13C2 9.44531 3.875 6.16406 7 4.36719C10.0859 2.57031 13.875 2.57031 17 4.36719C20.0859 6.16406 22 9.44531 22 13C22 16.5938 20.0859 19.875 17 21.6719C13.875 23.4688 10.0859 23.4688 7 21.6719C3.875 19.875 2 16.5938 2 13ZM8.60156 9.48438C8.91406 8.58594 9.73438 8 10.6719 8H12.9375C14.3047 8 15.4375 9.13281 15.4375 10.5C15.4375 11.3594 14.9297 12.1797 14.1875 12.6094L12.9375 13.3516C12.8984 13.8594 12.5078 14.25 12 14.25C11.4531 14.25 11.0625 13.8594 11.0625 13.3125V12.8047C11.0625 12.4531 11.2188 12.1406 11.5312 11.9844L13.25 11.0078C13.4453 10.8906 13.5625 10.6953 13.5625 10.5C13.5625 10.1484 13.2891 9.91406 12.9375 9.91406H10.6719C10.5547 9.91406 10.4375 9.99219 10.3984 10.1094L10.3594 10.1484C10.2031 10.6562 9.65625 10.8906 9.1875 10.7344C8.67969 10.5391 8.44531 9.99219 8.60156 9.52344V9.48438ZM10.75 16.75C10.75 16.0859 11.2969 15.5 12 15.5C12.6641 15.5 13.25 16.0859 13.25 16.75C13.25 17.4531 12.6641 18 12 18C11.2969 18 10.75 17.4531 10.75 16.75Z" fill="#828292"/>
</svg>
