<svg width="56" height="56" viewBox="0 0 56 56" fill="none" xmlns="http://www.w3.org/2000/svg">
<rect x="4" y="4" width="48" height="48" rx="24" fill="#FFE5D0"/>
<rect x="4" y="4" width="48" height="48" rx="24" stroke="#FFF4EB" stroke-width="8"/>
<path d="M36.5 38.75H19.5C19.09 38.75 18.75 38.41 18.75 38C18.75 37.59 19.09 37.25 19.5 37.25H36.5C36.91 37.25 37.25 37.59 37.25 38C37.25 38.41 36.91 38.75 36.5 38.75Z" fill="#FC9842"/>
<path d="M20.9976 34.2499C21.1876 34.2499 21.3776 34.1799 21.5276 34.0299L35.5276 20.0299C35.8176 19.7399 35.8176 19.2599 35.5276 18.9699C35.2376 18.6799 34.7576 18.6799 34.4676 18.9699L20.4676 32.9699C20.1776 33.2599 20.1776 33.7399 20.4676 34.0299C20.6176 34.1799 20.8076 34.2499 20.9976 34.2499Z" fill="#FC9842"/>
<path d="M34.9976 30.52C35.4076 30.52 35.7476 30.18 35.7476 29.77V19.5C35.7476 19.09 35.4076 18.75 34.9976 18.75H24.7276C24.3176 18.75 23.9776 19.09 23.9776 19.5C23.9776 19.91 24.3176 20.25 24.7276 20.25H34.2476V29.77C34.2476 30.18 34.5876 30.52 34.9976 30.52Z" fill="#FC9842"/>
</svg>
