<svg width="18" height="18" viewBox="0 0 18 18" fill="none" xmlns="http://www.w3.org/2000/svg">
<path d="M9 12.6C8.475 12.6 7.95 12.3975 7.5525 12L2.6625 7.11C2.445 6.8925 2.445 6.5325 2.6625 6.315C2.88 6.0975 3.24 6.0975 3.4575 6.315L8.3475 11.205C8.7075 11.565 9.2925 11.565 9.6525 11.205L14.5425 6.315C14.76 6.0975 15.12 6.0975 15.3375 6.315C15.555 6.5325 15.555 6.8925 15.3375 7.11L10.4475 12C10.05 12.3975 9.525 12.6 9 12.6Z" fill="white"/>
<path fill-rule="evenodd" clip-rule="evenodd" d="M9 12.9C8.39818 12.9 7.79604 12.6678 7.34036 12.2121L2.45036 7.32213C2.11571 6.98747 2.11571 6.43753 2.45036 6.10287C2.78502 5.76821 3.33497 5.76821 3.66963 6.10287L8.55963 10.9929C8.80247 11.2357 9.19752 11.2357 9.44036 10.9929L14.3304 6.10287C14.665 5.76821 15.215 5.76821 15.5496 6.10287C15.8843 6.43753 15.8843 6.98747 15.5496 7.32213L10.6596 12.2121C10.204 12.6678 9.60181 12.9 9 12.9ZM7.5525 12C7.95 12.3975 8.475 12.6 9 12.6C9.525 12.6 10.05 12.3975 10.4475 12L15.3375 7.11C15.555 6.8925 15.555 6.5325 15.3375 6.315C15.12 6.0975 14.76 6.0975 14.5425 6.315L9.6525 11.205C9.2925 11.565 8.7075 11.565 8.3475 11.205L3.4575 6.315C3.24 6.0975 2.88 6.0975 2.6625 6.315C2.445 6.5325 2.445 6.8925 2.6625 7.11L7.5525 12Z" fill="white"/>
</svg>
