<svg width="31" height="30" viewBox="0 0 31 30" fill="none" xmlns="http://www.w3.org/2000/svg">
<path d="M16.4375 4.82703C21.4375 4.82703 25.5 8.88953 25.5 13.8895C25.5 18.8895 21.4375 22.952 16.4375 22.952C16.2125 22.952 15.9625 22.9395 15.725 22.927C11.3125 22.577 7.73749 19.002 7.39999 14.6145C7.38749 14.3645 7.375 14.127 7.375 13.8895C7.375 8.88953 11.4375 4.82703 16.4375 4.82703Z" fill="#8480F7"/>
<path d="M5.18748 27.5H8.42498C9.31248 27.5 10.1 26.9751 10.45 26.1501C10.7875 25.3251 10.6 24.3875 9.97497 23.7625L6.73747 20.5251C6.11247 19.9001 5.17497 19.7125 4.34997 20.05C3.52497 20.3875 2.99998 21.1875 2.99998 22.075V25.3125C2.99998 26.5125 3.98748 27.5 5.18748 27.5Z" fill="#5A57A8"/>
<path d="M26.75 6.25C25.3707 6.25 24.25 5.12931 24.25 3.75C24.25 2.37069 25.3707 1.25 26.75 1.25C26.8121 1.25 26.881 1.25344 26.9466 1.25689C28.1638 1.35344 29.15 2.33966 29.2431 3.55C29.2466 3.61897 29.25 3.68448 29.25 3.75C29.25 5.12931 28.1293 6.25 26.75 6.25Z" fill="#BFBDFB"/>
</svg>
