<svg width="22" height="22" viewBox="0 0 22 22" fill="none" xmlns="http://www.w3.org/2000/svg">
<mask id="mask0_2550_23734" style="mask-type:alpha" maskUnits="userSpaceOnUse" x="0" y="0" width="22" height="22">
<path d="M14.2081 14.4375C14.0431 14.4375 13.8598 14.4283 13.6948 14.4192C13.3556 14.4008 13.0806 14.1258 13.0531 13.7867C12.8514 11.2292 10.7706 9.15748 8.22228 8.95581C7.88311 8.92831 7.60811 8.65333 7.58977 8.31416C7.58061 8.14916 7.57145 7.96583 7.57145 7.80083C7.57145 4.13417 10.5506 1.155 14.2173 1.155C17.884 1.155 20.8631 4.13417 20.8631 7.80083C20.8631 11.4675 17.8748 14.4375 14.2081 14.4375ZM8.93728 7.66331C11.6689 8.14914 13.8598 10.3308 14.3365 13.0625C17.1873 12.9892 19.4789 10.6608 19.4789 7.79166C19.4789 4.88582 17.1139 2.52082 14.2081 2.52082C11.3481 2.52082 9.01061 4.81248 8.93728 7.66331Z" fill="#292D32"/>
<path d="M7.79167 20.8542C4.125 20.8542 1.14583 17.875 1.14583 14.2083C1.14583 10.5417 4.125 7.5625 7.79167 7.5625C7.95667 7.5625 8.14 7.57166 8.305 7.58082C11.5408 7.83749 14.1625 10.4592 14.41 13.6767C14.4192 13.86 14.4283 14.0433 14.4283 14.2083C14.4375 17.875 11.4583 20.8542 7.79167 20.8542ZM7.79167 8.9375C4.88583 8.9375 2.52083 11.3025 2.52083 14.2083C2.52083 17.1142 4.88583 19.4792 7.79167 19.4792C10.6975 19.4792 13.0625 17.1142 13.0625 14.2083C13.0625 14.0617 13.0533 13.915 13.0442 13.7683C12.8425 11.2292 10.7617 9.14834 8.21333 8.94668C8.08499 8.94668 7.93833 8.9375 7.79167 8.9375Z" fill="#292D32"/>
<path d="M7.79167 17.1875C7.54417 17.1875 7.30583 17.05 7.18666 16.83L6.47166 15.5283L5.17001 14.8133C4.95001 14.6942 4.8125 14.465 4.8125 14.2083C4.8125 13.9517 4.95001 13.7225 5.17001 13.6033L6.47166 12.8883L7.18666 11.5867C7.425 11.1467 8.14917 11.1467 8.39667 11.5867L9.11167 12.8883L10.4133 13.6033C10.6333 13.7225 10.7708 13.9517 10.7708 14.2083C10.7708 14.465 10.6333 14.6942 10.4133 14.8133L9.11167 15.5283L8.39667 16.83C8.2775 17.05 8.03917 17.1875 7.79167 17.1875ZM6.93 14.2083L7.30583 14.4192C7.425 14.4833 7.51666 14.575 7.58082 14.6942L7.79167 15.07L8.00251 14.6942C8.06668 14.575 8.15833 14.4833 8.2775 14.4192L8.65334 14.2083L8.2775 13.9975C8.15833 13.9333 8.06668 13.8417 8.00251 13.7225L7.79167 13.3467L7.58082 13.7225C7.51666 13.8417 7.425 13.9333 7.30583 13.9975L6.93 14.2083Z" fill="#292D32"/>
</mask>
<g mask="url(#mask0_2550_23734)">
<rect width="22" height="22" fill="#5B5B67"/>
</g>
</svg>
