<svg width="24" height="24" viewBox="0 0 24 24" fill="none" xmlns="http://www.w3.org/2000/svg">
<path d="M20.3692 3.93063C19.5729 3.13446 18.4471 2.82331 17.358 3.09786L8.3882 5.33995C6.87798 5.71516 5.71557 6.88654 5.34031 8.38737L3.09787 17.3649C2.82329 18.4539 3.13448 19.5795 3.93078 20.3757C4.53486 20.9705 5.33116 21.3 6.15491 21.3C6.41119 21.3 6.67662 21.2725 6.9329 21.1993L15.9118 18.9572C17.4129 18.582 18.5844 17.4198 18.9597 15.9098L21.2021 6.93229C21.4767 5.84328 21.1655 4.71765 20.3692 3.93063ZM12.15 15.6993C10.1913 15.6993 8.59871 14.107 8.59871 12.1486C8.59871 10.1902 10.1913 8.59785 12.15 8.59785C14.1087 8.59785 15.7013 10.1902 15.7013 12.1486C15.7013 14.107 14.1087 15.6993 12.15 15.6993Z" fill="#8480F7"/>
</svg>
