<svg width="20" height="20" viewBox="0 0 20 20" fill="none" xmlns="http://www.w3.org/2000/svg">
<path d="M10 14C9.41668 14 8.83335 13.775 8.39168 13.3333L2.95835 7.9C2.71668 7.65833 2.71668 7.25834 2.95835 7.01667C3.20002 6.775 3.60002 6.775 3.84168 7.01667L9.27502 12.45C9.67502 12.85 10.325 12.85 10.725 12.45L16.1583 7.01667C16.4 6.775 16.8 6.775 17.0417 7.01667C17.2833 7.25834 17.2833 7.65833 17.0417 7.9L11.6084 13.3333C11.1667 13.775 10.5833 14 10 14Z" fill="#7B7B7B"/>
<path fill-rule="evenodd" clip-rule="evenodd" d="M9.99997 14.3333C9.33129 14.3333 8.66225 14.0753 8.15594 13.569L2.72261 8.13569C2.35077 7.76385 2.35077 7.1528 2.72261 6.78096C3.09445 6.40911 3.7055 6.40911 4.07734 6.78096L9.51068 12.2143C9.7805 12.4841 10.2194 12.4841 10.4893 12.2143L15.9226 6.78096C16.2944 6.40911 16.9055 6.40911 17.2773 6.78096C17.6492 7.1528 17.6492 7.76385 17.2773 8.13569L11.844 13.569C11.3377 14.0753 10.6687 14.3333 9.99997 14.3333ZM8.39164 13.3333C8.83331 13.775 9.41664 14 9.99997 14C10.5833 14 11.1666 13.775 11.6083 13.3333L17.0416 7.89999C17.2833 7.65832 17.2833 7.25833 17.0416 7.01666C16.8 6.77499 16.4 6.77499 16.1583 7.01666L10.725 12.45C10.325 12.85 9.67498 12.85 9.27498 12.45L3.84164 7.01666C3.59998 6.77499 3.19998 6.77499 2.95831 7.01666C2.71664 7.25833 2.71664 7.65832 2.95831 7.89999L8.39164 13.3333Z" fill="#7B7B7B"/>
</svg>
