<svg width="27" height="28" viewBox="0 0 27 28" fill="none" xmlns="http://www.w3.org/2000/svg">
<path d="M19.1846 7.81223C19.1845 7.81238 19.1844 7.81259 19.1845 7.81277L21.6943 13.1018C21.8626 13.4567 21.8832 13.8638 21.7514 14.2338L19.9929 19.1716C19.861 19.5417 19.5875 19.8443 19.2325 20.0128L13.944 22.5227L11.557 23.6565L9.81265 24.4847L8.12412 25.2853L3.06747 27.6841C1.87515 28.2497 0.594176 27.0914 1.03726 25.8484L2.91688 20.5751L3.54317 18.8158L4.19216 16.9956L5.07856 14.5064L7.04287 8.99099C7.17474 8.62072 7.44836 8.31804 7.80349 8.14959L12.5378 5.90401C12.8926 5.7357 13.2997 5.71519 13.6697 5.84697L19.1844 7.81142C19.1847 7.81154 19.1848 7.81196 19.1846 7.81223ZM8.69559 9.72117C8.69558 9.72105 8.6954 9.72102 8.69536 9.72114L5.88901 17.6009L5.23849 19.4212L4.61364 21.1789L4.19441 22.3553C3.7514 23.5984 5.0325 24.7566 6.22479 24.1908L7.35123 23.6563L10.7842 22.0283L17.7851 18.705C18.14 18.5365 18.4135 18.2338 18.5453 17.8637L19.803 14.3312C19.9348 13.9613 19.9142 13.5541 19.7458 13.1993L18.1398 9.81461C17.9713 9.45955 17.6686 9.186 17.2984 9.05416L13.7663 7.79633C13.3964 7.66461 12.9894 7.68512 12.6346 7.85336L8.69575 9.72127C8.69568 9.72131 8.69559 9.72126 8.69559 9.72117Z" fill="#8480F7"/>
<path d="M7.97116 20.0974C7.97129 20.0973 7.97133 20.0971 7.97124 20.0969L5.46149 14.8079C5.29311 14.453 5.27255 14.0458 5.40433 13.6758L7.16289 8.73812C7.29472 8.36795 7.56823 8.06533 7.92322 7.89686L13.2118 5.38694L15.5987 4.25315L17.3431 3.42499L19.0316 2.62434L24.0883 0.225592C25.2806 -0.340013 26.5616 0.818247 26.1185 2.06131L24.2389 7.33455L23.6126 9.09385L22.9636 10.914L22.0772 13.4033L20.1129 18.9187C19.981 19.289 19.7074 19.5916 19.3523 19.7601L14.618 22.0057C14.2632 22.174 13.856 22.1945 13.4861 22.0627L7.97136 20.0982C7.97103 20.0981 7.97092 20.0977 7.97116 20.0974ZM18.4602 18.1885C18.4602 18.1886 18.4604 18.1886 18.4604 18.1885L21.2668 10.3088L21.9173 8.48849L22.5421 6.73079L22.9613 5.55441C23.4044 4.3113 22.1233 3.15311 20.931 3.71885L19.8045 4.25334L16.3716 5.88139L9.3707 9.20467C9.01572 9.37318 8.74223 9.67583 8.61043 10.046L7.35273 13.5785C7.22101 13.9484 7.24158 14.3555 7.40993 14.7103L9.016 18.0951C9.18447 18.4501 9.48713 18.7237 9.85735 18.8555L13.3895 20.1133C13.7594 20.2451 14.1664 20.2245 14.5212 20.0563L18.46 18.1884C18.4601 18.1884 18.4602 18.1884 18.4602 18.1885Z" fill="#8480F7"/>
<path d="M26.6741 25.5654C26.8902 26.0511 26.4113 26.5556 25.9151 26.365L20.3577 24.2308L18.9514 23.6907L18.8419 23.6487C18.3457 23.4582 18.3274 22.7629 18.813 22.5466L19.5107 22.2359L21.2291 21.4707C21.3735 21.4064 21.4865 21.2874 21.5433 21.1399L22.2189 19.3833L22.4919 18.6718C22.6823 18.1755 23.3778 18.1572 23.594 18.6428L23.6416 18.7497L24.2526 20.125L26.6741 25.5654Z" fill="#454381"/>
<path d="M0.316389 3.13515C0.0738394 2.66215 0.524254 2.13202 1.03022 2.29499L6.69667 4.12012L8.13053 4.58205L8.24219 4.618C8.74814 4.78089 8.80462 5.47416 8.33171 5.71679L7.65211 6.06546L5.97847 6.92401C5.8378 6.99617 5.73152 7.1212 5.68297 7.27166L5.10507 9.06271L4.87159 9.78821C4.70875 10.2942 4.0154 10.3507 3.77278 9.87776L3.71938 9.77367L3.03364 8.43405L0.316389 3.13515Z" fill="#454381"/>
</svg>
