<svg width="66" height="66" viewBox="0 0 66 66" fill="none" xmlns="http://www.w3.org/2000/svg">
<rect x="5" y="5" width="56" height="56" rx="28" fill="#DDDBFD"/>
<rect x="5" y="5" width="56" height="56" rx="28" stroke="#EDECFE" stroke-width="10"/>
<path d="M40.875 28.3333V30.7833C40.3617 30.7133 39.7783 30.6783 39.125 30.6667V28.3333C39.125 24.6583 38.0867 22.2083 33 22.2083C27.9133 22.2083 26.875 24.6583 26.875 28.3333V30.6667C26.2217 30.6783 25.6383 30.7133 25.125 30.7833V28.3333C25.125 24.95 25.9417 20.4583 33 20.4583C40.0583 20.4583 40.875 24.95 40.875 28.3333Z" fill="#6F6CCF"/>
<path d="M40.875 30.7833C40.3617 30.7133 39.7783 30.6783 39.125 30.6667H26.875C26.2217 30.6783 25.6383 30.7133 25.125 30.7833C22.15 31.145 21.3333 32.6033 21.3333 36.5V38.8333C21.3333 43.5 22.5 44.6667 27.1667 44.6667H38.8333C43.5 44.6667 44.6667 43.5 44.6667 38.8333V36.5C44.6667 32.6033 43.85 31.145 40.875 30.7833ZM29.1617 38.495C28.94 38.705 28.6367 38.8333 28.3333 38.8333C28.1817 38.8333 28.03 38.7983 27.89 38.74C27.7383 38.6817 27.6217 38.6 27.505 38.495C27.295 38.2733 27.1667 37.97 27.1667 37.6667C27.1667 37.515 27.2017 37.3633 27.26 37.2233C27.3183 37.0833 27.4 36.955 27.505 36.8383C27.6217 36.7333 27.7383 36.6517 27.89 36.5933C28.3217 36.4067 28.835 36.5117 29.1617 36.8383C29.2667 36.955 29.3483 37.0833 29.4067 37.2233C29.465 37.3633 29.5 37.515 29.5 37.6667C29.5 37.97 29.3717 38.2733 29.1617 38.495ZM34.0733 38.11C34.015 38.25 33.9333 38.3783 33.8283 38.495C33.6067 38.705 33.3033 38.8333 33 38.8333C32.685 38.8333 32.3933 38.705 32.1717 38.495C32.0667 38.3783 31.985 38.25 31.9267 38.11C31.8683 37.97 31.8333 37.8183 31.8333 37.6667C31.8333 37.3517 31.9617 37.06 32.1717 36.8383C32.6033 36.4067 33.385 36.4067 33.8283 36.8383C34.0383 37.06 34.1667 37.3517 34.1667 37.6667C34.1667 37.8183 34.1317 37.97 34.0733 38.11ZM38.495 38.495C38.2733 38.705 37.97 38.8333 37.6667 38.8333C37.3633 38.8333 37.06 38.705 36.8383 38.495C36.6283 38.2733 36.5 37.9817 36.5 37.6667C36.5 37.3517 36.6283 37.06 36.8383 36.8383C37.2817 36.4067 38.0633 36.4067 38.495 36.8383C38.5417 36.8967 38.5883 36.955 38.635 37.025C38.6817 37.0833 38.7167 37.1533 38.74 37.2233C38.775 37.2933 38.7983 37.3633 38.81 37.4333C38.8217 37.515 38.8333 37.5967 38.8333 37.6667C38.8333 37.97 38.705 38.2733 38.495 38.495Z" fill="#6F6CCF"/>
</svg>
