<svg width="24" height="24" viewBox="0 0 24 24" fill="none" xmlns="http://www.w3.org/2000/svg">
<path d="M4.5 3.75H19.5C20.1641 3.75 20.75 4.33594 20.75 5C20.75 5.70312 20.1641 6.25 19.5 6.25H5.125C4.77344 6.25 4.5 6.5625 4.5 6.875C4.5 7.22656 4.77344 7.5 5.125 7.5H19.5C20.8672 7.5 22 8.63281 22 10V18.75C22 20.1562 20.8672 21.25 19.5 21.25H4.5C3.09375 21.25 2 20.1562 2 18.75V6.25C2 4.88281 3.09375 3.75 4.5 3.75ZM18.25 13.125C17.5469 13.125 17 13.7109 17 14.375C17 15.0781 17.5469 15.625 18.25 15.625C18.9141 15.625 19.5 15.0781 19.5 14.375C19.5 13.7109 18.9141 13.125 18.25 13.125Z" fill="#5A57AD"/>
</svg>
