<svg width="18" height="18" viewBox="0 0 18 18" fill="none" xmlns="http://www.w3.org/2000/svg">
<path d="M12.1425 1.5H5.8575C3.1275 1.5 1.5 3.1275 1.5 5.8575V12.135C1.5 14.8725 3.1275 16.5 5.8575 16.5H12.135C14.865 16.5 16.4925 14.8725 16.4925 12.1425V5.8575C16.5 3.1275 14.8725 1.5 12.1425 1.5ZM9 13.5075C6.6225 13.5075 4.6875 11.5725 4.6875 9.195C4.6875 8.34 4.935 7.5075 5.415 6.8025C5.5875 6.54 5.94 6.4725 6.195 6.645C6.45 6.8175 6.525 7.17 6.345 7.425C6 7.95 5.8125 8.565 5.8125 9.195C5.8125 10.95 7.245 12.3825 9 12.3825C10.755 12.3825 12.1875 10.95 12.1875 9.195C12.1875 7.44 10.755 6.0075 9 6.0075C8.8575 6.0075 8.7225 6.0225 8.58 6.0375L9 6.345C9.2475 6.525 9.3075 6.8775 9.12 7.1325C9.0075 7.2825 8.835 7.365 8.6625 7.365C8.55 7.365 8.43 7.3275 8.3325 7.26L6.8775 6.1875C6.8775 6.1875 6.87 6.18 6.8625 6.1725C6.855 6.165 6.8475 6.165 6.84 6.1575C6.8175 6.1425 6.81 6.1125 6.7875 6.09C6.765 6.06 6.7425 6.0375 6.72 6C6.705 5.97 6.6975 5.9325 6.6825 5.9025C6.675 5.865 6.66 5.835 6.66 5.7975C6.66 5.76 6.66 5.73 6.6675 5.6925C6.6675 5.655 6.6675 5.625 6.6825 5.5875C6.6825 5.55 6.705 5.52 6.72 5.4825C6.735 5.46 6.735 5.43 6.7575 5.4C6.765 5.4 6.7725 5.3925 6.78 5.385C6.7875 5.3775 6.7875 5.37 6.795 5.3625L8.0475 3.93C8.25 3.6975 8.61 3.6675 8.8425 3.8775C9.075 4.08 9.0975 4.44 8.895 4.6725L8.685 4.9125C8.79 4.905 8.895 4.89 9.0075 4.89C11.385 4.89 13.32 6.825 13.32 9.2025C13.32 11.58 11.3775 13.5075 9 13.5075Z" fill="#5B5B67"/>
</svg>
