<svg width="46" height="46" viewBox="0 0 46 46" fill="none" xmlns="http://www.w3.org/2000/svg">
<rect x="3" y="3" width="40" height="40" rx="20" fill="#DDDBFD"/>
<rect x="3" y="3" width="40" height="40" rx="20" stroke="#EDECFE" stroke-width="6"/>
<mask id="mask0_2575_26351" style="mask-type:alpha" maskUnits="userSpaceOnUse" x="12" y="12" width="22" height="22">
<path d="M28.5 14.75H17.5C15.4741 14.75 13.8333 16.3817 13.8333 18.3892V27.6108C13.8333 29.6183 15.4741 31.25 17.5 31.25H28.5C30.5258 31.25 32.1666 29.6183 32.1666 27.6108V18.3892C32.1666 16.3817 30.5258 14.75 28.5 14.75ZM19.7916 18.5725C20.9558 18.5725 21.9091 19.5258 21.9091 20.69C21.9091 21.8542 20.9558 22.8075 19.7916 22.8075C18.6275 22.8075 17.6741 21.8542 17.6741 20.69C17.6741 19.5258 18.6275 18.5725 19.7916 18.5725ZM23.3391 27.2717C23.2566 27.3633 23.1283 27.4183 23 27.4183H16.5833C16.455 27.4183 16.3266 27.3633 16.2441 27.2717C16.1616 27.18 16.1158 27.0517 16.125 26.9233C16.2808 25.3833 17.5091 24.1642 19.0491 24.0175C19.535 23.9717 20.0391 23.9717 20.525 24.0175C22.065 24.1642 23.3025 25.3833 23.4491 26.9233C23.4675 27.0517 23.4216 27.18 23.3391 27.2717ZM29.4166 27.3542H27.5833C27.2075 27.3542 26.8958 27.0425 26.8958 26.6667C26.8958 26.2908 27.2075 25.9792 27.5833 25.9792H29.4166C29.7925 25.9792 30.1041 26.2908 30.1041 26.6667C30.1041 27.0425 29.7925 27.3542 29.4166 27.3542ZM29.4166 23.6875H25.75C25.3741 23.6875 25.0625 23.3758 25.0625 23C25.0625 22.6242 25.3741 22.3125 25.75 22.3125H29.4166C29.7925 22.3125 30.1041 22.6242 30.1041 23C30.1041 23.3758 29.7925 23.6875 29.4166 23.6875ZM29.4166 20.0208H24.8333C24.4575 20.0208 24.1458 19.7092 24.1458 19.3333C24.1458 18.9575 24.4575 18.6458 24.8333 18.6458H29.4166C29.7925 18.6458 30.1041 18.9575 30.1041 19.3333C30.1041 19.7092 29.7925 20.0208 29.4166 20.0208Z" fill="#292D32"/>
</mask>
<g mask="url(#mask0_2575_26351)">
<rect x="12" y="12" width="22" height="22" fill="#8480F7"/>
</g>
</svg>
