<svg width="67" height="66" viewBox="0 0 67 66" fill="none" xmlns="http://www.w3.org/2000/svg">
<rect x="5.5" y="5" width="56" height="56" rx="28" fill="#DDDBFD"/>
<rect x="5.5" y="5" width="56" height="56" rx="28" stroke="#EDECFE" stroke-width="10"/>
<mask id="mask0_2432_15397" style="mask-type:alpha" maskUnits="userSpaceOnUse" x="19" y="19" width="29" height="28">
<path d="M37.9102 21.3333H29.0902C24.6802 21.3333 23.5835 22.5116 23.5835 27.2133V40.3499C23.5835 43.4533 25.2868 44.1883 27.3518 41.9716L27.3635 41.9599C28.3202 40.9449 29.7785 41.0266 30.6068 42.1349L31.7852 43.7099C32.7302 44.9583 34.2585 44.9583 35.2035 43.7099L36.3818 42.1349C37.2218 41.0149 38.6802 40.9333 39.6368 41.9599C41.7135 44.1766 43.4052 43.4416 43.4052 40.3383V27.2133C43.4168 22.5116 42.3202 21.3333 37.9102 21.3333ZM28.5768 32.9999C27.9352 32.9999 27.4102 32.4749 27.4102 31.8333C27.4102 31.1916 27.9352 30.6666 28.5768 30.6666C29.2185 30.6666 29.7435 31.1916 29.7435 31.8333C29.7435 32.4749 29.2185 32.9999 28.5768 32.9999ZM28.5768 28.3333C27.9352 28.3333 27.4102 27.8083 27.4102 27.1666C27.4102 26.5249 27.9352 25.9999 28.5768 25.9999C29.2185 25.9999 29.7435 26.5249 29.7435 27.1666C29.7435 27.8083 29.2185 28.3333 28.5768 28.3333ZM38.4352 32.7083H32.0185C31.5402 32.7083 31.1435 32.3116 31.1435 31.8333C31.1435 31.3549 31.5402 30.9583 32.0185 30.9583H38.4352C38.9135 30.9583 39.3102 31.3549 39.3102 31.8333C39.3102 32.3116 38.9135 32.7083 38.4352 32.7083ZM38.4352 28.0416H32.0185C31.5402 28.0416 31.1435 27.6449 31.1435 27.1666C31.1435 26.6883 31.5402 26.2916 32.0185 26.2916H38.4352C38.9135 26.2916 39.3102 26.6883 39.3102 27.1666C39.3102 27.6449 38.9135 28.0416 38.4352 28.0416Z" fill="#292D32"/>
</mask>
<g mask="url(#mask0_2432_15397)">
<rect x="19.5" y="19" width="28" height="28" fill="#8480F7"/>
</g>
</svg>
