<svg width="58" height="58" viewBox="0 0 58 58" fill="none" xmlns="http://www.w3.org/2000/svg">
<path d="M38.1834 5.34084C37.1925 4.35 35.4767 5.02667 35.4767 6.40417V14.8383C35.4767 18.3667 38.4734 21.2908 42.1225 21.2908C44.4183 21.315 47.6083 21.315 50.3392 21.315C51.7167 21.315 52.4417 19.6958 51.475 18.7292C47.995 15.225 41.76 8.9175 38.1834 5.34084Z" fill="#6F6CCF"/>
<path d="M49.5417 24.6258H42.5575C36.83 24.6258 32.1658 19.9617 32.1658 14.2342V7.25C32.1658 5.92084 31.0783 4.83334 29.7492 4.83334H19.5025C12.0592 4.83334 6.04166 9.66667 6.04166 18.2942V39.7058C6.04166 48.3333 12.0592 53.1667 19.5025 53.1667H38.4975C45.9408 53.1667 51.9583 48.3333 51.9583 39.7058V27.0425C51.9583 25.7133 50.8708 24.6258 49.5417 24.6258ZM27.7917 42.8958H18.125C17.1342 42.8958 16.3125 42.0742 16.3125 41.0833C16.3125 40.0925 17.1342 39.2708 18.125 39.2708H27.7917C28.7825 39.2708 29.6042 40.0925 29.6042 41.0833C29.6042 42.0742 28.7825 42.8958 27.7917 42.8958ZM32.625 33.2292H18.125C17.1342 33.2292 16.3125 32.4075 16.3125 31.4167C16.3125 30.4258 17.1342 29.6042 18.125 29.6042H32.625C33.6158 29.6042 34.4375 30.4258 34.4375 31.4167C34.4375 32.4075 33.6158 33.2292 32.625 33.2292Z" fill="#6F6CCF"/>
</svg>
