<svg width="24" height="25" viewBox="0 0 24 25" fill="none" xmlns="http://www.w3.org/2000/svg">
<path d="M14.25 3.75L18.75 8.25H14.25V3.75ZM13.125 8.25C13.125 8.88281 13.6172 9.375 14.25 9.375H18.75V20.0625C18.75 21.0117 17.9766 21.75 17.0625 21.75H6.9375C5.98828 21.75 5.25 21.0117 5.25 20.0625V5.4375C5.25 4.52344 5.98828 3.75 6.9375 3.75H13.125V8.25ZM14.8125 18.375C15.0938 18.375 15.375 18.1289 15.375 17.8125C15.375 17.5312 15.0938 17.25 14.8125 17.25H9.1875C8.87109 17.25 8.625 17.5312 8.625 17.8125C8.625 18.1289 8.87109 18.375 9.1875 18.375H14.8125ZM14.8125 16.125C15.0938 16.125 15.375 15.8789 15.375 15.5625C15.375 15.2812 15.0938 15 14.8125 15H9.1875C8.87109 15 8.625 15.2812 8.625 15.5625C8.625 15.8789 8.87109 16.125 9.1875 16.125H14.8125ZM15.375 13.3125C15.375 13.0312 15.0938 12.75 14.8125 12.75H9.1875C8.87109 12.75 8.625 13.0312 8.625 13.3125C8.625 13.6289 8.87109 13.875 9.1875 13.875H14.8125C15.0938 13.875 15.375 13.6289 15.375 13.3125Z" fill="#AEAEB7"/>
</svg>
