<svg width="18" height="18" viewBox="0 0 18 18" fill="none" xmlns="http://www.w3.org/2000/svg">
<path d="M6.68245 15.5025C6.53995 15.5025 6.39745 15.45 6.28495 15.3375C6.06745 15.12 6.06745 14.76 6.28495 14.5425L11.175 9.65251C11.535 9.29251 11.535 8.70751 11.175 8.34751L6.28495 3.45751C6.06745 3.24001 6.06745 2.88001 6.28495 2.66251C6.50245 2.44501 6.86245 2.44501 7.07995 2.66251L11.97 7.55251C12.3525 7.93501 12.57 8.45252 12.57 9.00002C12.57 9.54752 12.36 10.065 11.97 10.4475L7.07995 15.3375C6.96745 15.4425 6.82495 15.5025 6.68245 15.5025Z" fill="#AEAEB7"/>
<path fill-rule="evenodd" clip-rule="evenodd" d="M7.2846 15.5568C7.12277 15.7078 6.90899 15.8025 6.6824 15.8025C6.46463 15.8025 6.2445 15.7213 6.07277 15.5496C5.73811 15.2149 5.73811 14.665 6.07277 14.3303L10.9628 9.44033C11.2056 9.19749 11.2056 8.80244 10.9628 8.5596L6.07277 3.6696C5.73811 3.33494 5.73811 2.78499 6.07277 2.45033C6.40743 2.11568 6.95738 2.11568 7.29203 2.45033L12.182 7.34033C12.6203 7.77862 12.8699 8.37223 12.8699 8.99997C12.8699 9.62465 12.6299 10.2198 12.1811 10.6606C12.1807 10.6609 12.1803 10.6613 12.18 10.6616L7.2846 15.5568ZM11.9699 10.4475C12.3599 10.065 12.5699 9.54747 12.5699 8.99997C12.5699 8.45247 12.3524 7.93497 11.9699 7.55247L7.0799 2.66247C6.8624 2.44497 6.5024 2.44497 6.2849 2.66247C6.0674 2.87997 6.0674 3.23997 6.2849 3.45747L11.1749 8.34747C11.5349 8.70747 11.5349 9.29247 11.1749 9.65247L6.2849 14.5425C6.0674 14.76 6.0674 15.12 6.2849 15.3375C6.3974 15.45 6.5399 15.5025 6.6824 15.5025C6.8249 15.5025 6.9674 15.4425 7.0799 15.3375L11.9699 10.4475Z" fill="#AEAEB7"/>
</svg>
