<svg width="21" height="21" viewBox="0 0 21 21" fill="none" xmlns="http://www.w3.org/2000/svg">
<path d="M11 5C8.9375 5 7.28125 5.9375 6 7.125C4.78125 8.25 3.96875 9.5625 3.53125 10.5C3.96875 11.4375 4.78125 12.7812 6 13.9062C7.28125 15.0938 8.9375 16 11 16C13.0312 16 14.6875 15.0938 15.9688 13.9062C17.1875 12.7812 18.0312 11.4375 18.4375 10.5C18.0312 9.5625 17.1875 8.25 16 7.125C14.6875 5.9375 13.0312 5 11 5ZM4.96875 6.03125C6.4375 4.65625 8.46875 3.5 11 3.5C13.5 3.5 15.5312 4.65625 17 6.03125C18.4688 7.40625 19.4375 9 19.9062 10.125C20 10.375 20 10.6562 19.9062 10.9062C19.4375 12 18.4688 13.625 17 15C15.5312 16.375 13.5 17.5 11 17.5C8.46875 17.5 6.4375 16.375 4.96875 15C3.5 13.625 2.53125 12 2.0625 10.9062C1.96875 10.6562 1.96875 10.375 2.0625 10.125C2.53125 9 3.5 7.375 4.96875 6.03125ZM11 13C12.375 13 13.5 11.9062 13.5 10.5C13.5 9.125 12.375 8 11 8C10.9688 8 10.9375 8 10.9375 8C10.9688 8.1875 11 8.34375 11 8.5C11 9.625 10.0938 10.5 9 10.5C8.8125 10.5 8.65625 10.5 8.5 10.4375C8.5 10.4688 8.5 10.5 8.5 10.5C8.5 11.9062 9.59375 13 11 13ZM11 6.5C12.4062 6.5 13.7188 7.28125 14.4375 8.5C15.1562 9.75 15.1562 11.2812 14.4375 12.5C13.7188 13.75 12.4062 14.5 11 14.5C9.5625 14.5 8.25 13.75 7.53125 12.5C6.8125 11.2812 6.8125 9.75 7.53125 8.5C8.25 7.28125 9.5625 6.5 11 6.5Z" fill="#828292"/>
</svg>
