<svg width="16" height="16" viewBox="0 0 16 16" fill="none" xmlns="http://www.w3.org/2000/svg">
<path d="M8 15.1667C4.04667 15.1667 0.833332 11.9533 0.833332 8C0.833332 4.04667 4.04667 0.833333 8 0.833333C11.9533 0.833333 15.1667 4.04667 15.1667 8C15.1667 11.9533 11.9533 15.1667 8 15.1667ZM8 1.83333C4.6 1.83333 1.83333 4.6 1.83333 8C1.83333 11.4 4.6 14.1667 8 14.1667C11.4 14.1667 14.1667 11.4 14.1667 8C14.1667 4.6 11.4 1.83333 8 1.83333Z" fill="#9898A4"/>
<path d="M6.11333 10.3867C5.98667 10.3867 5.86 10.34 5.76 10.24C5.56667 10.0467 5.56667 9.72667 5.76 9.53333L9.53334 5.76C9.72667 5.56667 10.0467 5.56667 10.24 5.76C10.4333 5.95333 10.4333 6.27333 10.24 6.46667L6.46667 10.24C6.37333 10.34 6.24 10.3867 6.11333 10.3867Z" fill="#9898A4"/>
<path d="M9.88667 10.3867C9.76 10.3867 9.63334 10.34 9.53334 10.24L5.76 6.46667C5.56667 6.27333 5.56667 5.95333 5.76 5.76C5.95334 5.56667 6.27333 5.56667 6.46667 5.76L10.24 9.53333C10.4333 9.72667 10.4333 10.0467 10.24 10.24C10.14 10.34 10.0133 10.3867 9.88667 10.3867Z" fill="#9898A4"/>
</svg>
