<svg width="26" height="26" viewBox="0 0 26 26" fill="none" xmlns="http://www.w3.org/2000/svg">
<mask id="mask0_2660_51057" style="mask-type:alpha" maskUnits="userSpaceOnUse" x="4" y="4" width="18" height="18">
<path d="M19.75 20.5H6.25C5.9425 20.5 5.6875 20.245 5.6875 19.9375C5.6875 19.63 5.9425 19.375 6.25 19.375H19.75C20.0575 19.375 20.3125 19.63 20.3125 19.9375C20.3125 20.245 20.0575 20.5 19.75 20.5Z" fill="#292D32"/>
<path d="M18.2649 6.61C16.8099 5.155 15.3849 5.1175 13.8924 6.61L12.9849 7.5175C12.9099 7.5925 12.8799 7.7125 12.9099 7.8175C13.4799 9.805 15.0699 11.395 17.0574 11.965C17.0874 11.9725 17.1174 11.98 17.1474 11.98C17.2299 11.98 17.3049 11.95 17.3649 11.89L18.2649 10.9825C19.0074 10.2475 19.3674 9.535 19.3674 8.815C19.3749 8.0725 19.0149 7.3525 18.2649 6.61Z" fill="#292D32"/>
<path d="M15.7075 12.6476C15.49 12.5426 15.28 12.4376 15.0775 12.3176C14.9125 12.2201 14.755 12.1151 14.5975 12.0026C14.47 11.9201 14.32 11.8001 14.1775 11.6801C14.1625 11.6726 14.11 11.6276 14.05 11.5676C13.8025 11.3576 13.525 11.0876 13.2775 10.7876C13.255 10.7726 13.2175 10.7201 13.165 10.6526C13.09 10.5626 12.9625 10.4126 12.85 10.2401C12.76 10.1276 12.655 9.9626 12.5575 9.7976C12.4375 9.5951 12.3325 9.3926 12.2275 9.1826C12.0898 8.88759 11.7026 8.79996 11.4724 9.03015L7.255 13.2476C7.1575 13.3451 7.06749 13.5326 7.04499 13.6601L6.63999 16.5326C6.56499 17.0426 6.7075 17.5226 7.0225 17.8451C7.2925 18.1076 7.66749 18.2501 8.07249 18.2501C8.16249 18.2501 8.2525 18.2426 8.3425 18.2276L11.2225 17.8226C11.3575 17.8001 11.545 17.7101 11.635 17.6126L15.8594 13.3882C16.085 13.1626 16.0002 12.7744 15.7075 12.6476Z" fill="#292D32"/>
</mask>
<g mask="url(#mask0_2660_51057)">
<rect x="4" y="4" width="18" height="18" fill="#8480F7"/>
</g>
</svg>
