<svg width="22" height="22" viewBox="0 0 22 22" fill="none" xmlns="http://www.w3.org/2000/svg">
<path d="M18.7916 20.8542H3.20831C2.83248 20.8542 2.52081 20.5425 2.52081 20.1667C2.52081 19.7908 2.83248 19.4792 3.20831 19.4792H18.7916C19.1675 19.4792 19.4791 19.7908 19.4791 20.1667C19.4791 20.5425 19.1675 20.8542 18.7916 20.8542Z" fill="#FC9842"/>
<path d="M4.58119 16.7292C4.75536 16.7292 4.92952 16.665 5.06702 16.5275L17.9004 3.69417C18.1662 3.42834 18.1662 2.98834 17.9004 2.72251C17.6345 2.45667 17.1945 2.45667 16.9287 2.72251L4.09536 15.5558C3.82953 15.8217 3.82953 16.2617 4.09536 16.5275C4.23286 16.665 4.40702 16.7292 4.58119 16.7292Z" fill="#FC9842"/>
<path d="M17.4144 13.31C17.7903 13.31 18.1019 12.9983 18.1019 12.6225V3.20834C18.1019 2.83251 17.7903 2.52084 17.4144 2.52084H8.00026C7.62443 2.52084 7.31276 2.83251 7.31276 3.20834C7.31276 3.58418 7.62443 3.89584 8.00026 3.89584H16.7269V12.6225C16.7269 12.9983 17.0386 13.31 17.4144 13.31Z" fill="#FC9842"/>
</svg>
