<svg width="16" height="16" viewBox="0 0 16 16" fill="none" xmlns="http://www.w3.org/2000/svg">
<mask id="mask0_2550_24787" style="mask-type:alpha" maskUnits="userSpaceOnUse" x="0" y="0" width="16" height="16">
<path d="M7.40004 15.1667H4.60004C1.99337 15.1667 0.833374 14.0067 0.833374 11.4V8.60001C0.833374 5.99334 1.99337 4.83334 4.60004 4.83334H7.40004C10.0067 4.83334 11.1667 5.99334 11.1667 8.60001V11.4C11.1667 14.0067 10.0067 15.1667 7.40004 15.1667ZM4.60004 5.83334C2.53337 5.83334 1.83337 6.53334 1.83337 8.60001V11.4C1.83337 13.4667 2.53337 14.1667 4.60004 14.1667H7.40004C9.46671 14.1667 10.1667 13.4667 10.1667 11.4V8.60001C10.1667 6.53334 9.46671 5.83334 7.40004 5.83334H4.60004Z" fill="#292D32"/>
<path d="M11.4 11.1667H10.6667C10.3934 11.1667 10.1667 10.94 10.1667 10.6667V8.60001C10.1667 6.53334 9.46671 5.83334 7.40004 5.83334H5.33337C5.06004 5.83334 4.83337 5.60668 4.83337 5.33334V4.60001C4.83337 1.99334 5.99337 0.833344 8.60004 0.833344H11.4C14.0067 0.833344 15.1667 1.99334 15.1667 4.60001V7.40001C15.1667 10.0067 14.0067 11.1667 11.4 11.1667ZM11.1667 10.1667H11.4C13.4667 10.1667 14.1667 9.46668 14.1667 7.40001V4.60001C14.1667 2.53334 13.4667 1.83334 11.4 1.83334H8.60004C6.53337 1.83334 5.83337 2.53334 5.83337 4.60001V4.83334H7.40004C10.0067 4.83334 11.1667 5.99334 11.1667 8.60001V10.1667Z" fill="#292D32"/>
</mask>
<g mask="url(#mask0_2550_24787)">
<rect width="16" height="16" fill="#7B7B7B"/>
</g>
</svg>
