<svg width="56" height="56" viewBox="0 0 56 56" fill="none" xmlns="http://www.w3.org/2000/svg">
<rect x="4" y="4" width="48" height="48" rx="24" fill="#BAF3D8"/>
<rect x="4" y="4" width="48" height="48" rx="24" stroke="#D8F8E8" stroke-width="8"/>
<path d="M34.9976 34.2499C35.1876 34.2499 35.3776 34.1799 35.5276 34.0299C35.8176 33.7399 35.8176 33.2599 35.5276 32.9699L21.5276 18.9699C21.2376 18.6799 20.7576 18.6799 20.4676 18.9699C20.1776 19.2599 20.1776 19.7399 20.4676 20.0299L34.4676 34.0299C34.6176 34.1799 34.8076 34.2499 34.9976 34.2499Z" fill="#2AA065"/>
<path d="M24.7276 34.25H34.9976C35.4076 34.25 35.7476 33.91 35.7476 33.5V23.23C35.7476 22.82 35.4076 22.48 34.9976 22.48C34.5876 22.48 34.2476 22.82 34.2476 23.23V32.75H24.7276C24.3176 32.75 23.9776 33.09 23.9776 33.5C23.9776 33.91 24.3176 34.25 24.7276 34.25Z" fill="#2AA065"/>
<path d="M36.5 38.75H19.5C19.09 38.75 18.75 38.41 18.75 38C18.75 37.59 19.09 37.25 19.5 37.25H36.5C36.91 37.25 37.25 37.59 37.25 38C37.25 38.41 36.91 38.75 36.5 38.75Z" fill="#2AA065"/>
</svg>
