<svg width="24" height="24" viewBox="0 0 24 24" fill="none" xmlns="http://www.w3.org/2000/svg">
<path d="M11.9991 3.47974C11.9191 3.47974 11.8391 3.48974 11.7591 3.48974L12.5791 2.46974C12.8391 2.14974 12.7891 1.66974 12.4591 1.41974C12.1391 1.15974 11.6691 1.20974 11.4091 1.53974L9.43914 3.99974C9.42914 4.00974 9.42914 4.01974 9.41914 4.03974C9.38914 4.07974 9.36914 4.12974 9.34914 4.16974C9.32914 4.21974 9.30914 4.25974 9.29914 4.29974C9.28914 4.34974 9.28914 4.38974 9.28914 4.43974C9.28914 4.48974 9.28914 4.53974 9.28914 4.58974C9.28914 4.60974 9.28914 4.61974 9.28914 4.63974C9.29914 4.66974 9.31914 4.68974 9.32914 4.72974C9.34914 4.77974 9.35914 4.81974 9.38914 4.85974C9.41914 4.89974 9.44914 4.93974 9.48914 4.97974C9.50914 4.99974 9.52914 5.02974 9.54914 5.04974C9.55914 5.05974 9.57914 5.05974 9.58914 5.06974C9.61914 5.08974 9.64914 5.10974 9.68914 5.11974C9.73914 5.14974 9.78914 5.16974 9.83914 5.17974C9.87914 5.19974 9.90914 5.19974 9.94914 5.19974C9.97914 5.19974 9.99914 5.20974 10.0291 5.20974C10.0491 5.20974 10.0791 5.19974 10.0991 5.18974C10.1291 5.18974 10.1591 5.18974 10.1991 5.18974C10.8391 5.03974 11.4391 4.96974 12.0091 4.96974C16.4991 4.96974 20.1491 8.61974 20.1491 13.1097C20.1491 17.5997 16.4991 21.2497 12.0091 21.2497C7.51914 21.2497 3.86914 17.5997 3.86914 13.1097C3.86914 11.3697 4.43914 9.68974 5.51914 8.24974C5.76914 7.91974 5.69914 7.44974 5.36914 7.19974C5.03914 6.94974 4.56914 7.01974 4.31914 7.34974C3.03914 9.04974 2.36914 11.0397 2.36914 13.1097C2.36914 18.4197 6.68914 22.7497 12.0091 22.7497C17.3291 22.7497 21.6491 18.4297 21.6491 13.1097C21.6491 7.78974 17.3091 3.47974 11.9991 3.47974Z" fill="#828292"/>
<path d="M13.8901 14.7778C13.8061 14.9218 13.6561 14.9998 13.5001 14.9998C13.4221 14.9998 13.3441 14.9818 13.2721 14.9338L12.1321 14.1878C11.6701 13.9118 11.3281 13.3058 11.3281 12.7718V10.9998C11.3281 10.7538 11.5321 10.5498 11.7781 10.5498C12.0241 10.5498 12.2281 10.7538 12.2281 10.9998V12.7718C12.2281 12.9878 12.4081 13.3058 12.5941 13.4138L13.7341 14.1598C13.9501 14.2858 14.0221 14.5618 13.8901 14.7778Z" fill="#828292"/>
<path fill-rule="evenodd" clip-rule="evenodd" d="M12.7509 13.1586L13.892 13.9053C14.2452 14.1167 14.3637 14.574 14.1469 14.9318C14.0056 15.1719 13.7544 15.3 13.4993 15.3C13.3739 15.3 13.2357 15.2704 13.1061 15.1844L11.9719 14.4422C11.422 14.1106 11.0273 13.4092 11.0273 12.772V11C11.0273 10.5883 11.3657 10.25 11.7773 10.25C12.189 10.25 12.5273 10.5883 12.5273 11V12.772C12.5273 12.809 12.5474 12.8903 12.6014 12.9852C12.6555 13.0804 12.7143 13.1373 12.744 13.1546L12.7509 13.1586ZM12.1313 14.188L13.2713 14.934C13.3433 14.982 13.4213 15 13.4993 15C13.6553 15 13.8053 14.922 13.8893 14.778C14.0213 14.562 13.9493 14.286 13.7333 14.16L12.5933 13.414C12.4073 13.306 12.2273 12.988 12.2273 12.772V11C12.2273 10.754 12.0233 10.55 11.7773 10.55C11.5313 10.55 11.3273 10.754 11.3273 11V12.772C11.3273 13.306 11.6693 13.912 12.1313 14.188Z" fill="#828292"/>
<path fill-rule="evenodd" clip-rule="evenodd" d="M7.45 13C7.45 15.509 9.49105 17.55 12 17.55C14.509 17.55 16.55 15.509 16.55 13C16.55 10.491 14.509 8.45 12 8.45C9.49105 8.45 7.45 10.491 7.45 13ZM6 13C6 16.3098 8.69023 19 12 19C15.3098 19 18 16.3098 18 13C18 9.69023 15.3098 7 12 7C8.69023 7 6 9.69023 6 13Z" fill="#828292"/>
</svg>
