<svg width="24" height="24" viewBox="0 0 24 24" fill="none" xmlns="http://www.w3.org/2000/svg">
<path d="M7 2.5H13.25V7.5C13.25 8.20312 13.7969 8.75 14.5 8.75H19.5V20C19.5 21.4062 18.3672 22.5 17 22.5H7C5.59375 22.5 4.5 21.4062 4.5 20V5C4.5 3.63281 5.59375 2.5 7 2.5ZM14.5 2.5L19.5 7.5H14.5V2.5ZM12.9375 11.5625H12.8984C12.8984 11.0547 12.5078 10.625 11.9609 10.625C11.4531 10.625 11.0234 11.0547 11.0234 11.5625V15.5859L9.8125 14.375C9.46094 13.9844 8.875 13.9844 8.52344 14.375C8.13281 14.7266 8.13281 15.3125 8.52344 15.6641L11.3359 18.4766C11.6875 18.8672 12.2734 18.8672 12.625 18.4766L15.4375 15.6641C15.8281 15.3125 15.8281 14.7266 15.4375 14.375C15.0859 13.9844 14.5 13.9844 14.1484 14.375L12.9375 15.5859V11.5625Z" fill="#5B5B67"/>
</svg>
