<svg width="24" height="24" viewBox="0 0 24 24" fill="none" xmlns="http://www.w3.org/2000/svg">
<path d="M3.875 11.25H3.5625C3.01562 11.25 2.625 10.8594 2.625 10.3125V5.3125C2.625 4.96094 2.82031 4.60938 3.17188 4.45312C3.52344 4.33594 3.95312 4.41406 4.22656 4.64844L5.82812 6.28906C9.26562 2.92969 14.7734 2.92969 18.1719 6.32812C21.5703 9.76562 21.5703 15.2734 18.1719 18.7109C14.7344 22.1094 9.22656 22.1094 5.78906 18.7109C5.32031 18.2031 5.32031 17.4219 5.78906 16.9531C6.29688 16.4453 7.07812 16.4453 7.54688 16.9531C10.0078 19.375 13.9531 19.375 16.4141 16.9531C18.8359 14.4922 18.8359 10.5469 16.4141 8.08594C13.9922 5.66406 10.0469 5.66406 7.58594 8.04688L9.22656 9.64844C9.46094 9.92188 9.53906 10.3516 9.42188 10.7031C9.26562 11.0547 8.91406 11.25 8.5625 11.25H3.875Z" fill="#5B5B67"/>
</svg>
