<svg width="16" height="16" viewBox="0 0 16 16" fill="none" xmlns="http://www.w3.org/2000/svg">
<path d="M12.875 8.5C12.875 6.76562 11.9375 5.17188 10.4375 4.28125C8.91406 3.41406 7.0625 3.41406 5.5625 4.28125C4.03906 5.17188 3.125 6.76562 3.125 8.5C3.125 10.2578 4.03906 11.8516 5.5625 12.7422C7.0625 13.6094 8.91406 13.6094 10.4375 12.7422C11.9375 11.8516 12.875 10.2578 12.875 8.5ZM2 8.5C2 6.36719 3.125 4.39844 5 3.32031C6.85156 2.24219 9.125 2.24219 11 3.32031C12.8516 4.39844 14 6.36719 14 8.5C14 10.6562 12.8516 12.625 11 13.7031C9.125 14.7812 6.85156 14.7812 5 13.7031C3.125 12.625 2 10.6562 2 8.5ZM5.96094 6.39062C6.14844 5.85156 6.64062 5.5 7.20312 5.5H8.5625C9.38281 5.5 10.0625 6.17969 10.0625 7C10.0625 7.51562 9.75781 8.00781 9.3125 8.26562L8.5625 8.71094C8.53906 9.01562 8.30469 9.25 8 9.25C7.67188 9.25 7.4375 9.01562 7.4375 8.6875V8.38281C7.4375 8.17188 7.53125 7.98438 7.71875 7.89062L8.75 7.30469C8.86719 7.23438 8.9375 7.11719 8.9375 7C8.9375 6.78906 8.77344 6.64844 8.5625 6.64844H7.20312C7.13281 6.64844 7.0625 6.69531 7.03906 6.76562L7.01562 6.78906C6.92188 7.09375 6.59375 7.23438 6.3125 7.14062C6.00781 7.02344 5.86719 6.69531 5.96094 6.41406V6.39062ZM7.25 10.75C7.25 10.3516 7.57812 10 8 10C8.39844 10 8.75 10.3516 8.75 10.75C8.75 11.1719 8.39844 11.5 8 11.5C7.57812 11.5 7.25 11.1719 7.25 10.75Z" fill="#AEAEB7"/>
</svg>
