<svg width="18" height="19" viewBox="0 0 18 19" fill="none" xmlns="http://www.w3.org/2000/svg">
<path d="M9.00867 0C6.22734 0 3.63843 1.32816 1.9154 3.64321C1.81045 3.79078 1.75797 3.96602 1.77546 4.15971C1.79296 4.34418 1.88917 4.5102 2.02036 4.6301C2.13406 4.72233 2.28275 4.77767 2.43144 4.77767C2.64135 4.77767 2.83377 4.67622 2.95622 4.5102C4.4256 2.53641 6.62967 1.40194 8.99117 1.40194C13.2244 1.40194 16.6617 5.03593 16.6617 9.50001C16.6617 9.88739 16.9591 10.201 17.3264 10.201C17.3439 10.201 17.3701 10.201 17.3876 10.201C17.7462 10.1549 17.9999 9.85972 17.9999 9.50923C18.0174 4.26117 13.9766 0 9.00867 0Z" fill="#292D32"/>
<path d="M1.74919 6.88054C1.87164 6.51161 1.68797 6.11501 1.33812 5.98588C1.2594 5.95821 1.18943 5.94899 1.11946 5.94899C0.830831 5.94899 0.577188 6.14268 0.489725 6.4286C0.166112 7.41549 -6.83973e-05 8.45773 -6.83973e-05 9.50919C-6.83973e-05 9.89656 0.297306 10.2102 0.655905 10.2102C1.02325 10.2102 1.32062 9.88734 1.32062 9.50919C1.32062 8.61452 1.46057 7.72909 1.74045 6.88054H1.74919Z" fill="#292D32"/>
<path d="M13.9241 14.702C13.8628 14.6835 13.7929 14.6743 13.7229 14.6743C13.4343 14.6743 13.1719 14.8772 13.0844 15.1724C12.9095 15.7811 12.6996 16.3622 12.4809 16.9064C12.341 17.2661 12.4984 17.6811 12.8308 17.8287C12.892 17.8564 12.9707 17.884 13.0669 17.884C13.3555 17.884 13.5917 17.718 13.7054 17.4598C13.9503 16.8602 14.1689 16.2331 14.3526 15.5874C14.4051 15.4122 14.3876 15.2185 14.3089 15.0525C14.2214 14.8864 14.0815 14.7573 13.9153 14.702H13.9241Z" fill="#292D32"/>
<path d="M9.00865 2.93305H8.87745C8.51011 2.93305 8.21273 3.24664 8.21273 3.63402C8.21273 4.0214 8.51011 4.33499 8.87745 4.33499H9.00865C11.7113 4.33499 13.9066 6.65005 13.9066 9.50005C13.9066 10.4593 13.8366 11.4369 13.6967 12.4054C13.6442 12.7928 13.8978 13.1525 14.2564 13.2078C14.2914 13.2078 14.3177 13.2078 14.3526 13.2078C14.3701 13.2078 14.3876 13.2078 14.4051 13.2078C14.7112 13.1801 14.9649 12.9311 15.0174 12.6083C15.1661 11.5661 15.236 10.5238 15.236 9.50005C15.236 5.87529 12.4459 2.92383 9.00865 2.92383V2.93305Z" fill="#292D32"/>
<path d="M6.53342 5.04519C6.84829 4.84228 6.96199 4.41801 6.76957 4.08597C6.65587 3.87383 6.42847 3.73548 6.19232 3.73548C6.06987 3.73548 5.94742 3.77238 5.85121 3.83694C3.95326 5.0083 2.77251 7.185 2.77251 9.50005C2.77251 11.068 2.30895 12.5622 1.43432 13.835C1.21567 14.1486 1.28564 14.5913 1.58301 14.8219C1.69671 14.9141 1.82791 14.9602 1.97659 14.9602C1.97659 14.9602 2.01158 14.9602 2.02033 14.9602C2.21275 14.9418 2.39642 14.8403 2.51012 14.6743C3.55093 13.1709 4.10195 11.3816 4.10195 9.50928C4.10195 7.63694 5.02906 5.97675 6.52468 5.05442L6.53342 5.04519Z" fill="#292D32"/>
<path d="M9.00867 5.87523C7.11072 5.87523 5.56262 7.50776 5.56262 9.50922C5.56262 9.78592 5.56262 10.0073 5.53638 10.2286C5.51889 10.4223 5.58011 10.5976 5.69381 10.7451C5.80752 10.8927 5.9737 10.9757 6.14862 10.9942C6.14862 10.9942 6.2011 10.9942 6.20985 10.9942C6.55095 10.9942 6.83958 10.7082 6.86582 10.3485C6.88331 10.1087 6.89206 9.84126 6.89206 9.50922C6.89206 8.28252 7.83666 7.27718 9.00867 7.27718C10.1807 7.27718 11.1253 8.28252 11.1253 9.50922C11.1253 12.4976 10.3469 15.4121 8.87747 17.9301C8.78126 18.0869 8.75502 18.2806 8.79875 18.465C8.84249 18.6495 8.94744 18.8063 9.09613 18.8985C9.19234 18.9539 9.28855 18.9908 9.3935 19C9.411 19 9.42849 19 9.44598 19C9.68213 19 9.89204 18.8709 10.0145 18.6587C11.6063 15.9194 12.4547 12.7558 12.4547 9.49999C12.4547 7.49854 10.9066 5.86601 9.00867 5.86601V5.87523Z" fill="#292D32"/>
<path d="M6.22731 12.8481C6.14859 12.682 6.01739 12.5529 5.84247 12.4884C5.7725 12.4607 5.70253 12.4515 5.62381 12.4515C5.33518 12.4515 5.08154 12.6452 4.99407 12.9219C4.67921 13.8995 4.20691 14.8219 3.60341 15.6612C3.49846 15.8087 3.3935 15.9748 3.30604 16.1592C3.13986 16.5097 3.2798 16.934 3.60341 17.1C3.69087 17.1461 3.78708 17.1738 3.89204 17.1738H3.90079C4.15443 17.1738 4.38183 17.0262 4.49553 16.7864C4.53927 16.6942 4.60049 16.5927 4.66171 16.5097C5.35267 15.5505 5.8862 14.499 6.2448 13.383C6.30602 13.2078 6.28853 13.0141 6.21856 12.8481H6.22731Z" fill="#292D32"/>
<path d="M9.00861 8.79907C8.64126 8.79907 8.34389 9.11266 8.34389 9.50004C8.34389 12.3869 7.478 15.1263 5.84244 17.4321C5.62378 17.7457 5.67626 18.1792 5.97364 18.419C6.08734 18.5112 6.22728 18.5573 6.37597 18.5573C6.39346 18.5573 6.41095 18.5573 6.4197 18.5573C6.61212 18.5481 6.79579 18.4466 6.90949 18.2806C8.71998 15.735 9.67333 12.7098 9.67333 9.50927C9.67333 9.12189 9.37595 8.80829 9.00861 8.80829V8.79907Z" fill="#292D32"/>
</svg>
