<svg width="183" height="64" viewBox="0 0 183 64" fill="none" xmlns="http://www.w3.org/2000/svg">
<path d="M49.9592 17.9144C49.9588 17.9147 49.9588 17.9152 49.959 17.9156L55.7141 30.044C56.1002 30.8577 56.1474 31.7914 55.8452 32.6399L51.8126 43.9626C51.5103 44.8114 50.8831 45.5054 50.0691 45.8917L37.9418 51.6472L32.4683 54.2471L28.4682 56.1462L24.5962 57.9822L13.0007 63.4828C10.2666 64.7798 7.32919 62.1238 8.34523 59.2733L12.6554 47.1812L14.0916 43.1469L15.5798 38.973L17.6124 33.2648L22.1168 20.6174C22.4192 19.7684 23.0466 19.0743 23.861 18.688L34.7172 13.5386C35.5308 13.1527 36.4645 13.1056 37.3128 13.4078L49.9587 17.9125C49.9595 17.9128 49.9597 17.9138 49.9592 17.9144ZM25.9066 22.2918C25.9066 22.2915 25.9062 22.2915 25.9061 22.2917L19.4708 40.3609L17.9791 44.535L16.5463 48.5656L15.5849 51.2632C14.5691 54.1138 17.5068 56.7697 20.2408 55.4724L22.8239 54.2467L30.696 50.5134L46.7499 42.8927C47.5639 42.5063 48.191 41.8123 48.4932 40.9635L51.3773 32.8632C51.6793 32.0148 51.6322 31.0812 51.2461 30.2676L47.5632 22.5061C47.1769 21.6919 46.4829 21.0646 45.6339 20.7623L37.5343 17.8779C36.6861 17.5759 35.7528 17.6229 34.9393 18.0087L25.907 22.2921C25.9069 22.2921 25.9067 22.292 25.9066 22.2918Z" fill="#8480F7"/>
<path d="M24.2459 46.0854C24.2462 46.085 24.2463 46.0845 24.2461 46.0841L18.491 33.9557C18.1049 33.1421 18.0577 32.2083 18.3599 31.3599L22.3925 20.0371C22.6948 19.1883 23.322 18.4944 24.136 18.108L36.2633 12.3525L41.7368 9.75262L45.7369 7.85355L49.6089 6.01756L61.2044 0.516959C63.9385 -0.780037 66.8759 1.87599 65.8598 4.72647L61.5497 16.8186L60.1135 20.8529L58.6253 25.0268L56.5927 30.7349L52.0883 43.3823C51.7859 44.2314 51.1585 44.9255 50.3441 45.3118L39.4879 50.4611C38.6742 50.8471 37.7406 50.8941 36.8923 50.5919L24.2464 46.0872C24.2456 46.0869 24.2454 46.086 24.2459 46.0854ZM48.2984 41.7079C48.2984 41.7082 48.2989 41.7083 48.299 41.708L54.7342 23.6388L56.2259 19.4647L57.6588 15.4341L58.6201 12.7365C59.636 9.88594 56.6983 7.23009 53.9643 8.52739L51.3812 9.75305L43.509 13.4864L27.4552 21.107C26.6412 21.4934 26.0141 22.1874 25.7118 23.0363L22.8278 31.1366C22.5257 31.985 22.5729 32.9185 22.959 33.7321L26.6419 41.4937C27.0282 42.3079 27.7222 42.9351 28.5712 43.2375L36.6708 46.1218C37.5189 46.4239 38.4523 46.3768 39.2658 45.991L48.298 41.7077C48.2982 41.7076 48.2984 41.7077 48.2984 41.7079Z" fill="#8480F7"/>
<path d="M67.1338 58.6254C67.6295 59.739 66.5313 60.896 65.3934 60.459L52.6496 55.565L49.4248 54.3264L49.1737 54.2301C48.0358 53.7933 47.994 52.1988 49.1074 51.7029L50.7074 50.9904L54.6478 49.2358C54.979 49.0883 55.2381 48.8155 55.3683 48.4771L56.9175 44.4492L57.5436 42.8175C57.9803 41.6795 59.575 41.6376 60.0708 42.7511L60.1799 42.9962L61.581 46.15L67.1338 58.6254Z" fill="#454381"/>
<path d="M6.69241 7.18954C6.13621 6.1049 7.16906 4.88926 8.32929 5.26297L21.3231 9.4482L24.6111 10.5075L24.8672 10.5899C26.0274 10.9634 26.1569 12.5532 25.0724 13.1095L23.5141 13.9091L19.6762 15.8778C19.3536 16.0433 19.1099 16.33 18.9986 16.675L17.6734 20.7821L17.138 22.4458C16.7646 23.6061 15.1747 23.7357 14.6183 22.6511L14.4958 22.4124L12.9234 19.3405L6.69241 7.18954Z" fill="#454381"/>
<path d="M174.892 42.9609C173.308 42.9609 172.005 42.7538 170.981 42.3396C169.958 41.901 169.142 41.3649 168.533 40.7314C167.948 40.0735 167.509 39.4278 167.217 38.7943C166.924 38.1608 166.73 37.6369 166.632 37.2227C166.559 36.7841 166.522 36.5648 166.522 36.5648H171.128C171.128 36.5648 171.164 36.6988 171.237 36.9668C171.335 37.2349 171.505 37.5516 171.749 37.9171C172.017 38.2583 172.419 38.5628 172.955 38.8309C173.491 39.0989 174.198 39.2329 175.075 39.2329C176.123 39.2329 176.878 39.0136 177.341 38.575C177.804 38.1121 178.035 37.6004 178.035 37.0399C178.035 36.5039 177.828 36.0775 177.414 35.7607C177.024 35.4196 176.439 35.1638 175.66 34.9932L172.992 34.445C171.92 34.2257 170.921 33.9089 169.995 33.4947C169.069 33.0561 168.313 32.4713 167.729 31.7403C167.144 30.985 166.851 30.0225 166.851 28.8529C166.851 27.123 167.509 25.6975 168.825 24.5767C170.141 23.4315 171.932 22.8589 174.198 22.8589C175.635 22.8589 176.817 23.0538 177.743 23.4437C178.693 23.8335 179.449 24.3209 180.009 24.9056C180.594 25.4904 181.02 26.0752 181.288 26.66C181.581 27.2448 181.763 27.7443 181.837 28.1585C181.934 28.5484 181.983 28.7433 181.983 28.7433H177.524C177.524 28.7433 177.487 28.6336 177.414 28.4144C177.341 28.1707 177.183 27.9027 176.939 27.6103C176.72 27.3179 176.379 27.062 175.916 26.8427C175.477 26.5991 174.88 26.4773 174.125 26.4773C173.101 26.4773 172.37 26.6965 171.932 27.1351C171.518 27.5737 171.31 28.0367 171.31 28.524C171.31 29.0601 171.542 29.4743 172.005 29.7667C172.468 30.0591 173.065 30.2784 173.796 30.4246L176.318 30.9728C178.121 31.3383 179.595 31.9718 180.74 32.8733C181.91 33.7749 182.494 35.0785 182.494 36.7841C182.494 37.9293 182.19 38.9771 181.581 39.9273C180.996 40.8532 180.131 41.5964 178.986 42.1568C177.865 42.6929 176.5 42.9609 174.892 42.9609Z" fill="#474752"/>
<path d="M159.572 20.2273C158.72 20.2273 158.013 19.9471 157.453 19.3867C156.916 18.8262 156.648 18.1562 156.648 17.3765C156.648 16.5968 156.916 15.9267 157.453 15.3663C158.013 14.8058 158.72 14.5256 159.572 14.5256C160.425 14.5256 161.132 14.8058 161.692 15.3663C162.253 15.9267 162.533 16.5968 162.533 17.3765C162.533 18.1562 162.253 18.8262 161.692 19.3867C161.132 19.9471 160.425 20.2273 159.572 20.2273ZM157.16 42.5954V23.2243H162.021V42.5954H157.16Z" fill="#474752"/>
<path d="M134.287 42.5954L140.317 32.9464L134.25 23.2244H139.367L143.57 30.0225L147.846 23.2244H152.927L146.713 32.9464L152.927 42.5954H147.81L143.57 35.7973L139.367 42.5954H134.287Z" fill="#474752"/>
<path d="M114.741 49.7225C114.107 49.7225 113.583 49.6981 113.169 49.6494C112.779 49.6007 112.584 49.5763 112.584 49.5763V45.5924C112.584 45.5924 112.767 45.6046 113.133 45.629C113.498 45.6777 113.925 45.7021 114.412 45.7021C115.655 45.7021 116.678 45.495 117.482 45.0807C118.31 44.6909 119.005 43.9477 119.565 42.8512L112.292 23.2244H117.226L122.087 37.0399L126.875 23.2244H131.809L124.719 42.1203C123.744 44.7031 122.489 46.6158 120.954 47.8585C119.419 49.1011 117.348 49.7225 114.741 49.7225Z" fill="#474752"/>
<path d="M89.4121 42.5954V15.5491H100.084C102.253 15.5491 104.056 15.9877 105.494 16.8648C106.931 17.7177 108.003 18.8385 108.71 20.2274C109.441 21.5919 109.807 23.0173 109.807 24.5036C109.807 25.9899 109.441 27.4275 108.71 28.8164C108.003 30.1809 106.931 31.3017 105.494 32.1789C104.056 33.0561 102.253 33.4947 100.084 33.4947H94.3828V42.5954H89.4121ZM100.048 19.8619H94.3828V29.1819H100.048C101.12 29.1819 102.009 28.9626 102.716 28.524C103.423 28.0611 103.946 27.4763 104.288 26.7697C104.653 26.0387 104.836 25.2955 104.836 24.5402C104.836 23.7604 104.653 23.0173 104.288 22.3107C103.946 21.604 103.423 21.0193 102.716 20.5563C102.009 20.0933 101.12 19.8619 100.048 19.8619Z" fill="#474752"/>
</svg>
