<svg width="18" height="19" viewBox="0 0 18 19" fill="none" xmlns="http://www.w3.org/2000/svg">
<mask id="mask0_2129_38806" style="mask-type:alpha" maskUnits="userSpaceOnUse" x="0" y="0" width="18" height="19">
<path d="M15.75 17H2.25C1.9425 17 1.6875 16.745 1.6875 16.4375C1.6875 16.13 1.9425 15.875 2.25 15.875H15.75C16.0575 15.875 16.3125 16.13 16.3125 16.4375C16.3125 16.745 16.0575 17 15.75 17Z" fill="#292D32"/>
<path d="M14.265 3.11C12.81 1.655 11.385 1.6175 9.8925 3.11L8.985 4.0175C8.91 4.0925 8.88 4.2125 8.91 4.3175C9.48 6.305 11.07 7.895 13.0575 8.465C13.0875 8.4725 13.1175 8.48 13.1475 8.48C13.23 8.48 13.305 8.45 13.365 8.39L14.265 7.4825C15.0075 6.7475 15.3675 6.035 15.3675 5.315C15.375 4.5725 15.015 3.8525 14.265 3.11Z" fill="#292D32"/>
<path d="M11.7075 9.14751C11.49 9.04251 11.28 8.93751 11.0775 8.81751C10.9125 8.72001 10.755 8.61501 10.5975 8.50251C10.47 8.42001 10.32 8.30001 10.1775 8.18001C10.1625 8.17251 10.11 8.12751 10.05 8.06751C9.8025 7.85751 9.525 7.58751 9.2775 7.28751C9.255 7.27251 9.2175 7.22001 9.165 7.15251C9.09 7.06251 8.9625 6.91251 8.85 6.74001C8.76 6.62751 8.655 6.46251 8.5575 6.29751C8.4375 6.09501 8.3325 5.89251 8.2275 5.68251C8.08983 5.3875 7.70264 5.29987 7.47245 5.53006L3.255 9.74751C3.1575 9.84501 3.0675 10.0325 3.045 10.16L2.64 13.0325C2.565 13.5425 2.7075 14.0225 3.0225 14.345C3.2925 14.6075 3.6675 14.75 4.0725 14.75C4.1625 14.75 4.2525 14.7425 4.3425 14.7275L7.2225 14.3225C7.3575 14.3 7.545 14.21 7.635 14.1125L11.8594 9.8881C12.085 9.66251 12.0002 9.27436 11.7075 9.14751Z" fill="#292D32"/>
</mask>
<g mask="url(#mask0_2129_38806)">
<rect y="0.5" width="18" height="18" fill="#5B5B67"/>
</g>
</svg>
