<svg width="18" height="19" viewBox="0 0 18 19" fill="none" xmlns="http://www.w3.org/2000/svg">
<mask id="mask0_2129_41793" style="mask-type:alpha" maskUnits="userSpaceOnUse" x="0" y="0" width="18" height="19">
<path d="M12.6 7.25H9.5625V10.58L11.115 9.0275C11.2275 8.915 11.37 8.8625 11.5125 8.8625C11.655 8.8625 11.7975 8.915 11.91 9.0275C12.1275 9.245 12.1275 9.605 11.91 9.8225L9.3975 12.335C9.18 12.5525 8.82 12.5525 8.6025 12.335L6.09 9.8225C5.8725 9.605 5.8725 9.245 6.09 9.0275C6.3075 8.81 6.6675 8.81 6.885 9.0275L8.4375 10.58V7.25H5.4C3 7.25 1.5 8.75 1.5 11.15V13.0925C1.5 15.5 3 17 5.4 17H12.5925C14.9925 17 16.4925 15.5 16.4925 13.1V11.15C16.5 8.75 15 7.25 12.6 7.25Z" fill="#292D32"/>
<path d="M9.5625 2.5625C9.5625 2.255 9.3075 2 9 2C8.6925 2 8.4375 2.255 8.4375 2.5625V7.25H9.5625V2.5625Z" fill="#292D32"/>
</mask>
<g mask="url(#mask0_2129_41793)">
<rect y="0.5" width="18" height="18" fill="#5B5B67"/>
</g>
</svg>
