<svg width="18" height="19" viewBox="0 0 18 19" fill="none" xmlns="http://www.w3.org/2000/svg">
<mask id="mask0_2129_41780" style="mask-type:alpha" maskUnits="userSpaceOnUse" x="0" y="0" width="18" height="19">
<path d="M15.7275 12.56C15.5475 14.5625 14.1 15.875 12 15.875H5.25C3.18 15.875 1.5 14.195 1.5 12.125V6.875C1.5 4.835 2.73 3.41 4.6425 3.17C4.8375 3.14 5.04 3.125 5.25 3.125H12C12.195 3.125 12.3825 3.1325 12.5625 3.1625C14.355 3.3725 15.57 4.625 15.7275 6.44C15.75 6.6575 15.57 6.8375 15.3525 6.8375H14.19C13.47 6.8375 12.8025 7.115 12.3225 7.61C11.7525 8.165 11.4675 8.945 11.535 9.725C11.655 11.09 12.855 12.1625 14.28 12.1625H15.3525C15.57 12.1625 15.75 12.3425 15.7275 12.56Z" fill="#292D32"/>
<path d="M16.5 8.72749V10.2725C16.5 10.685 16.17 11.0225 15.75 11.0375H14.28C13.47 11.0375 12.7275 10.445 12.66 9.63499C12.615 9.16249 12.795 8.71999 13.11 8.41249C13.3875 8.12749 13.77 7.96249 14.19 7.96249H15.75C16.17 7.97749 16.5 8.31499 16.5 8.72749Z" fill="#292D32"/>
</mask>
<g mask="url(#mask0_2129_41780)">
<rect y="0.5" width="18" height="18" fill="#5B5B67"/>
</g>
</svg>
