<svg width="18" height="19" viewBox="0 0 18 19" fill="none" xmlns="http://www.w3.org/2000/svg">
<mask id="mask0_2129_38836" style="mask-type:alpha" maskUnits="userSpaceOnUse" x="0" y="0" width="18" height="19">
<path d="M15.8025 4.4225C14.595 4.3025 13.3875 4.2125 12.1725 4.145V4.1375L12.0075 3.1625C11.895 2.4725 11.73 1.4375 9.975 1.4375H8.01C6.2625 1.4375 6.0975 2.4275 5.9775 3.155L5.82 4.115C5.1225 4.16 4.425 4.205 3.7275 4.2725L2.1975 4.4225C1.8825 4.4525 1.6575 4.73 1.6875 5.0375C1.7175 5.345 1.9875 5.57 2.3025 5.54L3.8325 5.39C7.7625 5 11.7225 5.15 15.6975 5.5475C15.72 5.5475 15.735 5.5475 15.7575 5.5475C16.0425 5.5475 16.29 5.33 16.32 5.0375C16.3425 4.73 16.1175 4.4525 15.8025 4.4225Z" fill="#292D32"/>
<path d="M14.4225 6.605C14.2425 6.4175 13.995 6.3125 13.74 6.3125H4.26C4.005 6.3125 3.75 6.4175 3.5775 6.605C3.405 6.7925 3.3075 7.0475 3.3225 7.31L3.7875 15.005C3.87 16.145 3.975 17.57 6.5925 17.57H11.4075C14.025 17.57 14.13 16.1525 14.2125 15.005L14.6775 7.3175C14.6925 7.0475 14.595 6.7925 14.4225 6.605ZM10.245 13.8125H7.7475C7.44 13.8125 7.185 13.5575 7.185 13.25C7.185 12.9425 7.44 12.6875 7.7475 12.6875H10.245C10.5525 12.6875 10.8075 12.9425 10.8075 13.25C10.8075 13.5575 10.5525 13.8125 10.245 13.8125ZM10.875 10.8125H7.125C6.8175 10.8125 6.5625 10.5575 6.5625 10.25C6.5625 9.9425 6.8175 9.6875 7.125 9.6875H10.875C11.1825 9.6875 11.4375 9.9425 11.4375 10.25C11.4375 10.5575 11.1825 10.8125 10.875 10.8125Z" fill="#292D32"/>
</mask>
<g mask="url(#mask0_2129_38836)">
<rect y="0.5" width="18" height="18" fill="#DA3345"/>
</g>
</svg>
