<svg width="18" height="19" viewBox="0 0 18 19" fill="none" xmlns="http://www.w3.org/2000/svg">
<mask id="mask0_2129_41806" style="mask-type:alpha" maskUnits="userSpaceOnUse" x="0" y="0" width="18" height="19">
<path d="M12.1425 2H5.8575C3.1275 2 1.5 3.6275 1.5 6.3575V12.635C1.5 15.3725 3.1275 17 5.8575 17H12.135C14.865 17 16.4925 15.3725 16.4925 12.6425V6.3575C16.5 3.6275 14.8725 2 12.1425 2ZM9 14.1875C7.6575 14.1875 6.6075 13.52 5.895 12.86V13.3925C5.895 13.7 5.64 13.955 5.3325 13.955C5.025 13.955 4.77 13.7 4.77 13.3925V11.33C4.77 11.0225 5.025 10.7675 5.3325 10.7675H7.1925C7.5 10.7675 7.755 11.0225 7.755 11.33C7.755 11.6375 7.5 11.8925 7.1925 11.8925H6.5175C7.0725 12.4475 7.935 13.0625 9 13.0625C10.965 13.0625 12.5625 11.465 12.5625 9.5C12.5625 9.1925 12.8175 8.9375 13.125 8.9375C13.4325 8.9375 13.6875 9.1925 13.6875 9.5C13.6875 12.0875 11.5875 14.1875 9 14.1875ZM13.6875 7.655C13.6875 7.6775 13.6875 7.7 13.6875 7.715C13.68 7.7975 13.6575 7.8725 13.62 7.94C13.5825 8.0075 13.53 8.0675 13.4625 8.12C13.41 8.1575 13.35 8.1875 13.2825 8.21C13.23 8.225 13.1775 8.2325 13.125 8.2325H11.3025C10.995 8.2325 10.74 7.9775 10.74 7.67C10.74 7.3625 10.995 7.1075 11.3025 7.1075H11.925C11.325 6.5525 10.3575 5.9375 9.015 5.9375C7.05 5.9375 5.4525 7.535 5.4525 9.5C5.4525 9.8075 5.1975 10.0625 4.89 10.0625C4.5825 10.0625 4.3125 9.8075 4.3125 9.5C4.3125 6.9125 6.4125 4.8125 9 4.8125C10.6125 4.8125 11.7975 5.51 12.5625 6.1775V5.6075C12.5625 5.3 12.8175 5.045 13.125 5.045C13.4325 5.045 13.6875 5.3 13.6875 5.6075V7.655Z" fill="#292D32"/>
</mask>
<g mask="url(#mask0_2129_41806)">
<rect y="0.5" width="18" height="18" fill="#5B5B67"/>
</g>
</svg>
