<svg width="18" height="19" viewBox="0 0 18 19" fill="none" xmlns="http://www.w3.org/2000/svg">
<mask id="mask0_2129_38787" style="mask-type:alpha" maskUnits="userSpaceOnUse" x="0" y="0" width="18" height="19">
<path d="M12.375 9.5C11.3627 9.5 10.4568 9.94768 9.83834 10.6536L7.69608 9.33511C7.80576 9.03406 7.87511 8.71376 7.87511 8.37491C7.87511 8.15353 7.84337 7.94055 7.79495 7.73333L10.6426 6.41929C11.055 6.92251 11.6735 7.24989 12.3752 7.24989C13.6172 7.24989 14.6251 6.24247 14.6251 4.99995C14.6251 3.75742 13.617 2.75 12.375 2.75C11.132 2.75 10.1251 3.75742 10.1251 4.99995C10.1251 5.13715 10.1421 5.26962 10.165 5.4004L7.32074 6.71328C6.80826 6.01834 5.99137 5.56239 5.06255 5.56239C3.50903 5.56256 2.25 6.82142 2.25 8.37494C2.25 9.92847 3.50903 11.1875 5.06255 11.1875C5.87104 11.1875 6.59515 10.8414 7.10815 10.2943L9.24723 11.6106C9.08892 12.0016 9 12.4273 9 12.875C9 14.7394 10.5106 16.25 12.375 16.25C14.2383 16.25 15.75 14.7394 15.75 12.875C15.75 11.0106 14.2383 9.5 12.375 9.5Z" fill="#292D32"/>
</mask>
<g mask="url(#mask0_2129_38787)">
<rect y="0.5" width="18" height="18" fill="#5B5B67"/>
</g>
</svg>
