<svg width="18" height="19" viewBox="0 0 18 19" fill="none" xmlns="http://www.w3.org/2000/svg">
<mask id="mask0_2129_38820" style="mask-type:alpha" maskUnits="userSpaceOnUse" x="0" y="0" width="18" height="19">
<path d="M9.75 9.31249C9.6075 9.31249 9.465 9.25999 9.3525 9.14749C9.135 8.92999 9.135 8.56999 9.3525 8.35249L15.5025 2.20249C15.72 1.98499 16.08 1.98499 16.2975 2.20249C16.515 2.41999 16.515 2.77999 16.2975 2.99749L10.1475 9.14749C10.035 9.25999 9.8925 9.31249 9.75 9.31249Z" fill="#292D32"/>
<path d="M16.5 6.1625C16.1925 6.1625 15.9375 5.9075 15.9375 5.6V2.5625H12.9C12.5925 2.5625 12.3375 2.3075 12.3375 2C12.3375 1.6925 12.5925 1.4375 12.9 1.4375H16.5C16.8075 1.4375 17.0625 1.6925 17.0625 2V5.6C17.0625 5.9075 16.8075 6.1625 16.5 6.1625Z" fill="#292D32"/>
<path d="M11.25 17.5625H6.75C2.6775 17.5625 0.9375 15.8225 0.9375 11.75V7.25C0.9375 3.1775 2.6775 1.4375 6.75 1.4375H8.25C8.5575 1.4375 8.8125 1.6925 8.8125 2C8.8125 2.3075 8.5575 2.5625 8.25 2.5625H6.75C3.2925 2.5625 2.0625 3.7925 2.0625 7.25V11.75C2.0625 15.2075 3.2925 16.4375 6.75 16.4375H11.25C14.7075 16.4375 15.9375 15.2075 15.9375 11.75V10.25C15.9375 9.9425 16.1925 9.6875 16.5 9.6875C16.8075 9.6875 17.0625 9.9425 17.0625 10.25V11.75C17.0625 15.8225 15.3225 17.5625 11.25 17.5625Z" fill="#292D32"/>
</mask>
<g mask="url(#mask0_2129_38820)">
<rect y="0.5" width="18" height="18" fill="#5B5B67"/>
</g>
</svg>
