<svg width="67" height="67" viewBox="0 0 67 67" fill="none" xmlns="http://www.w3.org/2000/svg">
<rect x="5.5" y="5.5" width="56" height="56" rx="28" fill="#F7D7DA"/>
<rect x="5.5" y="5.5" width="56" height="56" rx="28" stroke="#FCEEEF" stroke-width="10"/>
<path d="M33.5 45.5C29.1875 45.5 25.25 43.25 23.0938 39.5C20.9375 35.7969 20.9375 31.25 23.0938 27.5C25.25 23.7969 29.1875 21.5 33.5 21.5C37.7656 21.5 41.7031 23.7969 43.8594 27.5C46.0156 31.25 46.0156 35.7969 43.8594 39.5C41.7031 43.25 37.7656 45.5 33.5 45.5ZM33.5 27.5C32.8438 27.5 32.375 28.0156 32.375 28.625V33.875C32.375 34.5312 32.8438 35 33.5 35C34.1094 35 34.625 34.5312 34.625 33.875V28.625C34.625 28.0156 34.1094 27.5 33.5 27.5ZM32 38C32 38.8438 32.6562 39.5 33.5 39.5C34.2969 39.5 35 38.8438 35 38C35 37.2031 34.2969 36.5 33.5 36.5C32.6562 36.5 32 37.2031 32 38Z" fill="#DA3345"/>
</svg>
