<svg width="67" height="66" viewBox="0 0 67 66" fill="none" xmlns="http://www.w3.org/2000/svg">
<rect x="5.5" y="5" width="56" height="56" rx="28" fill="#DDDBFD"/>
<rect x="5.5" y="5" width="56" height="56" rx="28" stroke="#EDECFE" stroke-width="10"/>
<mask id="mask0_2512_37534" style="mask-type:alpha" maskUnits="userSpaceOnUse" x="19" y="19" width="29" height="28">
<path d="M44.1524 28.5199C44.5284 29.1012 44.0524 29.7913 43.36 29.7913H22.8335C22.2812 29.7913 21.8335 29.3436 21.8335 28.7913V26.4897C21.8335 23.643 24.1435 21.333 26.9902 21.333H29.6968C31.5985 21.333 32.1935 21.9513 32.9518 22.9663L34.5852 25.1363C34.9468 25.6147 34.9935 25.673 35.6702 25.673H38.9252C41.1153 25.673 43.0434 26.8056 44.1524 28.5199Z" fill="#292D32"/>
<path d="M44.1469 31.541C44.6978 31.541 45.145 31.9867 45.1469 32.5376L45.1668 38.4247C45.1668 41.8663 42.3668 44.6663 38.9252 44.6663H28.0752C24.6335 44.6663 21.8335 41.8663 21.8335 38.4247V32.5413C21.8335 31.989 22.2812 31.5413 22.8335 31.5413L44.1469 31.541Z" fill="#292D32"/>
</mask>
<g mask="url(#mask0_2512_37534)">
<rect x="19.5" y="19" width="28" height="28" fill="#8480F7"/>
</g>
</svg>
