<svg width="26" height="26" viewBox="0 0 26 26" fill="none" xmlns="http://www.w3.org/2000/svg">
<path d="M0 13C0 5.8203 5.8203 0 13 0C20.1797 0 26 5.8203 26 13C26 20.1797 20.1797 26 13 26C5.8203 26 0 20.1797 0 13Z" fill="#ECECEE"/>
<mask id="mask0_2467_37783" style="mask-type:alpha" maskUnits="userSpaceOnUse" x="4" y="4" width="18" height="18">
<path fill-rule="evenodd" clip-rule="evenodd" d="M17.6632 9.36054L9.35695 17.6668L9.35254 17.6715C9.22951 17.8034 9.04201 17.8751 8.84931 17.8751C8.66472 17.8751 8.48309 17.8082 8.33711 17.6623C8.0582 17.3833 8.0582 16.9168 8.33711 16.6378L16.6388 8.33613C16.9177 8.05723 17.3843 8.05723 17.6632 8.33613C17.9421 8.61504 17.9421 9.08163 17.6632 9.36054Z" fill="#292D32"/>
<path fill-rule="evenodd" clip-rule="evenodd" d="M17.151 17.8751C16.9664 17.8751 16.7848 17.8082 16.6388 17.6623L8.33711 9.36054C8.0582 9.08163 8.0582 8.61504 8.33711 8.33613C8.61602 8.05723 9.08261 8.05723 9.36152 8.33613L17.6632 16.6378C17.9421 16.9168 17.9421 17.3833 17.6632 17.6623C17.5173 17.8082 17.3356 17.8751 17.151 17.8751Z" fill="#292D32"/>
</mask>
<g mask="url(#mask0_2467_37783)">
<rect x="4" y="4" width="18" height="18" fill="#828292"/>
</g>
</svg>
