<svg width="18" height="18" viewBox="0 0 18 18" fill="none" xmlns="http://www.w3.org/2000/svg">
<path d="M6.6825 15.5025C6.54 15.5025 6.3975 15.45 6.285 15.3375C6.0675 15.12 6.0675 14.76 6.285 14.5425L11.175 9.65251C11.535 9.29251 11.535 8.70751 11.175 8.34751L6.285 3.45751C6.0675 3.24001 6.0675 2.88001 6.285 2.66251C6.5025 2.44501 6.8625 2.44501 7.08 2.66251L11.97 7.55251C12.3525 7.93501 12.57 8.45252 12.57 9.00002C12.57 9.54752 12.36 10.065 11.97 10.4475L7.08 15.3375C6.9675 15.4425 6.825 15.5025 6.6825 15.5025Z" fill="#AEAEB7"/>
<path fill-rule="evenodd" clip-rule="evenodd" d="M7.28469 15.5568C7.12286 15.7079 6.90909 15.8025 6.68249 15.8025C6.46472 15.8025 6.24459 15.7214 6.07286 15.5496C5.7382 15.215 5.7382 14.665 6.07286 14.3304L10.9629 9.44036C11.2057 9.19752 11.2057 8.80247 10.9629 8.55963L6.07286 3.66963C5.7382 3.33497 5.7382 2.78502 6.07286 2.45036C6.40752 2.11571 6.95747 2.11571 7.29213 2.45036L12.1821 7.34036C12.6204 7.77865 12.87 8.37226 12.87 9C12.87 9.62468 12.63 10.2198 12.1812 10.6606C12.1808 10.6609 12.1804 10.6613 12.1801 10.6617L7.28469 15.5568ZM11.97 10.4475C12.36 10.065 12.57 9.5475 12.57 9C12.57 8.4525 12.3525 7.935 11.97 7.5525L7.07999 2.6625C6.86249 2.445 6.50249 2.445 6.28499 2.6625C6.06749 2.88 6.06749 3.24 6.28499 3.4575L11.175 8.3475C11.535 8.7075 11.535 9.2925 11.175 9.6525L6.28499 14.5425C6.06749 14.76 6.06749 15.12 6.28499 15.3375C6.39749 15.45 6.53999 15.5025 6.68249 15.5025C6.82499 15.5025 6.96749 15.4425 7.07999 15.3375L11.97 10.4475Z" fill="#AEAEB7"/>
</svg>
