<svg width="21" height="21" viewBox="0 0 21 21" fill="none" xmlns="http://www.w3.org/2000/svg">
<path d="M4.5 17H11.5C11.75 17 12 16.7812 12 16.5V14.5H13.5V16.5C13.5 17.625 12.5938 18.5 11.5 18.5H4.5C3.375 18.5 2.5 17.625 2.5 16.5V9.5C2.5 8.40625 3.375 7.5 4.5 7.5H6.5V9H4.5C4.21875 9 4 9.25 4 9.5V16.5C4 16.7812 4.21875 17 4.5 17ZM9.5 12H16.5C16.75 12 17 11.7812 17 11.5V4.5C17 4.25 16.75 4 16.5 4H9.5C9.21875 4 9 4.25 9 4.5V11.5C9 11.7812 9.21875 12 9.5 12ZM7.5 11.5V4.5C7.5 3.40625 8.375 2.5 9.5 2.5H16.5C17.5938 2.5 18.5 3.40625 18.5 4.5V11.5C18.5 12.625 17.5938 13.5 16.5 13.5H9.5C8.375 13.5 7.5 12.625 7.5 11.5Z" fill="#8580FF"/>
</svg>
