<svg width="16" height="16" viewBox="0 0 16 16" fill="none" xmlns="http://www.w3.org/2000/svg">
<path fill-rule="evenodd" clip-rule="evenodd" d="M11.5469 3.48971C11.8096 3.26257 12.2118 3.28558 12.4453 3.54111L15.8393 7.25539C16.0536 7.48994 16.0536 7.84339 15.8393 8.07794L12.4453 11.7922C12.2118 12.0477 11.8096 12.0708 11.5469 11.8436C11.2842 11.6165 11.2606 11.2252 11.4941 10.9697L14.5122 7.66667L11.4941 4.36366C11.2606 4.10813 11.2842 3.71684 11.5469 3.48971Z" fill="#6B6B7A"/>
<path fill-rule="evenodd" clip-rule="evenodd" d="M4.45307 3.48971C4.19039 3.26257 3.78817 3.28558 3.55467 3.54111L0.160739 7.25539C-0.0535802 7.48994 -0.0535802 7.84339 0.160739 8.07794L3.55467 11.7922C3.78817 12.0477 4.19039 12.0708 4.45307 11.8436C4.71575 11.6165 4.73941 11.2252 4.50592 10.9697L1.48779 7.66667L4.50592 4.36366C4.73941 4.10813 4.71575 3.71684 4.45307 3.48971Z" fill="#6B6B7A"/>
<path fill-rule="evenodd" clip-rule="evenodd" d="M9.67596 4.04528C9.95123 4.16276 10.0752 4.4723 9.95286 4.73665L7.04396 11.0221C6.92162 11.2865 6.5993 11.4055 6.32404 11.2881C6.04878 11.1706 5.92481 10.861 6.04714 10.5967L8.95604 4.31119C9.07838 4.04684 9.4007 3.92779 9.67596 4.04528Z" fill="#6B6B7A"/>
</svg>
