<svg width="26" height="26" viewBox="0 0 26 26" fill="none" xmlns="http://www.w3.org/2000/svg">
<path d="M0 13C0 5.8203 5.8203 0 13 0V0C20.1797 0 26 5.8203 26 13V13C26 20.1797 20.1797 26 13 26V26C5.8203 26 0 20.1797 0 13V13Z" fill="#ECECEE"/>
<path fill-rule="evenodd" clip-rule="evenodd" d="M17.6631 9.36044L9.35678 17.6667L9.35237 17.6714C9.22934 17.8033 9.04184 17.875 8.84914 17.875C8.66455 17.875 8.48292 17.8081 8.33694 17.6622C8.05803 17.3832 8.05803 16.9167 8.33694 16.6377L16.6387 8.33603C16.9176 8.05713 17.3842 8.05713 17.6631 8.33603C17.942 8.61494 17.942 9.08153 17.6631 9.36044Z" fill="#6B6B7A"/>
<path fill-rule="evenodd" clip-rule="evenodd" d="M17.1509 17.875C16.9663 17.875 16.7846 17.8081 16.6387 17.6622L8.33694 9.36044C8.05803 9.08153 8.05803 8.61494 8.33694 8.33603C8.61585 8.05713 9.08244 8.05713 9.36135 8.33603L17.6631 16.6377C17.942 16.9167 17.942 17.3832 17.6631 17.6622C17.5171 17.8081 17.3354 17.875 17.1509 17.875Z" fill="#6B6B7A"/>
</svg>
