<svg width="67" height="67" viewBox="0 0 67 67" fill="none" xmlns="http://www.w3.org/2000/svg">
<rect x="5.5" y="5.5" width="56" height="56" rx="28" fill="#FFE5D0"/>
<path d="M33.5 23C34.1562 23 34.7656 23.375 35.0938 23.9375L45.2188 41.1875C45.5469 41.7969 45.5469 42.5 45.2188 43.0625C44.8906 43.6719 44.2812 44 43.625 44H23.375C22.6719 44 22.0625 43.6719 21.7344 43.0625C21.4062 42.5 21.4062 41.7969 21.7344 41.1875L31.8594 23.9375C32.1875 23.375 32.7969 23 33.5 23ZM33.5 29C32.8438 29 32.375 29.5156 32.375 30.125V35.375C32.375 36.0312 32.8438 36.5 33.5 36.5C34.1094 36.5 34.625 36.0312 34.625 35.375V30.125C34.625 29.5156 34.1094 29 33.5 29ZM35 39.5C35 38.7031 34.2969 38 33.5 38C32.6562 38 32 38.7031 32 39.5C32 40.3438 32.6562 41 33.5 41C34.2969 41 35 40.3438 35 39.5Z" fill="#FC9842"/>
<rect x="5.5" y="5.5" width="56" height="56" rx="28" stroke="#FFF4EB" stroke-width="10"/>
</svg>
