<svg width="67" height="66" viewBox="0 0 67 66" fill="none" xmlns="http://www.w3.org/2000/svg">
<rect x="5.5" y="5" width="56" height="56" rx="28" fill="#DDDBFD"/>
<rect x="5.5" y="5" width="56" height="56" rx="28" stroke="#EDECFE" stroke-width="10"/>
<mask id="mask0_2512_26001" style="mask-type:alpha" maskUnits="userSpaceOnUse" x="19" y="19" width="29" height="28">
<path d="M40.5 25.9997C39.7884 25.9997 39.135 25.5913 38.8084 24.9613L37.9684 23.2697C37.4317 22.208 36.0317 21.333 34.8417 21.333H32.17C30.9684 21.333 29.5684 22.208 29.0317 23.2697L28.1917 24.9613C27.865 25.5913 27.2117 25.9997 26.5 25.9997C23.9684 25.9997 21.9617 28.1347 22.125 30.6547L22.7317 40.2913C22.8717 42.6947 24.1667 44.6663 27.3867 44.6663H39.6134C42.8334 44.6663 44.1167 42.6947 44.2684 40.2913L44.875 30.6547C45.0384 28.1347 43.0317 25.9997 40.5 25.9997ZM31.75 27.458H35.25C35.7284 27.458 36.125 27.8547 36.125 28.333C36.125 28.8113 35.7284 29.208 35.25 29.208H31.75C31.2717 29.208 30.875 28.8113 30.875 28.333C30.875 27.8547 31.2717 27.458 31.75 27.458ZM33.5 40.1397C31.33 40.1397 29.5567 38.378 29.5567 36.1963C29.5567 34.0147 31.3184 32.253 33.5 32.253C35.6817 32.253 37.4434 34.0147 37.4434 36.1963C37.4434 38.378 35.67 40.1397 33.5 40.1397Z" fill="#292D32"/>
</mask>
<g mask="url(#mask0_2512_26001)">
<rect x="19.5" y="19" width="28" height="28" fill="#8480F7"/>
</g>
</svg>
