<svg width="16" height="16" viewBox="0 0 16 16" fill="none" xmlns="http://www.w3.org/2000/svg">
<path d="M2 14.5H9C9.25 14.5 9.5 14.2812 9.5 14V12H11V14C11 15.125 10.0938 16 9 16H2C0.875 16 0 15.125 0 14V7C0 5.90625 0.875 5 2 5H4V6.5H2C1.71875 6.5 1.5 6.75 1.5 7V14C1.5 14.2812 1.71875 14.5 2 14.5ZM7 9.5H14C14.25 9.5 14.5 9.28125 14.5 9V2C14.5 1.75 14.25 1.5 14 1.5H7C6.71875 1.5 6.5 1.75 6.5 2V9C6.5 9.28125 6.71875 9.5 7 9.5ZM5 9V2C5 0.90625 5.875 0 7 0H14C15.0938 0 16 0.90625 16 2V9C16 10.125 15.0938 11 14 11H7C5.875 11 5 10.125 5 9Z" fill="#474752"/>
</svg>
