<svg width="19" height="19" viewBox="0 0 19 19" fill="none" xmlns="http://www.w3.org/2000/svg">
<mask id="mask0_2129_41744" style="mask-type:alpha" maskUnits="userSpaceOnUse" x="0" y="0" width="19" height="19">
<path d="M9.5 2C5.3675 2 2 5.3675 2 9.5C2 13.6325 5.3675 17 9.5 17C13.6325 17 17 13.6325 17 9.5C17 5.3675 13.6325 2 9.5 2ZM13.085 7.775L8.8325 12.0275C8.7275 12.1325 8.585 12.1925 8.435 12.1925C8.285 12.1925 8.1425 12.1325 8.0375 12.0275L5.915 9.905C5.6975 9.6875 5.6975 9.3275 5.915 9.11C6.1325 8.8925 6.4925 8.8925 6.71 9.11L8.435 10.835L12.29 6.98C12.5075 6.7625 12.8675 6.7625 13.085 6.98C13.3025 7.1975 13.3025 7.55 13.085 7.775Z" fill="#292D32"/>
</mask>
<g mask="url(#mask0_2129_41744)">
<rect x="0.5" y="0.5" width="18" height="18" fill="#1DC975"/>
</g>
</svg>
