<svg width="88" height="32" viewBox="0 0 88 32" fill="none" xmlns="http://www.w3.org/2000/svg">
<path d="M21.6187 8.95737C21.6185 8.95755 21.6185 8.95779 21.6186 8.958L24.4798 15.0198C24.6717 15.4265 24.6951 15.8932 24.5446 16.3174L22.537 21.9778C22.3865 22.4022 22.0744 22.7491 21.6694 22.9424L15.6358 25.8211L12.9126 27.1215L10.9225 28.0714L8.99606 28.9897L3.22705 31.741C1.86676 32.3897 0.405913 31.0625 0.911755 29.6375L3.05761 23.5923L3.77261 21.5755L4.51352 19.4889L5.52547 16.6353L7.768 10.3126C7.91855 9.8881 8.23078 9.54106 8.63593 9.34786L14.0371 6.77227C14.442 6.57923 14.9064 6.55558 15.3284 6.70652L21.6185 8.95645C21.6188 8.95659 21.619 8.95707 21.6187 8.95737ZM9.65305 11.149C9.65304 11.1489 9.65284 11.1488 9.65279 11.149L6.44894 20.1821L5.70629 22.2688L4.99294 24.2838L4.51433 25.6324C4.00856 27.0575 5.46956 28.3846 6.82981 27.7358L8.11494 27.1227L12.0315 25.2554L20.0186 21.4438C20.4236 21.2505 20.7357 20.9035 20.8862 20.4791L22.322 16.4296C22.4724 16.0055 22.4491 15.5388 22.2571 15.1322L20.4262 11.253C20.2341 10.846 19.889 10.5326 19.4667 10.3816L15.4379 8.94095C15.016 8.79009 14.5517 8.81374 14.147 9.0067L9.65324 11.1491C9.65316 11.1492 9.65306 11.1491 9.65305 11.149Z" fill="#8480F7"/>
<path d="M8.81978 23.0427C8.81993 23.0426 8.81997 23.0423 8.81987 23.0421L5.95869 16.9804C5.76673 16.5737 5.74341 16.1069 5.89385 15.6828L7.9015 10.0223C8.05201 9.59795 8.3641 9.25098 8.7691 9.05775L14.8027 6.17898L17.5259 4.87858L19.516 3.92871L21.4424 3.01039L27.2114 0.259134C28.5717 -0.389591 30.0326 0.93765 29.5267 2.36267L27.3809 8.40778L26.6659 10.4246L25.925 12.5112L24.913 15.3649L22.6705 21.6876C22.5199 22.112 22.2077 22.4591 21.8025 22.6523L16.4013 25.2279C15.9965 25.4209 15.5321 25.4445 15.1101 25.2936L8.82001 23.0437C8.81963 23.0435 8.81951 23.0431 8.81978 23.0427ZM20.7854 20.8511C20.7854 20.8513 20.7856 20.8513 20.7857 20.8512L23.9895 11.818L24.7322 9.73127L25.4455 7.71629L25.9242 6.36771C26.4299 4.94263 24.9689 3.61548 23.6087 4.26435L22.3235 4.8774L18.407 6.7447L10.4198 10.5564C10.0148 10.7496 9.70278 11.0966 9.55231 11.521L8.11646 15.5705C7.96608 15.9946 7.98942 16.4613 8.18135 16.8679L10.0123 20.7472C10.2044 21.1541 10.5495 21.4675 10.9718 21.6185L15.0006 23.0592C15.4224 23.21 15.8868 23.1864 16.2915 22.9934L20.7852 20.851C20.7853 20.851 20.7854 20.851 20.7854 20.8511Z" fill="#8480F7"/>
<path d="M30.1544 29.3179C30.4011 29.8752 29.8557 30.4537 29.29 30.2347L22.9544 27.7822L21.3512 27.1615L21.2264 27.1132C20.6607 26.8943 20.6394 26.0966 21.1926 25.8489L21.9877 25.4929L23.9456 24.6163C24.1102 24.5426 24.2389 24.4062 24.3034 24.2369L25.0722 22.2222L25.3829 21.4061C25.5996 20.8369 26.3921 20.8164 26.6389 21.3737L26.6933 21.4963L27.3906 23.0746L30.1544 29.3179Z" fill="#454381"/>
<path d="M0.0963891 3.58981C-0.180412 3.04702 0.332595 2.4392 0.909414 2.62652L7.36942 4.7244L9.00408 5.25536L9.13138 5.29668C9.70818 5.4839 9.77306 6.27925 9.2342 6.55725L8.45984 6.95674L6.55281 7.94043C6.39253 8.02311 6.27148 8.16648 6.21626 8.33904L5.55885 10.3933L5.29325 11.2254C5.108 11.8058 4.31775 11.8701 4.04086 11.3273L3.97992 11.2079L3.19735 9.67058L0.0963891 3.58981Z" fill="#454381"/>
<path d="M83.7455 21.4805C82.9578 21.4805 82.3095 21.3769 81.8006 21.1698C81.2916 20.9505 80.8857 20.6825 80.5827 20.3657C80.2919 20.0368 80.0738 19.7139 79.9284 19.3972C79.783 19.0804 79.686 18.8185 79.6375 18.6113C79.6012 18.3921 79.583 18.2824 79.583 18.2824H81.8733C81.8733 18.2824 81.8915 18.3494 81.9278 18.4834C81.9763 18.6174 82.0611 18.7758 82.1823 18.9586C82.3156 19.1291 82.5155 19.2814 82.7821 19.4154C83.0487 19.5494 83.4001 19.6164 83.8364 19.6164C84.3575 19.6164 84.7331 19.5068 84.9634 19.2875C85.1936 19.056 85.3087 18.8002 85.3087 18.52C85.3087 18.2519 85.2057 18.0387 84.9997 17.8804C84.8058 17.7098 84.515 17.5819 84.1272 17.4966L82.8003 17.2225C82.2671 17.1128 81.7703 16.9545 81.3098 16.7473C80.8493 16.528 80.4737 16.2357 80.1828 15.8702C79.892 15.4925 79.7466 15.0113 79.7466 14.4265C79.7466 13.5615 80.0738 12.8488 80.7281 12.2883C81.3825 11.7157 82.2732 11.4294 83.4001 11.4294C84.1151 11.4294 84.7028 11.5269 85.1633 11.7218C85.6359 11.9168 86.0115 12.1604 86.2903 12.4528C86.5811 12.7452 86.7932 13.0376 86.9265 13.33C87.0719 13.6224 87.1628 13.8721 87.1991 14.0793C87.2476 14.2742 87.2718 14.3716 87.2718 14.3716H85.0542C85.0542 14.3716 85.0361 14.3168 84.9997 14.2072C84.9634 14.0853 84.8846 13.9513 84.7634 13.8051C84.6543 13.6589 84.4847 13.531 84.2545 13.4214C84.0363 13.2995 83.7394 13.2386 83.3638 13.2386C82.8548 13.2386 82.4913 13.3483 82.2732 13.5676C82.0672 13.7869 81.9642 14.0183 81.9642 14.262C81.9642 14.53 82.0793 14.7371 82.3095 14.8833C82.5398 15.0295 82.8367 15.1392 83.2002 15.2123L84.4544 15.4864C85.3511 15.6691 86.0843 15.9859 86.6538 16.4367C87.2355 16.8874 87.5263 17.5392 87.5263 18.3921C87.5263 18.9647 87.3748 19.4885 87.0719 19.9637C86.781 20.4266 86.3509 20.7982 85.7813 21.0784C85.2239 21.3464 84.5453 21.4805 83.7455 21.4805Z" fill="#474752"/>
<path d="M76.127 10.1136C75.7029 10.1136 75.3515 9.97354 75.0727 9.69333C74.8061 9.41312 74.6729 9.07809 74.6729 8.68823C74.6729 8.29838 74.8061 7.96334 75.0727 7.68313C75.3515 7.40292 75.7029 7.26282 76.127 7.26282C76.5511 7.26282 76.9025 7.40292 77.1813 7.68313C77.46 7.96334 77.5993 8.29838 77.5993 8.68823C77.5993 9.07809 77.46 9.41312 77.1813 9.69333C76.9025 9.97354 76.5511 10.1136 76.127 10.1136ZM74.9273 21.2977V11.6122H77.3448V21.2977H74.9273Z" fill="#474752"/>
<path d="M63.5519 21.2977L66.551 16.4732L63.5337 11.6122H66.0784L68.1688 15.0113L70.2955 11.6122H72.8221L69.732 16.4732L72.8221 21.2977H70.2773L68.1688 17.8986L66.0784 21.2977H63.5519Z" fill="#474752"/>
<path d="M53.8306 24.8612C53.5156 24.8612 53.255 24.8491 53.049 24.8247C52.8552 24.8003 52.7582 24.7881 52.7582 24.7881V22.7962C52.7582 22.7962 52.8491 22.8023 53.0309 22.8145C53.2126 22.8389 53.4247 22.851 53.6671 22.851C54.2851 22.851 54.794 22.7475 55.1939 22.5404C55.6059 22.3454 55.9513 21.9739 56.23 21.4256L52.6128 11.6122H55.0667L57.4842 18.52L59.8653 11.6122H62.3192L58.7929 21.0601C58.3082 22.3515 57.6841 23.3079 56.9207 23.9292C56.1573 24.5506 55.1273 24.8612 53.8306 24.8612Z" fill="#474752"/>
<path d="M41.2344 21.2977V7.77454H46.542C47.6205 7.77454 48.5172 7.99383 49.2322 8.43242C49.9471 8.85883 50.4803 9.41925 50.8317 10.1137C51.1953 10.7959 51.3771 11.5086 51.3771 12.2518C51.3771 12.995 51.1953 13.7138 50.8317 14.4082C50.4803 15.0905 49.9471 15.6509 49.2322 16.0895C48.5172 16.5281 47.6205 16.7473 46.542 16.7473H43.7064V21.2977H41.2344ZM46.5238 9.93093H43.7064V14.5909H46.5238C47.057 14.5909 47.4993 14.4813 47.8507 14.262C48.2022 14.0305 48.4627 13.7381 48.6323 13.3848C48.8141 13.0193 48.905 12.6478 48.905 12.2701C48.905 11.8802 48.8141 11.5086 48.6323 11.1553C48.4627 10.802 48.2022 10.5096 47.8507 10.2782C47.4993 10.0467 47.057 9.93093 46.5238 9.93093Z" fill="#474752"/>
</svg>
