<svg width="17" height="16" viewBox="0 0 17 16" fill="none" xmlns="http://www.w3.org/2000/svg">
<mask id="mask0_2550_24814" style="mask-type:alpha" maskUnits="userSpaceOnUse" x="0" y="0" width="17" height="16">
<path d="M7.90004 15.1666H5.10004C2.49337 15.1666 1.33337 14.0066 1.33337 11.4V8.59998C1.33337 5.99331 2.49337 4.83331 5.10004 4.83331H7.90004C10.5067 4.83331 11.6667 5.99331 11.6667 8.59998V11.4C11.6667 14.0066 10.5067 15.1666 7.90004 15.1666ZM5.10004 5.83331C3.03337 5.83331 2.33337 6.53331 2.33337 8.59998V11.4C2.33337 13.4666 3.03337 14.1666 5.10004 14.1666H7.90004C9.96671 14.1666 10.6667 13.4666 10.6667 11.4V8.59998C10.6667 6.53331 9.96671 5.83331 7.90004 5.83331H5.10004Z" fill="#292D32"/>
<path d="M11.9 11.1666H11.1667C10.8934 11.1666 10.6667 10.94 10.6667 10.6666V8.59998C10.6667 6.53331 9.96671 5.83331 7.90004 5.83331H5.83337C5.56004 5.83331 5.33337 5.60665 5.33337 5.33331V4.59998C5.33337 1.99331 6.49337 0.833313 9.10004 0.833313H11.9C14.5067 0.833313 15.6667 1.99331 15.6667 4.59998V7.39998C15.6667 10.0066 14.5067 11.1666 11.9 11.1666ZM11.6667 10.1666H11.9C13.9667 10.1666 14.6667 9.46665 14.6667 7.39998V4.59998C14.6667 2.53331 13.9667 1.83331 11.9 1.83331H9.10004C7.03337 1.83331 6.33337 2.53331 6.33337 4.59998V4.83331H7.90004C10.5067 4.83331 11.6667 5.99331 11.6667 8.59998V10.1666Z" fill="#292D32"/>
</mask>
<g mask="url(#mask0_2550_24814)">
<rect x="0.5" width="16" height="16" fill="#8480F7"/>
</g>
</svg>
