<svg width="24" height="24" viewBox="0 0 24 24" fill="none" xmlns="http://www.w3.org/2000/svg">
<path d="M16.6811 7.13826C16.681 7.13838 16.681 7.13855 16.681 7.13869L18.6158 11.2888C18.7457 11.5673 18.7612 11.8869 18.6592 12.1775L17.2971 16.055C17.195 16.3457 16.9835 16.5835 16.7091 16.716L12.622 18.6904L10.7773 19.5823L9.42921 20.2337L8.12427 20.8636L4.21637 22.7505C3.29492 23.1954 2.30625 22.2871 2.64943 21.311L4.10527 17.1699L4.59036 15.7883L5.09303 14.3589L5.77958 12.4041L7.30102 8.07286C7.40316 7.78209 7.61475 7.54426 7.8892 7.41176L11.548 5.64531C11.8222 5.51292 12.1367 5.4965 12.4224 5.59967L16.6809 7.13763C16.6812 7.13772 16.6813 7.13805 16.6811 7.13826V7.13826ZM8.57717 8.64482C8.57716 8.64472 8.57702 8.6447 8.57699 8.64479L6.40336 14.8328L5.89951 16.2622L5.41554 17.6426L5.09083 18.5664C4.74769 19.5426 5.73646 20.4508 6.65789 20.0058L7.52843 19.5853L10.1815 18.3047L15.592 15.6905C15.8663 15.5579 16.0778 15.3201 16.1799 15.0294L17.154 12.2554C17.256 11.9648 17.2404 11.6453 17.1106 11.3669L15.8725 8.71098C15.7426 8.43238 15.509 8.21787 15.2231 8.11465L12.4956 7.1299C12.2099 7.02678 11.8955 7.04319 11.6213 7.17553L8.5773 8.6449C8.57724 8.64493 8.57717 8.64488 8.57717 8.64482V8.64482Z" fill="#828292"/>
<path d="M8.00447 16.7905C8.00457 16.7903 8.0046 16.7902 8.00453 16.79L6.0697 12.6399C5.93989 12.3615 5.92431 12.0418 6.02638 11.7513L7.38846 7.87367C7.49057 7.58298 7.70207 7.34521 7.97641 7.21268L12.0635 5.2383L13.9082 4.34642L15.2563 3.69497L16.5613 3.06514L20.4692 1.17821C21.3906 0.733288 22.3793 1.64158 22.0361 2.61776L20.5803 6.75883L20.0952 8.14042L19.5925 9.56982L18.906 11.5246L17.3845 15.8559C17.2824 16.1466 17.0708 16.3844 16.7963 16.517L13.1376 18.2834C12.8634 18.4158 12.5489 18.4322 12.2632 18.329L8.00462 16.7911C8.00437 16.791 8.00428 16.7907 8.00447 16.7905V16.7905ZM16.1084 15.2839C16.1084 15.284 16.1085 15.284 16.1086 15.2839L18.2822 9.09595L18.786 7.66648L19.27 6.28616L19.5947 5.36235C19.9379 4.38613 18.9491 3.47789 18.0277 3.92292L17.1571 4.34337L14.504 5.62405L9.09359 8.23825C8.81925 8.3708 8.60777 8.6086 8.50568 8.8993L7.53154 11.6733C7.42952 11.9639 7.44511 12.2835 7.5749 12.5618L8.81305 15.2177C8.94293 15.4963 9.17653 15.7108 9.46242 15.8141L12.19 16.7988C12.4756 16.9019 12.79 16.8855 13.0642 16.7532L16.1082 15.2838C16.1083 15.2838 16.1084 15.2838 16.1084 15.2839V15.2839Z" fill="#828292"/>
<path d="M22.45 21.1001C22.6173 21.4828 22.2492 21.8792 21.8667 21.7283L17.5824 20.0388L16.4983 19.6112L16.4139 19.5779C16.0314 19.4271 16.0162 18.8796 16.3899 18.7102L16.9268 18.4667L18.2492 17.8672C18.3604 17.8168 18.4472 17.7233 18.4907 17.6072L19.0083 16.2254L19.2175 15.6656C19.3634 15.2752 19.899 15.262 20.0663 15.6447L20.1032 15.7289L20.576 16.8127L22.45 21.1001Z" fill="#828292"/>
<path d="M2.10941 3.45233C1.92178 3.0796 2.26795 2.66307 2.65803 2.79219L7.02666 4.2383L8.13211 4.6043L8.2182 4.63279C8.60826 4.76184 8.65289 5.30764 8.28893 5.49784L7.7659 5.77116L6.47782 6.44417C6.36956 6.50074 6.28788 6.59898 6.25072 6.71734L5.80836 8.12619L5.62964 8.69688C5.50499 9.09491 4.9709 9.13823 4.7832 8.76553L4.7419 8.68351L4.21142 7.62788L2.10941 3.45233Z" fill="#828292"/>
</svg>
