<svg width="22" height="22" viewBox="0 0 22 22" fill="none" xmlns="http://www.w3.org/2000/svg">
<path d="M13.3375 20.5517C13.035 20.5517 12.7508 20.35 12.6683 20.0383C12.5675 19.6717 12.7875 19.2958 13.1633 19.195C16.885 18.2142 19.4791 14.8408 19.4791 10.9908C19.4791 6.31584 15.675 2.51168 11 2.51168C7.03081 2.51168 4.42748 4.83084 3.20831 6.23334H5.90331C6.27915 6.23334 6.59081 6.54501 6.59081 6.92084C6.59081 7.29668 6.28831 7.61751 5.90331 7.61751H1.84248C1.79665 7.61751 1.71415 7.60834 1.64998 7.59001C1.56748 7.56251 1.49415 7.52584 1.42998 7.48001C1.34748 7.42501 1.28331 7.35168 1.23748 7.26918C1.19165 7.18668 1.15498 7.08584 1.14581 6.98501C1.14581 6.95751 1.14581 6.93918 1.14581 6.91168V2.75001C1.14581 2.37418 1.45748 2.06251 1.83331 2.06251C2.20915 2.06251 2.52081 2.37418 2.52081 2.75001V4.94084C4.01498 3.33668 6.82915 1.14584 11 1.14584C16.4358 1.14584 20.8541 5.56418 20.8541 11C20.8541 15.4733 17.8383 19.3967 13.5116 20.5333C13.4566 20.5425 13.3925 20.5517 13.3375 20.5517Z" fill="#828292"/>
<path d="M10.3491 20.8358C10.3308 20.8358 10.3125 20.8267 10.3033 20.8267C9.31331 20.7625 8.34165 20.5425 7.42498 20.185C7.15915 20.0842 6.97581 19.8183 6.98498 19.5342C6.98498 19.4517 7.00331 19.3692 7.03081 19.2958C7.16831 18.9475 7.58081 18.7733 7.91998 18.9017C8.71748 19.2133 9.55165 19.3967 10.395 19.4608C10.7525 19.4792 11.0366 19.7908 11.0366 20.1575L11.0275 20.1942C11.0091 20.5517 10.7066 20.8358 10.3491 20.8358ZM5.29831 18.865C5.14248 18.865 4.99581 18.81 4.86748 18.7183C4.09748 18.095 3.41915 17.3708 2.86915 16.5642C2.78665 16.445 2.74081 16.3167 2.74081 16.1792C2.74081 15.95 2.85081 15.7392 3.04331 15.6108C3.34581 15.4 3.78581 15.4825 3.99665 15.7758C3.99665 15.785 3.99665 15.785 3.99665 15.785C4.00581 15.7942 4.01498 15.8125 4.02415 15.8217C4.50081 16.5092 5.07831 17.1233 5.72915 17.6367C5.88498 17.765 5.98581 17.9575 5.98581 18.1683C5.98581 18.3242 5.93998 18.48 5.83915 18.6083C5.70165 18.7733 5.50915 18.865 5.29831 18.865ZM2.23665 14.3917C1.93415 14.3917 1.66831 14.1992 1.58581 13.915C1.29248 12.9708 1.14581 11.99 1.14581 11V10.9908C1.15498 10.615 1.45748 10.3125 1.83331 10.3125C2.20915 10.3125 2.52081 10.6242 2.52081 11C2.52081 11.8617 2.64915 12.705 2.89665 13.5025C2.91498 13.5758 2.92415 13.64 2.92415 13.7133C2.92415 14.0067 2.73165 14.2725 2.43831 14.3642C2.37415 14.3825 2.30998 14.3917 2.23665 14.3917Z" fill="#828292"/>
</svg>
