<svg width="16" height="17" viewBox="0 0 16 17" fill="none" xmlns="http://www.w3.org/2000/svg">
<mask id="mask0_2194_31996" style="mask-type:alpha" maskUnits="userSpaceOnUse" x="0" y="0" width="16" height="17">
<path d="M7.40016 15.6668H4.60016C1.9935 15.6668 0.833496 14.5068 0.833496 11.9002V9.10016C0.833496 6.4935 1.9935 5.3335 4.60016 5.3335H7.40016C10.0068 5.3335 11.1668 6.4935 11.1668 9.10016V11.9002C11.1668 14.5068 10.0068 15.6668 7.40016 15.6668ZM4.60016 6.3335C2.5335 6.3335 1.8335 7.0335 1.8335 9.10016V11.9002C1.8335 13.9668 2.5335 14.6668 4.60016 14.6668H7.40016C9.46683 14.6668 10.1668 13.9668 10.1668 11.9002V9.10016C10.1668 7.0335 9.46683 6.3335 7.40016 6.3335H4.60016Z" fill="#292D32"/>
<path d="M11.4002 11.6668H10.6668C10.3935 11.6668 10.1668 11.4402 10.1668 11.1668V9.10016C10.1668 7.0335 9.46683 6.3335 7.40016 6.3335H5.3335C5.06016 6.3335 4.8335 6.10683 4.8335 5.8335V5.10016C4.8335 2.4935 5.9935 1.3335 8.60016 1.3335H11.4002C14.0068 1.3335 15.1668 2.4935 15.1668 5.10016V7.90016C15.1668 10.5068 14.0068 11.6668 11.4002 11.6668ZM11.1668 10.6668H11.4002C13.4668 10.6668 14.1668 9.96683 14.1668 7.90016V5.10016C14.1668 3.0335 13.4668 2.3335 11.4002 2.3335H8.60016C6.5335 2.3335 5.8335 3.0335 5.8335 5.10016V5.3335H7.40016C10.0068 5.3335 11.1668 6.4935 11.1668 9.10016V10.6668Z" fill="#292D32"/>
</mask>
<g mask="url(#mask0_2194_31996)">
<rect y="0.5" width="16" height="16" fill="#5B5B67"/>
</g>
</svg>
