<svg width="56" height="56" viewBox="0 0 56 56" fill="none" xmlns="http://www.w3.org/2000/svg">
<rect x="4" y="4" width="48" height="48" rx="24" fill="#DDDBFD"/>
<rect x="4" y="4" width="48" height="48" rx="24" stroke="#EDECFE" stroke-width="8"/>
<path d="M30.55 38.42C30.22 38.42 29.91 38.2 29.82 37.86C29.71 37.46 29.95 37.05 30.36 36.94C34.42 35.87 37.25 32.19 37.25 27.99C37.25 22.89 33.1 18.74 28 18.74C23.67 18.74 20.83 21.27 19.5 22.8H22.44C22.85 22.8 23.19 23.14 23.19 23.55C23.19 23.96 22.86 24.31 22.44 24.31H18.01C17.96 24.31 17.87 24.3 17.8 24.28C17.71 24.25 17.63 24.21 17.56 24.16C17.47 24.1 17.4 24.02 17.35 23.93C17.3 23.84 17.26 23.73 17.25 23.62C17.25 23.59 17.25 23.57 17.25 23.54V19C17.25 18.59 17.59 18.25 18 18.25C18.41 18.25 18.75 18.59 18.75 19V21.39C20.38 19.64 23.45 17.25 28 17.25C33.93 17.25 38.75 22.07 38.75 28C38.75 32.88 35.46 37.16 30.74 38.4C30.68 38.41 30.61 38.42 30.55 38.42Z" fill="#8480F7"/>
<path d="M27.29 38.73C27.27 38.73 27.25 38.72 27.24 38.72C26.16 38.65 25.1 38.41 24.1 38.02C23.81 37.91 23.61 37.62 23.62 37.31C23.62 37.22 23.64 37.13 23.67 37.05C23.82 36.67 24.27 36.48 24.64 36.62C25.51 36.96 26.42 37.16 27.34 37.23C27.73 37.25 28.04 37.59 28.04 37.99L28.03 38.03C28.01 38.42 27.68 38.73 27.29 38.73ZM21.78 36.58C21.61 36.58 21.45 36.52 21.31 36.42C20.47 35.74 19.73 34.95 19.13 34.07C19.04 33.94 18.99 33.8 18.99 33.65C18.99 33.4 19.11 33.17 19.32 33.03C19.65 32.8 20.13 32.89 20.36 33.21C20.36 33.22 20.36 33.22 20.36 33.22C20.37 33.23 20.38 33.25 20.39 33.26C20.91 34.01 21.54 34.68 22.25 35.24C22.42 35.38 22.53 35.59 22.53 35.82C22.53 35.99 22.48 36.16 22.37 36.3C22.22 36.48 22.01 36.58 21.78 36.58ZM18.44 31.7C18.11 31.7 17.82 31.49 17.73 31.18C17.41 30.15 17.25 29.08 17.25 28V27.99C17.26 27.58 17.59 27.25 18 27.25C18.41 27.25 18.75 27.59 18.75 28C18.75 28.94 18.89 29.86 19.16 30.73C19.18 30.81 19.19 30.88 19.19 30.96C19.19 31.28 18.98 31.57 18.66 31.67C18.59 31.69 18.52 31.7 18.44 31.7Z" fill="#8480F7"/>
</svg>
