<svg width="24" height="24" viewBox="0 0 24 24" fill="none" xmlns="http://www.w3.org/2000/svg">
<path d="M16.9332 7.13835C16.9331 7.13847 16.9331 7.13864 16.9331 7.13878L18.9051 11.2945C19.0374 11.5733 19.0535 11.8932 18.95 12.1839L17.5683 16.0635C17.4647 16.3544 17.2498 16.5922 16.9709 16.7245L12.8156 18.6966L10.9401 19.5874L9.56952 20.2381L8.24282 20.8672L4.26974 22.7519C3.33292 23.1964 2.32644 22.2863 2.67457 21.3096L4.15142 17.1663L4.64351 15.784L5.15342 14.3539L5.84988 12.398L7.39326 8.06452C7.49688 7.7736 7.71187 7.53577 7.9909 7.40342L11.7107 5.63904C11.9895 5.5068 12.3094 5.49068 12.6 5.59422L16.933 7.13772C16.9333 7.13781 16.9334 7.13814 16.9332 7.13835V7.13835ZM8.69183 8.63824C8.69182 8.63814 8.69168 8.63812 8.69165 8.63821L6.48666 14.8295L5.97554 16.2597L5.48459 17.6407L5.15519 18.565C4.80711 19.5418 5.81369 20.4518 6.75049 20.0072L7.63555 19.5873L10.3329 18.3081L15.8336 15.697C16.1125 15.5646 16.3274 15.3268 16.4309 15.0359L17.4191 12.2604C17.5226 11.9697 17.5064 11.6498 17.3742 11.3711L16.1123 8.71165C15.9799 8.43268 15.7421 8.21775 15.4512 8.11416L12.6759 7.12586C12.3853 7.02237 12.0655 7.03848 11.7868 7.17067L8.69196 8.63832C8.6919 8.63835 8.69183 8.63831 8.69183 8.63824V8.63824Z" fill="#8480F7"/>
<path d="M8.12344 16.7913C8.12355 16.7912 8.12357 16.791 8.1235 16.7909L6.15156 12.6352C6.01926 12.3564 6.0031 12.0365 6.10664 11.7458L7.48837 7.86615C7.59196 7.57531 7.80685 7.33754 8.08577 7.20516L12.2411 5.23309L14.1165 4.34225L15.4871 3.69155L16.8138 3.06247L20.7869 1.17774C21.7237 0.733335 22.7302 1.6434 22.3821 2.62009L20.9052 6.76335L20.4131 8.14566L19.9032 9.57581L19.2068 11.5317L17.6634 15.8652C17.5598 16.1561 17.3448 16.3939 17.0657 16.5263L13.346 18.2907C13.0672 18.4229 12.7473 18.439 12.4566 18.3355L8.1236 16.792C8.12334 16.7919 8.12325 16.7915 8.12344 16.7913V16.7913ZM16.3648 15.2914C16.3648 15.2915 16.365 15.2916 16.365 15.2915L18.57 9.10024L19.0811 7.67002L19.5721 6.28897L19.9014 5.36467C20.2495 4.38794 19.2429 3.47793 18.3062 3.92244L17.4211 4.3424L14.7238 5.62158L9.22308 8.23273C8.94416 8.36513 8.72928 8.60293 8.62573 8.89378L7.63753 11.6693C7.53403 11.96 7.5502 12.2798 7.68248 12.5586L8.94439 15.218C9.07676 15.497 9.31456 15.7119 9.60545 15.8155L12.3807 16.8038C12.6713 16.9073 12.9911 16.8912 13.2699 16.759L16.3647 15.2914C16.3647 15.2913 16.3648 15.2914 16.3648 15.2914V15.2914Z" fill="#8480F7"/>
<path d="M22.8208 21.0871C22.9907 21.4687 22.6144 21.8651 22.2245 21.7154L17.8579 20.0385L16.753 19.6141L16.667 19.5811C16.2771 19.4314 16.2627 18.8851 16.6442 18.7152L17.1925 18.471L18.5426 17.8699C18.6561 17.8193 18.7449 17.7258 18.7895 17.6099L19.3203 16.2298L19.5348 15.6707C19.6845 15.2807 20.2309 15.2664 20.4007 15.6479L20.4381 15.7319L20.9182 16.8125L22.8208 21.0871Z" fill="#454381"/>
<path d="M2.11131 3.46371C1.92074 3.09207 2.27464 2.67555 2.67218 2.80359L7.1244 4.23762L8.251 4.60057L8.33873 4.62881C8.73626 4.75679 8.78064 5.30151 8.40907 5.49214L7.8751 5.7661L6.56009 6.44067C6.44956 6.49737 6.36606 6.59562 6.32792 6.71383L5.87385 8.12108L5.6904 8.69112C5.56246 9.0887 5.01768 9.1331 4.82705 8.76148L4.78509 8.67969L4.2463 7.62713L2.11131 3.46371Z" fill="#454381"/>
</svg>
