<svg width="22" height="22" viewBox="0 0 22 22" fill="none" xmlns="http://www.w3.org/2000/svg">
<mask id="mask0_2825_25217" style="mask-type:alpha" maskUnits="userSpaceOnUse" x="0" y="0" width="22" height="22">
<path d="M13.3375 20.5517C13.035 20.5517 12.7508 20.35 12.6683 20.0383C12.5675 19.6717 12.7875 19.2958 13.1633 19.195C16.885 18.2142 19.4792 14.8408 19.4792 10.9908C19.4792 6.31584 15.675 2.51168 11 2.51168C7.03083 2.51168 4.4275 4.83084 3.20833 6.23334H5.90333C6.27917 6.23334 6.59083 6.54501 6.59083 6.92084C6.59083 7.29668 6.28833 7.61751 5.90333 7.61751H1.8425C1.79667 7.61751 1.71417 7.60834 1.65 7.59001C1.5675 7.56251 1.49417 7.52584 1.43 7.48001C1.3475 7.42501 1.28333 7.35168 1.2375 7.26918C1.19167 7.18668 1.155 7.08584 1.14583 6.98501C1.14583 6.95751 1.14583 6.93918 1.14583 6.91168V2.75001C1.14583 2.37418 1.4575 2.06251 1.83333 2.06251C2.20917 2.06251 2.52083 2.37418 2.52083 2.75001V4.94084C4.015 3.33668 6.82917 1.14584 11 1.14584C16.4358 1.14584 20.8542 5.56418 20.8542 11C20.8542 15.4733 17.8383 19.3967 13.5117 20.5333C13.4567 20.5425 13.3925 20.5517 13.3375 20.5517Z" fill="#292D32"/>
<path d="M10.3492 20.8358C10.3308 20.8358 10.3125 20.8267 10.3033 20.8267C9.31333 20.7625 8.34167 20.5425 7.425 20.185C7.15917 20.0842 6.97583 19.8183 6.985 19.5342C6.985 19.4517 7.00333 19.3692 7.03083 19.2958C7.16833 18.9475 7.58083 18.7733 7.92 18.9017C8.7175 19.2133 9.55167 19.3967 10.395 19.4608C10.7525 19.4792 11.0367 19.7908 11.0367 20.1575L11.0275 20.1942C11.0092 20.5517 10.7067 20.8358 10.3492 20.8358ZM5.29833 18.865C5.1425 18.865 4.99583 18.81 4.8675 18.7183C4.0975 18.095 3.41917 17.3708 2.86917 16.5642C2.78667 16.445 2.74083 16.3167 2.74083 16.1792C2.74083 15.95 2.85083 15.7392 3.04333 15.6108C3.34583 15.4 3.78583 15.4825 3.99667 15.7758C3.99667 15.785 3.99667 15.785 3.99667 15.785C4.00583 15.7942 4.015 15.8125 4.02417 15.8217C4.50083 16.5092 5.07833 17.1233 5.72917 17.6367C5.885 17.765 5.98583 17.9575 5.98583 18.1683C5.98583 18.3242 5.94 18.48 5.83917 18.6083C5.70167 18.7733 5.50917 18.865 5.29833 18.865ZM2.23667 14.3917C1.93417 14.3917 1.66833 14.1992 1.58583 13.915C1.2925 12.9708 1.14583 11.99 1.14583 11V10.9908C1.155 10.615 1.4575 10.3125 1.83333 10.3125C2.20917 10.3125 2.52083 10.6242 2.52083 11C2.52083 11.8617 2.64917 12.705 2.89667 13.5025C2.915 13.5758 2.92417 13.64 2.92417 13.7133C2.92417 14.0067 2.73167 14.2725 2.43833 14.3642C2.37417 14.3825 2.31 14.3917 2.23667 14.3917Z" fill="#292D32"/>
</mask>
<g mask="url(#mask0_2825_25217)">
<rect width="22" height="22" fill="#828292"/>
</g>
</svg>
