<svg width="30" height="30" viewBox="0 0 30 30" fill="none" xmlns="http://www.w3.org/2000/svg">
<path d="M17.3625 3.60005L11.5 2.67505C6.61249 1.91255 4.34999 3.56255 3.57499 8.45005L2.64999 14.3126C2.14999 17.5126 2.67499 19.5876 4.48749 20.8501C5.43749 21.5251 6.73749 21.9751 8.42499 22.2376L14.2875 23.1626C19.175 23.9251 21.4375 22.2751 22.2125 17.3876L23.125 11.5251C23.275 10.5626 23.3375 9.70005 23.2875 8.93755C23.125 5.81255 21.2875 4.21255 17.3625 3.60005ZM10.3 11.6876C8.83749 11.6876 7.64999 10.5001 7.64999 9.05005C7.64999 7.58755 8.83749 6.40005 10.3 6.40005C11.75 6.40005 12.9375 7.58755 12.9375 9.05005C12.9375 10.5001 11.75 11.6876 10.3 11.6876Z" fill="#8480F7"/>
<path d="M25.6248 16.8375L23.7498 22.4749C22.1873 27.1749 19.6873 28.4249 14.9873 26.8624L9.3498 24.9874C7.5873 24.4 6.3123 23.6749 5.4873 22.7624C6.2748 23.0749 7.1873 23.3125 8.2248 23.475L14.0998 24.4C14.8998 24.525 15.6498 24.5875 16.3498 24.5875C20.4748 24.5875 22.6873 22.3625 23.4498 17.575L24.3623 11.7125C24.4873 10.9875 24.5373 10.35 24.5373 9.76245C26.4373 11.325 26.7123 13.55 25.6248 16.8375Z" fill="#BFBDFB"/>
</svg>
