<svg width="16" height="16" viewBox="0 0 16 16" fill="none" xmlns="http://www.w3.org/2000/svg">
<path d="M12.9067 3.09333L3.88667 12.1133L3.15334 11.5667C2.72 11.24 2.36667 10.5333 2.36667 9.98667V4.59333C2.36667 3.84 2.94 3.01333 3.64 2.74667L7.30667 1.37333C7.68667 1.23333 8.31333 1.23333 8.69333 1.37333L12.36 2.74667C12.5533 2.82 12.74 2.94 12.9067 3.09333Z" fill="#FC9842"/>
<path d="M13.6333 9.98667C13.6333 10.5333 13.28 11.24 12.8467 11.5667L9.18 14.3067C8.52667 14.7867 7.47334 14.7867 6.82 14.3067L5.64667 13.4333C5.32 13.1933 5.28667 12.7133 5.57334 12.4267L12.4933 5.50667C12.9133 5.08667 13.6333 5.38667 13.6333 5.98V9.98667Z" fill="#FC9842"/>
<path d="M14.5133 1.48667C14.3133 1.28667 13.9867 1.28667 13.7867 1.48667L1.48667 13.7933C1.28667 13.9933 1.28667 14.32 1.48667 14.52C1.58667 14.6133 1.71334 14.6667 1.84667 14.6667C1.98 14.6667 2.10667 14.6133 2.20667 14.5133L14.5133 2.20667C14.72 2.00667 14.72 1.68667 14.5133 1.48667Z" fill="#FC9842"/>
</svg>
