<svg width="25" height="24" viewBox="0 0 25 24" fill="none" xmlns="http://www.w3.org/2000/svg">
<mask id="mask0_1992_27442" style="mask-type:alpha" maskUnits="userSpaceOnUse" x="0" y="0" width="25" height="24">
<path d="M12.2501 3.47998C12.1701 3.47998 12.0901 3.48998 12.0101 3.48998L12.8301 2.46998C13.0901 2.14998 13.0401 1.66998 12.7101 1.41998C12.3901 1.15998 11.9201 1.20998 11.6601 1.53998L9.69012 3.99998C9.68012 4.00998 9.68012 4.01998 9.67012 4.03998C9.64012 4.07998 9.62012 4.12998 9.60012 4.16998C9.58012 4.21998 9.56012 4.25998 9.55012 4.29998C9.54012 4.34998 9.54012 4.38998 9.54012 4.43998C9.54012 4.48998 9.54012 4.53998 9.54012 4.58998C9.54012 4.60998 9.54012 4.61998 9.54012 4.63998C9.55012 4.66998 9.57012 4.68998 9.58012 4.72998C9.60012 4.77998 9.61012 4.81998 9.64012 4.85998C9.67012 4.89998 9.70012 4.93998 9.74012 4.97998C9.76012 4.99998 9.78012 5.02998 9.80012 5.04998C9.81012 5.05998 9.83012 5.05998 9.84012 5.06998C9.87012 5.08998 9.90012 5.10998 9.94012 5.11998C9.99012 5.14998 10.0401 5.16998 10.0901 5.17998C10.1301 5.19998 10.1601 5.19998 10.2001 5.19998C10.2301 5.19998 10.2501 5.20998 10.2801 5.20998C10.3001 5.20998 10.3301 5.19998 10.3501 5.18998C10.3801 5.18998 10.4101 5.18998 10.4501 5.18998C11.0901 5.03998 11.6901 4.96998 12.2601 4.96998C16.7501 4.96998 20.4001 8.61998 20.4001 13.11C20.4001 17.6 16.7501 21.25 12.2601 21.25C7.77012 21.25 4.12012 17.6 4.12012 13.11C4.12012 11.37 4.69012 9.68998 5.77012 8.24998C6.02012 7.91998 5.95012 7.44998 5.62012 7.19998C5.29012 6.94998 4.82012 7.01998 4.57012 7.34998C3.29012 9.04998 2.62012 11.04 2.62012 13.11C2.62012 18.42 6.94012 22.75 12.2601 22.75C17.5801 22.75 21.9001 18.43 21.9001 13.11C21.9001 7.78998 17.5601 3.47998 12.2501 3.47998Z" fill="#292D32"/>
<path d="M14.1401 14.778C14.0561 14.922 13.9061 15 13.7501 15C13.6721 15 13.5941 14.982 13.5221 14.934L12.3821 14.188C11.9201 13.912 11.5781 13.306 11.5781 12.772V11C11.5781 10.754 11.7821 10.55 12.0281 10.55C12.2741 10.55 12.4781 10.754 12.4781 11V12.772C12.4781 12.988 12.6581 13.306 12.8441 13.414L13.9841 14.16C14.2001 14.286 14.2721 14.562 14.1401 14.778Z" fill="#292D32"/>
<path fill-rule="evenodd" clip-rule="evenodd" d="M13.0014 13.1586L14.1424 13.9053C14.4957 14.1167 14.6141 14.574 14.3974 14.9318C14.2561 15.1719 14.0049 15.3 13.7498 15.3C13.6244 15.3 13.4862 15.2704 13.3566 15.1844L12.2224 14.4422C11.6725 14.1106 11.2778 13.4092 11.2778 12.772V11C11.2778 10.5883 11.6161 10.25 12.0278 10.25C12.4395 10.25 12.7778 10.5883 12.7778 11V12.772C12.7778 12.809 12.7979 12.8903 12.8519 12.9852C12.906 13.0804 12.9647 13.1373 12.9945 13.1546L13.0014 13.1586ZM12.3818 14.188L13.5218 14.934C13.5938 14.982 13.6718 15 13.7498 15C13.9058 15 14.0558 14.922 14.1398 14.778C14.2718 14.562 14.1998 14.286 13.9838 14.16L12.8438 13.414C12.6578 13.306 12.4778 12.988 12.4778 12.772V11C12.4778 10.754 12.2738 10.55 12.0278 10.55C11.7818 10.55 11.5778 10.754 11.5778 11V12.772C11.5778 13.306 11.9198 13.912 12.3818 14.188Z" fill="#292D32"/>
<path fill-rule="evenodd" clip-rule="evenodd" d="M7.7 13C7.7 15.509 9.74105 17.55 12.25 17.55C14.759 17.55 16.8 15.509 16.8 13C16.8 10.491 14.759 8.45 12.25 8.45C9.74105 8.45 7.7 10.491 7.7 13ZM6.25 13C6.25 16.3098 8.94023 19 12.25 19C15.5598 19 18.25 16.3098 18.25 13C18.25 9.69023 15.5598 7 12.25 7C8.94023 7 6.25 9.69023 6.25 13Z" fill="#292D32"/>
</mask>
<g mask="url(#mask0_1992_27442)">
<rect x="0.25" width="24" height="24" fill="#828292"/>
</g>
</svg>
