<svg width="56" height="56" viewBox="0 0 56 56" fill="none" xmlns="http://www.w3.org/2000/svg">
<rect x="4" y="4" width="48" height="48" rx="24" fill="#DDDBFD"/>
<rect x="4" y="4" width="48" height="48" rx="24" stroke="#EDECFE" stroke-width="8"/>
<path d="M19.45 24.5V31.5C19.45 33.45 21.04 35.05 23 35.05H31.98C33.6 35.05 34.96 33.96 35.39 32.48C35.4 32.43 35.41 32.38 35.43 32.34C35.48 32.21 35.57 32.09 35.69 32.02C35.81 31.93 35.95 31.88 36.11 31.88C36.25 31.88 36.38 31.92 36.48 31.99C36.69 32.12 36.83 32.35 36.83 32.61C36.83 32.65 36.83 32.69 36.82 32.73C36.81 32.76 36.81 32.8 36.8 32.83C36.21 34.95 34.27 36.5 31.98 36.5H23C20.24 36.5 18 34.26 18 31.5V24.5C18 21.78 19.64 19.88 22.19 19.56C22.45 19.52 22.72 19.5 23 19.5H31.98C32.26 19.5 32.53 19.52 32.79 19.56C34.92 19.82 36.42 21.2 36.85 23.23C36.87 23.3 36.87 23.33 36.87 23.36V23.42C36.87 23.66 36.75 23.87 36.57 24.01C36.45 24.09 36.3 24.14 36.14 24.14C35.96 24.14 35.8 24.08 35.67 23.97C35.56 23.88 35.48 23.76 35.44 23.62C35.43 23.58 35.42 23.54 35.41 23.48C35.29 22.9 35.05 22.43 34.73 22.07C34.26 21.51 33.56 21.11 32.6 20.99H32.56C32.38 20.96 32.19 20.95 31.98 20.95H23C22.79 20.95 22.6 20.96 22.41 20.99H22.37C21.42 21.11 20.72 21.51 20.24 22.07C19.77 22.62 19.45 23.43 19.45 24.5Z" fill="#8480F7"/>
<path fill-rule="evenodd" clip-rule="evenodd" d="M36.2999 25.228H36.2899H34.1999C33.4499 25.228 32.7499 25.528 32.2499 26.038C31.6799 26.598 31.3499 27.388 31.4299 28.248C31.5599 29.758 32.9099 30.778 34.3099 30.778H36.2999C37.2399 30.748 37.9999 29.988 37.9999 29.038V26.968C37.9999 26.018 37.2399 25.258 36.2999 25.228ZM36.6699 29.128C36.6699 29.288 36.5599 29.428 36.3799 29.438H34.2799C33.4599 29.438 32.7899 28.838 32.7299 28.138C32.6899 27.698 32.8499 27.288 33.1399 27.008V26.998C33.3899 26.738 33.7399 26.588 34.1299 26.588H36.3599C36.5499 26.598 36.6699 26.748 36.6699 26.908V29.128Z" fill="#8480F7"/>
</svg>
