<svg width="30" height="30" viewBox="0 0 30 30" fill="none" xmlns="http://www.w3.org/2000/svg">
<path d="M9.92267 6.28052C9.61898 6.28052 9.32654 6.16804 9.11283 5.95433C9.00035 5.8531 8.92161 5.74062 8.86537 5.62814C8.57293 5.06575 8.79789 4.34589 9.37153 4.0422C11.1487 3.13112 13.1171 2.64746 15.0742 2.64746C15.3891 2.64746 15.6928 2.65871 16.0078 2.6812C16.3227 2.7037 16.6039 2.84992 16.8064 3.08613C17.0088 3.32233 17.1101 3.62602 17.0876 3.94096C17.0426 4.5596 16.5252 5.04326 15.8953 5.04326C15.5803 5.02076 15.3329 5.00951 15.0854 5.00951C13.477 5.00951 11.8798 5.40319 10.4626 6.1343C10.2939 6.22428 10.1026 6.26927 9.92267 6.26927V6.28052Z" fill="#8480F7"/>
<path d="M4.78231 11.7357C4.6136 11.7357 4.45613 11.702 4.3099 11.6345C4.19743 11.5895 4.08495 11.5108 3.97247 11.4096C3.61254 11.0721 3.50006 10.5322 3.70252 10.0711C4.27616 8.76631 5.05226 7.58529 6.01958 6.56173C6.24454 6.32553 6.55948 6.19055 6.88566 6.19055C7.18936 6.19055 7.47055 6.30303 7.69551 6.50549C8.16792 6.95541 8.19042 7.69776 7.75175 8.17018C6.97565 9.00252 6.34577 9.95858 5.8846 11.0159C5.69339 11.4433 5.27722 11.7245 4.80481 11.7245L4.78231 11.7357Z" fill="#8480F7"/>
<path d="M3.93871 17.7759C3.64626 17.7759 3.36507 17.6634 3.15136 17.4609C2.94889 17.2697 2.82517 17.0223 2.79142 16.7523C2.67895 15.9425 2.63395 15.2001 2.6677 14.5027C2.69019 13.8841 3.21884 13.3667 3.85997 13.3667C4.55734 13.4004 5.06349 13.9516 5.041 14.604C5.0185 15.1551 5.05224 15.7512 5.14223 16.4374C5.18722 16.7523 5.09724 17.056 4.90602 17.3147C4.71481 17.5622 4.44486 17.7309 4.12992 17.7646C4.07368 17.7646 4.00619 17.7759 3.93871 17.7759Z" fill="#BFBDFB"/>
<path d="M26.1982 17.9783C26.142 17.9783 26.0745 17.9783 26.0183 17.9671C25.7821 17.9333 25.5684 17.8209 25.3884 17.6521C25.1072 17.3822 24.9722 16.9998 25.0285 16.6061C25.5346 13.333 24.3873 10.0261 21.969 7.74278C21.2267 7.04541 20.4168 6.48302 19.5395 6.0556C18.9659 5.77441 18.7184 5.06579 18.9996 4.4809C19.1908 4.06473 19.5958 3.80603 20.0569 3.80603C20.2369 3.80603 20.4281 3.85102 20.5856 3.92976C21.6991 4.49215 22.7114 5.20076 23.5887 6.02186C26.5694 8.82258 27.9754 12.9168 27.3568 16.966C27.2668 17.5397 26.7719 17.9671 26.1982 17.9671V17.9783Z" fill="#5A57A8"/>
<path d="M14.9839 18.5294C13.7691 18.5294 12.7681 17.5396 12.7681 16.3136C12.7681 15.0876 13.7579 14.0977 14.9839 14.0977C15.1189 14.0977 15.2538 14.109 15.4001 14.1427L18.8532 10.5434C19.0669 10.3072 19.3818 10.1722 19.708 10.1722C20.0117 10.1722 20.2929 10.2847 20.5178 10.4872C20.9903 10.9371 21.0127 11.6795 20.5741 12.1519L17.121 15.7512C17.166 15.9424 17.1997 16.1224 17.1997 16.3023C17.1997 17.5171 16.2099 18.5182 14.9839 18.5182V18.5294Z" fill="#5A57A8"/>
<path d="M14.9943 27.5C11.4303 27.5 7.99191 26.0224 5.5702 23.4478C4.98762 22.8321 4.83912 21.9701 5.18182 21.209C5.51309 20.459 6.24417 20 7.07806 20H22.9219C23.7558 20 24.4869 20.459 24.8182 21.209C25.1609 21.9701 25.0124 22.8321 24.4298 23.4478C22.0081 26.0224 18.5697 27.5 15.0057 27.5H14.9943Z" fill="#8480F7"/>
</svg>
