<svg width="24" height="24" viewBox="0 0 24 24" fill="none" xmlns="http://www.w3.org/2000/svg">
<path d="M3.45 8.5V15.5C3.45 17.45 5.04 19.05 7 19.05H15.98C17.6 19.05 18.96 17.96 19.39 16.48C19.4 16.43 19.41 16.38 19.43 16.34C19.48 16.21 19.57 16.09 19.69 16.02C19.81 15.93 19.95 15.88 20.11 15.88C20.25 15.88 20.38 15.92 20.48 15.99C20.69 16.12 20.83 16.35 20.83 16.61C20.83 16.65 20.83 16.69 20.82 16.73C20.81 16.76 20.81 16.8 20.8 16.83C20.21 18.95 18.27 20.5 15.98 20.5H7C4.24 20.5 2 18.26 2 15.5V8.5C2 5.78 3.64 3.88 6.19 3.56C6.45 3.52 6.72 3.5 7 3.5H15.98C16.26 3.5 16.53 3.52 16.79 3.56C18.92 3.82 20.42 5.2 20.85 7.23C20.87 7.3 20.87 7.33 20.87 7.36V7.42C20.87 7.66 20.75 7.87 20.57 8.01C20.45 8.09 20.3 8.14 20.14 8.14C19.96 8.14 19.8 8.08 19.67 7.97C19.56 7.88 19.48 7.76 19.44 7.62C19.43 7.58 19.42 7.54 19.41 7.48C19.29 6.9 19.05 6.43 18.73 6.07C18.26 5.51 17.56 5.11 16.6 4.99H16.56C16.38 4.96 16.19 4.95 15.98 4.95H7C6.79 4.95 6.6 4.96 6.41 4.99H6.37C5.42 5.11 4.72 5.51 4.24 6.07C3.77 6.62 3.45 7.43 3.45 8.5Z" fill="#828292"/>
<path fill-rule="evenodd" clip-rule="evenodd" d="M20.2998 9.22852H20.2898H18.1998C17.4498 9.22852 16.7498 9.52852 16.2498 10.0385C15.6798 10.5985 15.3498 11.3885 15.4298 12.2485C15.5598 13.7585 16.9098 14.7785 18.3098 14.7785H20.2998C21.2398 14.7485 21.9998 13.9885 21.9998 13.0385V10.9685C21.9998 10.0185 21.2398 9.25852 20.2998 9.22852ZM20.6698 13.1285C20.6698 13.2885 20.5598 13.4285 20.3798 13.4385H18.2798C17.4598 13.4385 16.7898 12.8385 16.7298 12.1385C16.6898 11.6985 16.8498 11.2885 17.1398 11.0085V10.9985C17.3898 10.7385 17.7398 10.5885 18.1298 10.5885H20.3598C20.5498 10.5985 20.6698 10.7485 20.6698 10.9085V13.1285Z" fill="#828292"/>
</svg>
