<svg width="25" height="24" viewBox="0 0 25 24" fill="none" xmlns="http://www.w3.org/2000/svg">
<mask id="mask0_2115_26400" style="mask-type:alpha" maskUnits="userSpaceOnUse" x="0" y="0" width="25" height="24">
<path d="M12.25 3.47998C12.17 3.47998 12.09 3.48998 12.01 3.48998L12.83 2.46998C13.09 2.14998 13.04 1.66998 12.71 1.41998C12.39 1.15998 11.92 1.20998 11.66 1.53998L9.68999 3.99998C9.67999 4.00998 9.68 4.01998 9.67 4.03998C9.64 4.07998 9.62 4.12998 9.6 4.16998C9.58 4.21998 9.56 4.25998 9.55 4.29998C9.54 4.34998 9.54 4.38998 9.54 4.43998C9.54 4.48998 9.54 4.53998 9.54 4.58998C9.54 4.60998 9.54 4.61998 9.54 4.63998C9.55 4.66998 9.56999 4.68998 9.58 4.72998C9.6 4.77998 9.61 4.81998 9.64 4.85998C9.67 4.89998 9.7 4.93998 9.74 4.97998C9.75999 4.99998 9.78 5.02998 9.8 5.04998C9.81 5.05998 9.83 5.05998 9.84 5.06998C9.87 5.08998 9.89999 5.10998 9.93999 5.11998C9.99 5.14998 10.04 5.16998 10.09 5.17998C10.13 5.19998 10.16 5.19998 10.2 5.19998C10.23 5.19998 10.25 5.20998 10.28 5.20998C10.3 5.20998 10.33 5.19998 10.35 5.18998C10.38 5.18998 10.41 5.18998 10.45 5.18998C11.09 5.03998 11.69 4.96998 12.26 4.96998C16.75 4.96998 20.4 8.61998 20.4 13.11C20.4 17.6 16.75 21.25 12.26 21.25C7.77 21.25 4.12 17.6 4.12 13.11C4.12 11.37 4.69 9.68998 5.77 8.24998C6.02 7.91998 5.95 7.44998 5.62 7.19998C5.29 6.94998 4.82 7.01998 4.57 7.34998C3.29 9.04998 2.62 11.04 2.62 13.11C2.62 18.42 6.94 22.75 12.26 22.75C17.58 22.75 21.9 18.43 21.9 13.11C21.9 7.78998 17.56 3.47998 12.25 3.47998Z" fill="#292D32"/>
<path d="M12.25 7C8.944 7 6.25 9.694 6.25 13C6.25 16.306 8.944 19 12.25 19C15.556 19 18.25 16.306 18.25 13C18.25 9.694 15.556 7 12.25 7ZM14.86 15.142C14.776 15.286 14.626 15.364 14.47 15.364C14.392 15.364 14.314 15.346 14.242 15.298L12.382 14.188C11.92 13.912 11.578 13.306 11.578 12.772V10.312C11.578 10.066 11.782 9.862 12.028 9.862C12.274 9.862 12.478 10.066 12.478 10.312V12.772C12.478 12.988 12.658 13.306 12.844 13.414L14.704 14.524C14.92 14.65 14.992 14.926 14.86 15.142Z" fill="#292D32"/>
</mask>
<g mask="url(#mask0_2115_26400)">
<rect x="0.25" width="24" height="24" fill="#8480F7"/>
</g>
</svg>
