<svg width="57" height="56" viewBox="0 0 57 56" fill="none" xmlns="http://www.w3.org/2000/svg">
<rect x="4.5" y="4" width="48" height="48" rx="24" fill="#DDDBFD"/>
<rect x="4.5" y="4" width="48" height="48" rx="24" stroke="#EDECFE" stroke-width="8"/>
<mask id="mask0_2825_24392" style="mask-type:alpha" maskUnits="userSpaceOnUse" x="16" y="16" width="25" height="24">
<path d="M19.95 24.5V31.5C19.95 33.45 21.54 35.05 23.5 35.05H32.48C34.1 35.05 35.46 33.96 35.89 32.48C35.9 32.43 35.91 32.38 35.93 32.34C35.98 32.21 36.07 32.09 36.19 32.02C36.31 31.93 36.45 31.88 36.61 31.88C36.75 31.88 36.88 31.92 36.98 31.99C37.19 32.12 37.33 32.35 37.33 32.61C37.33 32.65 37.33 32.69 37.32 32.73C37.31 32.76 37.31 32.8 37.3 32.83C36.71 34.95 34.77 36.5 32.48 36.5H23.5C20.74 36.5 18.5 34.26 18.5 31.5V24.5C18.5 21.78 20.14 19.88 22.69 19.56C22.95 19.52 23.22 19.5 23.5 19.5H32.48C32.76 19.5 33.03 19.52 33.29 19.56C35.42 19.82 36.92 21.2 37.35 23.23C37.37 23.3 37.37 23.33 37.37 23.36V23.42C37.37 23.66 37.25 23.87 37.07 24.01C36.95 24.09 36.8 24.14 36.64 24.14C36.46 24.14 36.3 24.08 36.17 23.97C36.06 23.88 35.98 23.76 35.94 23.62C35.93 23.58 35.92 23.54 35.91 23.48C35.79 22.9 35.55 22.43 35.23 22.07C34.76 21.51 34.06 21.11 33.1 20.99H33.06C32.88 20.96 32.69 20.95 32.48 20.95H23.5C23.29 20.95 23.1 20.96 22.91 20.99H22.87C21.92 21.11 21.22 21.51 20.74 22.07C20.27 22.62 19.95 23.43 19.95 24.5Z" fill="#292D32"/>
<path fill-rule="evenodd" clip-rule="evenodd" d="M36.7998 25.2281H36.7898H34.6998C33.9498 25.2281 33.2498 25.5281 32.7498 26.0381C32.1798 26.5981 31.8498 27.3881 31.9298 28.2481C32.0598 29.7581 33.4098 30.7781 34.8098 30.7781H36.7998C37.7398 30.7481 38.4998 29.9881 38.4998 29.0381V26.9681C38.4998 26.0181 37.7398 25.2581 36.7998 25.2281ZM37.1698 29.1281C37.1698 29.2881 37.0598 29.4281 36.8798 29.4381H34.7798C33.9598 29.4381 33.2898 28.8381 33.2298 28.1381C33.1898 27.6981 33.3498 27.2881 33.6398 27.0081V26.9981C33.8898 26.7381 34.2398 26.5881 34.6298 26.5881H36.8598C37.0498 26.5981 37.1698 26.7481 37.1698 26.9081V29.1281Z" fill="#292D32"/>
</mask>
<g mask="url(#mask0_2825_24392)">
<rect x="16.5" y="16" width="24" height="24" fill="#8480F7"/>
</g>
</svg>
