<svg width="22" height="22" viewBox="0 0 22 22" fill="none" xmlns="http://www.w3.org/2000/svg">
<path d="M17.4145 16.7292C17.5887 16.7292 17.7629 16.665 17.9004 16.5275C18.1662 16.2617 18.1662 15.8217 17.9004 15.5558L5.06702 2.72251C4.80119 2.45667 4.36119 2.45667 4.09535 2.72251C3.82952 2.98834 3.82952 3.42834 4.09535 3.69417L16.9287 16.5275C17.0662 16.665 17.2404 16.7292 17.4145 16.7292Z" fill="#1DC975"/>
<path d="M8.00026 16.7291H17.4144C17.7903 16.7291 18.1019 16.4175 18.1019 16.0416V6.62747C18.1019 6.25164 17.7903 5.93997 17.4144 5.93997C17.0386 5.93997 16.7269 6.25164 16.7269 6.62747V15.3541H8.00026C7.62443 15.3541 7.31276 15.6658 7.31276 16.0416C7.31276 16.4175 7.62443 16.7291 8.00026 16.7291Z" fill="#1DC975"/>
<path d="M18.7916 20.8542H3.20831C2.83248 20.8542 2.52081 20.5425 2.52081 20.1667C2.52081 19.7908 2.83248 19.4792 3.20831 19.4792H18.7916C19.1675 19.4792 19.4791 19.7908 19.4791 20.1667C19.4791 20.5425 19.1675 20.8542 18.7916 20.8542Z" fill="#1DC975"/>
</svg>
