<svg width="19" height="19" viewBox="0 0 19 19" fill="none" xmlns="http://www.w3.org/2000/svg">
<mask id="mask0_2194_32014" style="mask-type:alpha" maskUnits="userSpaceOnUse" x="0" y="0" width="19" height="19">
<path d="M12.875 9.5C11.8627 9.5 10.9568 9.94768 10.3383 10.6536L8.19608 9.33511C8.30576 9.03406 8.37511 8.71376 8.37511 8.37491C8.37511 8.15353 8.34337 7.94055 8.29495 7.73333L11.1426 6.41929C11.555 6.92251 12.1735 7.24989 12.8752 7.24989C14.1172 7.24989 15.1251 6.24247 15.1251 4.99995C15.1251 3.75742 14.117 2.75 12.875 2.75C11.632 2.75 10.6251 3.75742 10.6251 4.99995C10.6251 5.13715 10.6421 5.26962 10.665 5.4004L7.82074 6.71328C7.30826 6.01834 6.49137 5.56239 5.56255 5.56239C4.00903 5.56256 2.75 6.82142 2.75 8.37494C2.75 9.92847 4.00903 11.1875 5.56255 11.1875C6.37104 11.1875 7.09515 10.8414 7.60815 10.2943L9.74723 11.6106C9.58892 12.0016 9.5 12.4273 9.5 12.875C9.5 14.7394 11.0106 16.25 12.875 16.25C14.7383 16.25 16.25 14.7394 16.25 12.875C16.25 11.0106 14.7383 9.5 12.875 9.5Z" fill="#292D32"/>
</mask>
<g mask="url(#mask0_2194_32014)">
<rect x="0.5" y="0.5" width="18" height="18" fill="white"/>
</g>
</svg>
