<svg width="30" height="30" viewBox="0 0 30 30" fill="none" xmlns="http://www.w3.org/2000/svg">
<path d="M14.0625 25.173C9.0625 25.173 5 21.1105 5 16.1105C5 11.1105 9.0625 7.04797 14.0625 7.04797C14.2875 7.04797 14.5375 7.06046 14.775 7.07296C19.1875 7.42296 22.7625 10.998 23.1 15.3855C23.1125 15.6355 23.125 15.873 23.125 16.1105C23.125 21.1105 19.0625 25.173 14.0625 25.173Z" fill="#8480F7"/>
<path d="M3.75 28.75C2.37069 28.75 1.25 27.6293 1.25 26.25C1.25 24.8707 2.37069 23.75 3.75 23.75C3.81207 23.75 3.88104 23.7534 3.94655 23.7569C5.1638 23.8534 6.15 24.8397 6.24311 26.05C6.24656 26.119 6.25 26.1845 6.25 26.25C6.25 27.6293 5.12931 28.75 3.75 28.75Z" fill="#BFBDFB"/>
<path d="M25.3125 2.49996H22.075C21.1875 2.49996 20.4 3.02495 20.05 3.84995C19.7125 4.67495 19.9 5.61245 20.525 6.23745L23.7625 9.47495C24.3875 10.0999 25.325 10.2875 26.15 9.94995C26.975 9.61245 27.5 8.81246 27.5 7.92496V4.68746C27.5 3.48746 26.5125 2.49996 25.3125 2.49996Z" fill="#5A57A8"/>
</svg>
