<svg width="22" height="23" viewBox="0 0 22 23" fill="none" xmlns="http://www.w3.org/2000/svg">
<mask id="mask0_2550_23709" style="mask-type:alpha" maskUnits="userSpaceOnUse" x="0" y="0" width="22" height="23">
<path d="M18.7917 21.3542H3.20833C2.8325 21.3542 2.52083 21.0425 2.52083 20.6667C2.52083 20.2908 2.8325 19.9792 3.20833 19.9792H18.7917C19.1675 19.9792 19.4792 20.2908 19.4792 20.6667C19.4792 21.0425 19.1675 21.3542 18.7917 21.3542Z" fill="#292D32"/>
<path d="M4.58115 17.2292C4.75532 17.2292 4.92948 17.165 5.06698 17.0275L17.9003 4.19417C18.1661 3.92834 18.1661 3.48834 17.9003 3.22251C17.6345 2.95667 17.1945 2.95667 16.9287 3.22251L4.09532 16.0558C3.82948 16.3217 3.82948 16.7617 4.09532 17.0275C4.23282 17.165 4.40698 17.2292 4.58115 17.2292Z" fill="#292D32"/>
<path d="M17.4144 13.81C17.7903 13.81 18.1019 13.4983 18.1019 13.1225V3.70833C18.1019 3.33249 17.7903 3.02083 17.4144 3.02083H8.00026C7.62443 3.02083 7.31276 3.33249 7.31276 3.70833C7.31276 4.08416 7.62443 4.39583 8.00026 4.39583H16.7269V13.1225C16.7269 13.4983 17.0386 13.81 17.4144 13.81Z" fill="#292D32"/>
</mask>
<g mask="url(#mask0_2550_23709)">
<rect y="0.5" width="22" height="22" fill="#FC9842"/>
</g>
</svg>
