<svg width="30" height="30" viewBox="0 0 30 30" fill="none" xmlns="http://www.w3.org/2000/svg">
<path d="M22.4866 10.25C20.0656 10.2535 18.0997 12.2194 18.1044 14.6322C18.0966 16.3199 19.0514 17.7826 20.4444 18.5203L20.4453 22.371C20.4495 22.6455 20.6298 23.0142 20.8552 23.1822L21.8713 23.9526C22.2114 24.2026 22.7644 24.2068 23.1002 23.9529L24.116 23.183C24.3413 23.0151 24.5255 22.6506 24.5214 22.3679L24.5212 21.6961C24.5252 21.5363 24.3941 21.4052 24.2303 21.4052L22.6408 21.4048C22.4032 21.4047 22.2066 21.208 22.2065 20.9704C22.2064 20.7329 22.403 20.5363 22.6406 20.5363L24.2383 20.5367C24.3939 20.5367 24.525 20.4057 24.5249 20.25L24.5286 18.5172C25.9212 17.7884 26.8713 16.3221 26.875 14.6384C26.8744 12.2215 24.9035 10.2506 22.4866 10.25ZM23.5079 15.6044C22.9427 16.1695 22.0251 16.1693 21.4596 15.6039C20.8942 15.0384 20.894 14.1208 21.4592 13.5556C22.0243 12.9904 22.9419 12.9907 23.5074 13.5561C24.0728 14.1216 24.0731 15.0392 23.5079 15.6044Z" fill="#5A57A8"/>
<path d="M21.6025 3.125H8.36189C5.47627 3.125 3.12502 5.47625 3.12502 8.36188V16.3181C3.12502 19.2156 5.47627 21.555 8.36189 21.555H12.9219C13.575 21.555 14.1094 22.0894 14.1094 22.7425V23.8944C14.1094 24.5475 13.575 25.0819 12.9219 25.0819H10.0481C9.56127 25.0819 9.15752 25.4856 9.15752 25.9725C9.15752 26.4594 9.54939 26.875 10.0481 26.875H19.9638C20.4506 26.875 20.8544 26.4713 20.8544 25.9844C20.8544 25.4975 20.4506 25.0938 19.9638 25.0938H17.09C16.4369 25.0938 15.9025 24.5594 15.9025 23.9063V22.7544C15.9025 22.1013 16.4369 21.5669 17.09 21.5669H18.664L18.6635 19.75H8.46875C6.50124 19.75 4.90625 18.155 4.90625 16.1875L4.90623 8.46875C4.90623 6.50124 6.50122 4.90625 8.46874 4.90625H21.5312C23.4988 4.90625 25.0937 6.50124 25.0937 8.46875L25.0937 9.04777C25.7506 9.3555 26.3447 9.77566 26.8513 10.2833V8.37375C26.8394 5.47625 24.4881 3.125 21.6025 3.125Z" fill="#8480F7"/>
<path d="M8.46874 6.6875C7.48498 6.6875 6.68748 7.48499 6.68748 8.46875V16.1875C6.68748 17.1713 7.48498 17.9688 8.46874 17.9688H17.2968C16.6784 17.0082 16.3186 15.8633 16.3231 14.6298C16.3197 11.2299 19.0865 8.47368 22.484 8.46875L22.487 8.46875C22.7668 8.46882 23.0424 8.48763 23.3125 8.52399V8.46875C23.3125 7.48499 22.515 6.6875 21.5312 6.6875H8.46874Z" fill="#BFBDFB"/>
</svg>
