<svg width="26" height="26" viewBox="0 0 26 26" fill="none" xmlns="http://www.w3.org/2000/svg">
<mask id="mask0_2550_23688" style="mask-type:alpha" maskUnits="userSpaceOnUse" x="4" y="4" width="18" height="18">
<path d="M7.75 15.0625C6.61 15.0625 5.6875 14.14 5.6875 13C5.6875 11.86 6.61 10.9375 7.75 10.9375C8.89 10.9375 9.8125 11.86 9.8125 13C9.8125 14.14 8.89 15.0625 7.75 15.0625ZM7.75 12.0625C7.2325 12.0625 6.8125 12.4825 6.8125 13C6.8125 13.5175 7.2325 13.9375 7.75 13.9375C8.2675 13.9375 8.6875 13.5175 8.6875 13C8.6875 12.4825 8.2675 12.0625 7.75 12.0625Z" fill="#292D32"/>
<path d="M18.25 15.0625C17.11 15.0625 16.1875 14.14 16.1875 13C16.1875 11.86 17.11 10.9375 18.25 10.9375C19.39 10.9375 20.3125 11.86 20.3125 13C20.3125 14.14 19.39 15.0625 18.25 15.0625ZM18.25 12.0625C17.7325 12.0625 17.3125 12.4825 17.3125 13C17.3125 13.5175 17.7325 13.9375 18.25 13.9375C18.7675 13.9375 19.1875 13.5175 19.1875 13C19.1875 12.4825 18.7675 12.0625 18.25 12.0625Z" fill="#292D32"/>
<path d="M13 15.0625C11.86 15.0625 10.9375 14.14 10.9375 13C10.9375 11.86 11.86 10.9375 13 10.9375C14.14 10.9375 15.0625 11.86 15.0625 13C15.0625 14.14 14.14 15.0625 13 15.0625ZM13 12.0625C12.4825 12.0625 12.0625 12.4825 12.0625 13C12.0625 13.5175 12.4825 13.9375 13 13.9375C13.5175 13.9375 13.9375 13.5175 13.9375 13C13.9375 12.4825 13.5175 12.0625 13 12.0625Z" fill="#292D32"/>
</mask>
<g mask="url(#mask0_2550_23688)">
<rect x="4" y="4" width="18" height="18" fill="#828292"/>
</g>
</svg>
