<svg width="24" height="24" viewBox="0 0 24 24" fill="none" xmlns="http://www.w3.org/2000/svg">
<path d="M6.10629 21C5.19893 21 4.42475 20.7086 3.85869 20.1425C3.05122 19.335 2.80148 18.1029 3.15944 16.671L5.2239 8.40422C5.58185 6.97231 6.98036 5.58203 8.40384 5.22406L16.67 3.15945C18.1018 2.80147 19.3338 3.05122 20.1413 3.85875C20.9488 4.66628 21.1985 5.89838 20.8406 7.33029L18.7761 15.5971C18.4181 17.029 17.0196 18.4192 15.5962 18.7772L7.32998 20.8418C6.90544 20.9417 6.49754 21 6.10629 21ZM16.9863 4.35825L8.72017 6.43119C7.74621 6.67261 6.689 7.72989 6.43927 8.70392L4.37481 16.9707C4.12507 17.9614 4.25826 18.7689 4.74108 19.2601C5.2239 19.7429 6.03969 19.8761 7.0303 19.6264L15.2965 17.5618C16.2704 17.3203 17.3276 16.2547 17.5691 15.289L19.6335 7.02226C19.8833 6.03158 19.7501 5.22406 19.2672 4.73288C18.7844 4.2417 17.977 4.11683 16.9863 4.35825Z" fill="#6B6B7A"/>
<path d="M6.10629 21C5.19893 21 4.42475 20.7086 3.85869 20.1425C3.05122 19.335 2.80148 18.1029 3.15944 16.671L5.2239 8.40422C5.58185 6.97231 6.98036 5.58203 8.40384 5.22406L16.67 3.15945C18.1018 2.80147 19.3338 3.05122 20.1413 3.85875C20.9488 4.66628 21.1985 5.89838 20.8406 7.33029L18.7761 15.5971C18.4181 17.029 17.0196 18.4192 15.5962 18.7772L7.32998 20.8418C6.90544 20.9417 6.49754 21 6.10629 21ZM16.9863 4.35825L8.72017 6.43119C7.74621 6.67261 6.689 7.72989 6.43927 8.70392L4.37481 16.9707C4.12507 17.9614 4.25826 18.7689 4.74108 19.2601C5.2239 19.7429 6.03969 19.8761 7.0303 19.6264L15.2965 17.5618C16.2704 17.3203 17.3276 16.2547 17.5691 15.289L19.6335 7.02226C19.8833 6.03158 19.7501 5.22406 19.2672 4.73288C18.7844 4.2417 17.977 4.11683 16.9863 4.35825Z" fill="#6B6B7A"/>
<path fill-rule="evenodd" clip-rule="evenodd" d="M7.32998 20.8418C6.90543 20.9417 6.49753 21 6.10628 21C5.19892 21 4.42475 20.7086 3.85868 20.1425C3.05121 19.335 2.80148 18.1029 3.15943 16.671L5.22389 8.40422C5.58184 6.97232 6.98035 5.58203 8.40383 5.22406L16.67 3.15945C18.1018 2.80147 19.3338 3.05122 20.1413 3.85875C20.9488 4.66628 21.1985 5.89839 20.8406 7.33029L18.7761 15.5971C18.4181 17.029 17.0196 18.4192 15.5962 18.7772L7.32998 20.8418ZM20.9861 7.36667L18.9216 15.6334C18.7347 16.3811 18.279 17.1097 17.6917 17.696C17.1044 18.2823 16.3759 18.7358 15.6327 18.9227L7.36434 20.9879C6.93196 21.0896 6.51216 21.15 6.10628 21.15C5.16572 21.15 4.35115 20.8472 3.75261 20.2486C2.89707 19.393 2.64739 18.1008 3.0139 16.6346C3.0139 16.6346 3.0139 16.6347 3.0139 16.6346L5.07836 8.36788C5.26526 7.62022 5.721 6.89155 6.30832 6.30526C6.89562 5.71898 7.62409 5.26548 8.36725 5.07859L16.6336 3.01393C16.6336 3.01393 16.6336 3.01393 16.6336 3.01393C18.0997 2.64739 19.3918 2.89709 20.2474 3.75269C21.1029 4.60829 21.3526 5.9005 20.9861 7.36667C20.9861 7.36668 20.9861 7.36666 20.9861 7.36667ZM15.2965 17.5618C16.2704 17.3203 17.3276 16.2547 17.569 15.289L19.6335 7.02227C19.8832 6.03159 19.7501 5.22406 19.2672 4.73288C18.7844 4.2417 17.9769 4.11683 16.9863 4.35825L8.72016 6.43119C7.7462 6.67261 6.689 7.72989 6.43926 8.70392L4.3748 16.9707C4.12507 17.9614 4.25826 18.7689 4.74107 19.2601C5.22389 19.7429 6.03969 19.8761 7.0303 19.6264L15.2965 17.5618ZM4.84763 19.1545C5.27711 19.5835 6.02779 19.7244 6.99363 19.4809L15.2601 17.4162C15.7129 17.304 16.1979 16.9954 16.6013 16.5911C17.0046 16.1867 17.3112 15.7018 17.4235 15.2527C17.4235 15.2527 17.4235 15.2527 17.4235 15.2527L19.488 6.98592C19.7314 6.02049 19.5911 5.27634 19.1603 4.83803C18.7315 4.4018 17.9902 4.2681 17.0224 4.50387C17.0222 4.50391 17.0225 4.50382 17.0224 4.50387L8.75665 6.57668C8.30355 6.689 7.81834 6.99573 7.41406 7.39902C7.00998 7.80212 6.70111 8.2871 6.58468 8.7407C6.58464 8.74086 6.58472 8.74055 6.58468 8.7407L4.52033 17.007C4.27704 17.9721 4.41711 18.7161 4.84763 19.1545Z" fill="#6B6B7A"/>
<path d="M12 16C9.79765 16 8 14.2024 8 12C8 9.79766 9.79765 8.00002 12 8.00002C14.2024 8.00002 16 9.79766 16 12C16 14.2024 14.2024 16 12 16ZM12 9.41178C10.5694 9.41178 9.41176 10.5694 9.41176 12C9.41176 13.4306 10.5694 14.5883 12 14.5883C13.4306 14.5883 14.5882 13.4306 14.5882 12C14.5882 10.5694 13.4306 9.41178 12 9.41178Z" fill="#6B6B7A"/>
</svg>
