<svg width="22" height="23" viewBox="0 0 22 23" fill="none" xmlns="http://www.w3.org/2000/svg">
<mask id="mask0_2550_23757" style="mask-type:alpha" maskUnits="userSpaceOnUse" x="0" y="0" width="22" height="23">
<path d="M17.4145 17.2292C17.5886 17.2292 17.7628 17.165 17.9003 17.0275C18.1661 16.7617 18.1661 16.3217 17.9003 16.0558L5.06698 3.22251C4.80115 2.95667 4.36115 2.95667 4.09531 3.22251C3.82948 3.48834 3.82948 3.92834 4.09531 4.19417L16.9286 17.0275C17.0661 17.165 17.2403 17.2292 17.4145 17.2292Z" fill="#292D32"/>
<path d="M8.00026 17.2291H17.4144C17.7903 17.2291 18.1019 16.9175 18.1019 16.5416V7.12747C18.1019 6.75164 17.7903 6.43997 17.4144 6.43997C17.0386 6.43997 16.7269 6.75164 16.7269 7.12747V15.8541H8.00026C7.62443 15.8541 7.31276 16.1658 7.31276 16.5416C7.31276 16.9175 7.62443 17.2291 8.00026 17.2291Z" fill="#292D32"/>
<path d="M18.7917 21.3542H3.20833C2.8325 21.3542 2.52083 21.0425 2.52083 20.6667C2.52083 20.2908 2.8325 19.9792 3.20833 19.9792H18.7917C19.1675 19.9792 19.4792 20.2908 19.4792 20.6667C19.4792 21.0425 19.1675 21.3542 18.7917 21.3542Z" fill="#292D32"/>
</mask>
<g mask="url(#mask0_2550_23757)">
<rect y="0.5" width="22" height="22" fill="#1DC975"/>
</g>
</svg>
