<svg width="44" height="44" viewBox="0 0 44 44" fill="none" xmlns="http://www.w3.org/2000/svg">
<path d="M0 22C0 9.84974 9.84974 0 22 0V0C34.1503 0 44 9.84974 44 22V22C44 34.1503 34.1503 44 22 44V44C9.84974 44 0 34.1503 0 22V22Z" fill="#6F6CCF"/>
<path d="M11.2313 19.6663C10.7297 19.6663 10.333 19.2697 10.333 18.768V16.073C10.333 12.9113 12.9113 10.333 16.073 10.333H18.768C19.2697 10.333 19.6663 10.7297 19.6663 11.2313C19.6663 11.733 19.2697 12.1297 18.768 12.1297H16.073C13.8913 12.1297 12.1297 13.903 12.1297 16.073V18.768C12.1297 19.2697 11.7213 19.6663 11.2313 19.6663Z" fill="white"/>
<path d="M32.768 19.6663C32.278 19.6663 31.8697 19.2697 31.8697 18.768V16.073C31.8697 13.8913 30.0963 12.1297 27.9263 12.1297H25.2313C24.7297 12.1297 24.333 11.7213 24.333 11.2313C24.333 10.7413 24.7297 10.333 25.2313 10.333H27.9263C31.088 10.333 33.6663 12.9113 33.6663 16.073V18.768C33.6663 19.2697 33.2697 19.6663 32.768 19.6663Z" fill="white"/>
<path d="M27.9262 33.6663H26.3046C25.8146 33.6663 25.4062 33.2696 25.4062 32.768C25.4062 32.278 25.8029 31.8696 26.3046 31.8696H27.9262C30.1079 31.8696 31.8696 30.0963 31.8696 27.9263V26.3163C31.8696 25.8263 32.2662 25.418 32.7679 25.418C33.2579 25.418 33.6663 25.8146 33.6663 26.3163V27.9263C33.6663 31.088 31.0879 33.6663 27.9262 33.6663Z" fill="white"/>
<path d="M18.768 33.6663H16.073C12.9113 33.6663 10.333 31.088 10.333 27.9263V25.2313C10.333 24.7297 10.7297 24.333 11.2313 24.333C11.733 24.333 12.1297 24.7297 12.1297 25.2313V27.9263C12.1297 30.108 13.903 31.8697 16.073 31.8697H18.768C19.258 31.8697 19.6663 32.2663 19.6663 32.768C19.6663 33.2697 19.2697 33.6663 18.768 33.6663Z" fill="white"/>
<path d="M29.5371 21.1016H27.9504H16.0504H14.4638C13.9621 21.1016 13.5654 21.5099 13.5654 21.9999C13.5654 22.4899 13.9621 22.8982 14.4638 22.8982H16.0504H27.9504H29.5371C30.0388 22.8982 30.4354 22.4899 30.4354 21.9999C30.4354 21.5099 30.0388 21.1016 29.5371 21.1016Z" fill="white"/>
<path d="M16.0498 24.2636V24.6486C16.0498 26.5852 17.6131 28.1486 19.5498 28.1486H24.4498C26.3865 28.1486 27.9498 26.5852 27.9498 24.6486V24.2636C27.9498 24.1236 27.8448 24.0186 27.7048 24.0186H16.2948C16.1548 24.0186 16.0498 24.1236 16.0498 24.2636Z" fill="white"/>
<path d="M16.0498 19.7366V19.3516C16.0498 17.4149 17.6131 15.8516 19.5498 15.8516H24.4498C26.3865 15.8516 27.9498 17.4149 27.9498 19.3516V19.7366C27.9498 19.8766 27.8448 19.9816 27.7048 19.9816H16.2948C16.1548 19.9816 16.0498 19.8766 16.0498 19.7366Z" fill="white"/>
</svg>
