<svg width="24" height="24" viewBox="0 0 24 24" fill="none" xmlns="http://www.w3.org/2000/svg">
<path d="M16.9347 7.13823C16.9346 7.13835 16.9345 7.13852 16.9346 7.13866L18.9065 11.2943C19.0388 11.5731 19.055 11.8931 18.9515 12.1838L17.5697 16.0634C17.4662 16.3543 17.2513 16.592 16.9723 16.7244L12.817 18.6965L10.9416 19.5873L9.57099 20.238L8.24429 20.8671L4.2712 22.7518C3.33438 23.1962 2.3279 22.2862 2.67604 21.3095L4.15288 17.1662L4.64497 15.7839L5.15489 14.3538L5.85135 12.3979L7.39473 8.0644C7.49834 7.77347 7.71333 7.53565 7.99236 7.4033L11.7121 5.63892C11.9909 5.50668 12.3108 5.49056 12.6015 5.5941L16.9345 7.1376C16.9348 7.13769 16.9349 7.13802 16.9347 7.13823ZM8.6933 8.63812C8.69329 8.63802 8.69315 8.638 8.69311 8.63809L6.48812 14.8293L5.97701 16.2595L5.48605 17.6406L5.15666 18.5649C4.80858 19.5416 5.81516 20.4516 6.75195 20.0071L7.63702 19.5872L10.3343 18.308L15.835 15.6968C16.1139 15.5644 16.3288 15.3266 16.4324 15.0358L17.4206 12.2603C17.5241 11.9696 17.5079 11.6497 17.3756 11.371L16.1137 8.71153C15.9813 8.43256 15.7435 8.21763 15.4527 8.11404L12.6774 7.12574C12.3868 7.02225 12.067 7.03836 11.7882 7.17055L8.69343 8.6382C8.69337 8.63822 8.6933 8.63818 8.6933 8.63812Z" fill="#8480F7"/>
<path d="M8.12393 16.7907C8.12404 16.7906 8.12406 16.7904 8.12399 16.7903L6.15205 12.6346C6.01975 12.3558 6.00359 12.0359 6.10713 11.7452L7.48886 7.86554C7.59244 7.5747 7.80734 7.33693 8.08626 7.20455L12.2416 5.23248L14.117 4.34164L15.4876 3.69094L16.8143 3.06186L20.7874 1.17713C21.7242 0.732725 22.7307 1.64279 22.3826 2.61948L20.9057 6.76274L20.4136 8.14505L19.9037 9.5752L19.2072 11.531L17.6639 15.8646C17.5603 16.1555 17.3453 16.3933 17.0662 16.5257L13.3464 18.29C13.0677 18.4223 12.7478 18.4384 12.4571 18.3349L8.12409 16.7914C8.12383 16.7913 8.12374 16.7909 8.12393 16.7907ZM16.3653 15.2908C16.3653 15.2909 16.3654 15.291 16.3655 15.2909L18.5705 9.09963L19.0816 7.66941L19.5725 6.28836L19.9019 5.36406C20.25 4.38732 19.2434 3.47732 18.3066 3.92183L17.4216 4.34179L14.7243 5.62097L9.22357 8.23212C8.94465 8.36452 8.72977 8.60231 8.62621 8.89317L7.63802 11.6687C7.53452 11.9593 7.55069 12.2792 7.68297 12.558L8.94487 15.2174C9.07725 15.4964 9.31505 15.7113 9.60594 15.8149L12.3812 16.8032C12.6718 16.9067 12.9916 16.8906 13.2704 16.7584L16.3652 15.2908C16.3652 15.2907 16.3653 15.2908 16.3653 15.2908Z" fill="#8480F7"/>
<path d="M22.8189 21.0874C22.9887 21.469 22.6124 21.8654 22.2225 21.7157L17.856 20.0388L16.7511 19.6144L16.665 19.5814C16.2751 19.4317 16.2608 18.8854 16.6423 18.7155L17.1905 18.4713L18.5407 17.8702C18.6541 17.8196 18.7429 17.7261 18.7875 17.6102L19.3183 16.2301L19.5329 15.671C19.6825 15.281 20.2289 15.2667 20.3988 15.6482L20.4362 15.7322L20.9162 16.8128L22.8189 21.0874Z" fill="#454381"/>
<path d="M2.10936 3.46341C1.91879 3.09177 2.27268 2.67524 2.67023 2.80329L7.12244 4.23732L8.24905 4.60026L8.33678 4.62851C8.73431 4.75649 8.77869 5.3012 8.40711 5.49184L7.87314 5.7658L6.55814 6.44037C6.44761 6.49707 6.36411 6.59531 6.32596 6.71353L5.8719 8.12078L5.68845 8.69082C5.5605 9.0884 5.01573 9.13279 4.82509 8.76118L4.78314 8.67939L4.24434 7.62683L2.10936 3.46341Z" fill="#454381"/>
</svg>
