<svg width="14" height="14" viewBox="0 0 14 14" fill="none" xmlns="http://www.w3.org/2000/svg">
<path d="M5.1975 12.0575C5.08667 12.0575 4.97583 12.0167 4.88833 11.9292C4.71917 11.76 4.71917 11.48 4.88833 11.3108L8.69167 7.5075C8.97167 7.2275 8.97167 6.7725 8.69167 6.4925L4.88833 2.68916C4.71917 2.52 4.71917 2.24 4.88833 2.07083C5.0575 1.90166 5.3375 1.90166 5.50667 2.07083L9.31 5.87416C9.6075 6.17166 9.77667 6.57416 9.77667 7C9.77667 7.42583 9.61333 7.82833 9.31 8.12583L5.50667 11.9292C5.41917 12.0108 5.30833 12.0575 5.1975 12.0575Z" fill="#6B6B7A"/>
<path fill-rule="evenodd" clip-rule="evenodd" d="M5.66587 12.0997C5.54 12.2172 5.37374 12.2908 5.1975 12.2908C5.02812 12.2908 4.8569 12.2277 4.72334 12.0942C4.46305 11.8339 4.46305 11.4061 4.72334 11.1458L8.52667 7.34251C8.71555 7.15363 8.71555 6.84637 8.52667 6.65749L4.72334 2.85416C4.46305 2.59387 4.46305 2.16613 4.72334 1.90584C4.98363 1.64555 5.41137 1.64555 5.67165 1.90584L9.47499 5.70917C9.81588 6.05006 10.01 6.51176 10.01 7C10.01 7.48587 9.82333 7.94873 9.47425 8.29157C9.47396 8.29185 9.47367 8.29213 9.47338 8.29242L5.66587 12.0997ZM9.31 8.12583C9.61333 7.82833 9.77666 7.42583 9.77666 7C9.77666 6.57417 9.6075 6.17167 9.31 5.87417L5.50666 2.07083C5.3375 1.90167 5.0575 1.90167 4.88833 2.07083C4.71916 2.24 4.71916 2.52 4.88833 2.68917L8.69166 6.4925C8.97166 6.7725 8.97166 7.2275 8.69166 7.5075L4.88833 11.3108C4.71916 11.48 4.71916 11.76 4.88833 11.9292C4.97583 12.0167 5.08666 12.0575 5.1975 12.0575C5.30833 12.0575 5.41916 12.0108 5.50666 11.9292L9.31 8.12583Z" fill="#6B6B7A"/>
</svg>
