<svg width="57" height="56" viewBox="0 0 57 56" fill="none" xmlns="http://www.w3.org/2000/svg">
<rect x="4.5" y="4" width="48" height="48" rx="24" fill="#BAF3D8"/>
<rect x="4.5" y="4" width="48" height="48" rx="24" stroke="#D8F8E8" stroke-width="8"/>
<mask id="mask0_2550_23270" style="mask-type:alpha" maskUnits="userSpaceOnUse" x="16" y="16" width="25" height="24">
<path d="M28.8076 31.37C28.9976 31.37 29.1876 31.3 29.3376 31.15C29.6276 30.86 29.6276 30.38 29.3376 30.09L27.3076 28.06L29.3376 26.03C29.6276 25.74 29.6276 25.26 29.3376 24.97C29.0476 24.68 28.5676 24.68 28.2776 24.97L25.7176 27.53C25.4276 27.82 25.4276 28.3 25.7176 28.59L28.2776 31.15C28.4176 31.3 28.6176 31.37 28.8076 31.37Z" fill="#292D32"/>
<path d="M26.3175 28.81H36.4875C36.8975 28.81 37.2375 28.47 37.2375 28.06C37.2375 27.65 36.8975 27.31 36.4875 27.31H26.3175C25.9075 27.31 25.5675 27.65 25.5675 28.06C25.5675 28.47 25.9075 28.81 26.3175 28.81Z" fill="#292D32"/>
<path d="M28.26 36.75C23.11 36.75 19.51 33.15 19.51 28C19.51 22.85 23.11 19.25 28.26 19.25C28.67 19.25 29.01 19.59 29.01 20C29.01 20.41 28.67 20.75 28.26 20.75C23.99 20.75 21.01 23.73 21.01 28C21.01 32.27 23.99 35.25 28.26 35.25C28.67 35.25 29.01 35.59 29.01 36C29.01 36.41 28.67 36.75 28.26 36.75Z" fill="#292D32"/>
</mask>
<g mask="url(#mask0_2550_23270)">
<rect x="16.5" y="16" width="24" height="24" fill="#159454"/>
</g>
</svg>
