<svg width="30" height="30" viewBox="0 0 30 30" fill="none" xmlns="http://www.w3.org/2000/svg">
<path d="M11.6253 13.1774C13.104 13.1774 14.3028 11.9786 14.3028 10.4999C14.3028 9.02115 13.104 7.82239 11.6253 7.82239C10.1465 7.82239 8.94775 9.02115 8.94775 10.4999C8.94775 11.9786 10.1465 13.1774 11.6253 13.1774Z" fill="#BFBDFB"/>
<path fill-rule="evenodd" clip-rule="evenodd" d="M20.4411 15.0912C21.2331 14.3794 22.5126 14.3794 23.3047 15.0912C23.3692 15.1483 23.4062 15.2304 23.4062 15.3167V19.0109C23.4062 20.621 22.9534 21.7113 22.2974 22.3975C21.6415 23.0837 20.5992 23.5574 19.06 23.5574H10.5505C8.43004 23.5574 7.20296 22.6708 6.63471 21.3575L6.62944 21.3455C6.56687 21.204 6.61935 21.0403 6.74598 20.9514L10.3271 18.4373C11.1394 17.8637 12.2869 17.9274 13.0079 18.586L13.3531 18.8834C14.1452 19.5951 15.4247 19.5951 16.2167 18.8834L20.4411 15.0912Z" fill="#5A57A8"/>
<path fill-rule="evenodd" clip-rule="evenodd" d="M5.9481 22.199C6.57764 23.5898 7.93709 24.5287 10.2863 24.5287H19.7138C21.4189 24.5287 22.5737 24.0271 23.3004 23.3004C24.0271 22.5737 24.5287 21.4189 24.5287 19.7138V10.2863C24.5287 8.58106 24.0271 7.42634 23.3004 6.69961C22.5737 5.97288 21.4189 5.47125 19.7138 5.47125H10.2863C8.58106 5.47125 7.42634 5.97288 6.69961 6.69961C5.97288 7.42634 5.47125 8.58106 5.47125 10.2863V19.7138C5.47125 20.7428 5.65068 21.5558 5.94225 22.1862L5.9481 22.199ZM10.2863 3.75H19.7138C23.8088 3.75 26.25 6.19125 26.25 10.2863V19.7138C26.25 23.8088 23.8088 26.25 19.7138 26.25H10.2863C7.4175 26.25 5.3475 25.0462 4.38 22.9088C3.96375 22.0088 3.75 20.94 3.75 19.7138V10.2863C3.75 6.19125 6.19125 3.75 10.2863 3.75Z" fill="#8480F7"/>
</svg>
