<svg width="24" height="24" viewBox="0 0 24 24" fill="none" xmlns="http://www.w3.org/2000/svg">
<path d="M16.6819 7.1382C16.6818 7.13831 16.6818 7.13848 16.6819 7.13863L18.6167 11.2888C18.7465 11.5672 18.7621 11.8868 18.66 12.1774L17.2979 16.055C17.1958 16.3457 16.9843 16.5834 16.71 16.716L12.6229 18.6904L10.7782 19.5822L9.43006 20.2337L8.12513 20.8635L4.21722 22.7504C3.29577 23.1954 2.3071 22.2871 2.65029 21.3109L4.10613 17.1698L4.59122 15.7882L5.09389 14.3588L5.78044 12.404L7.30187 8.0728C7.40401 7.78202 7.6156 7.5442 7.89005 7.4117L11.5488 5.64525C11.823 5.51286 12.1375 5.49644 12.4232 5.59961L16.6818 7.13757C16.682 7.13766 16.6821 7.13799 16.6819 7.1382ZM8.57802 8.64476C8.57802 8.64466 8.57788 8.64464 8.57785 8.64473L6.40421 14.8327L5.90037 16.2622L5.41639 17.6425L5.09168 18.5663C4.74855 19.5425 5.73732 20.4508 6.65874 20.0057L7.52929 19.5853L10.1824 18.3046L15.5928 15.6904C15.8671 15.5578 16.0786 15.3201 16.1807 15.0293L17.1549 12.2553C17.2569 11.9648 17.2413 11.6452 17.1115 11.3668L15.8733 8.71092C15.7435 8.43232 15.5099 8.21781 15.224 8.11459L12.4964 7.12984C12.2108 7.02672 11.8964 7.04313 11.6222 7.17547L8.57815 8.64484C8.57809 8.64486 8.57803 8.64482 8.57802 8.64476Z" fill="#828292"/>
<path d="M8.00374 16.7908C8.00384 16.7907 8.00386 16.7905 8.0038 16.7904L6.06897 12.6402C5.93916 12.3618 5.92358 12.0421 6.02564 11.7516L7.38772 7.874C7.48983 7.58331 7.70133 7.34554 7.97568 7.21301L12.0628 5.23864L13.9075 4.34676L15.2556 3.6953L16.5605 3.06548L20.4684 1.17855C21.3899 0.733624 22.3786 1.64192 22.0354 2.61809L20.5795 6.75917L20.0944 8.14075L19.5918 9.57015L18.9052 11.525L17.3838 15.8562C17.2817 16.147 17.0701 16.3848 16.7956 16.5173L13.1369 18.2837C12.8626 18.4161 12.5481 18.4325 12.2624 18.3294L8.00389 16.7914C8.00363 16.7913 8.00355 16.791 8.00374 16.7908ZM16.1076 15.2842C16.1077 15.2843 16.1078 15.2843 16.1078 15.2843L18.2815 9.09628L18.7853 7.66682L19.2693 6.2865L19.594 5.36268C19.9371 4.38646 18.9483 3.47823 18.0269 3.92325L17.1564 4.34371L14.5033 5.62439L9.09286 8.23859C8.81852 8.37114 8.60704 8.60893 8.50495 8.89964L7.53081 11.6737C7.42878 11.9642 7.44438 12.2838 7.57417 12.5622L8.81232 15.2181C8.9422 15.4967 9.17579 15.7112 9.46168 15.8144L12.1893 16.7991C12.4749 16.9023 12.7893 16.8859 13.0635 16.7535L16.1075 15.2841C16.1076 15.2841 16.1076 15.2842 16.1076 15.2842Z" fill="#828292"/>
<path d="M22.4496 21.0994C22.6169 21.4821 22.2488 21.8786 21.8663 21.7277L17.5821 20.0381L16.498 19.6105L16.4135 19.5772C16.031 19.4265 16.0158 18.879 16.3895 18.7095L16.9265 18.4661L18.2489 17.8665C18.36 17.8161 18.4469 17.7226 18.4903 17.6065L19.0079 16.2247L19.2171 15.665C19.363 15.2745 19.8986 15.2613 20.066 15.644L20.1028 15.7282L20.5756 16.8121L22.4496 21.0994Z" fill="#828292"/>
<path d="M2.1088 3.45205C1.92117 3.07933 2.26734 2.66279 2.65742 2.79192L7.02605 4.23803L8.1315 4.60403L8.21759 4.63251C8.60765 4.76157 8.65228 5.30737 8.28832 5.49757L7.76529 5.77089L6.47721 6.4439C6.36895 6.50046 6.28727 6.59871 6.25011 6.71706L5.80775 8.12591L5.62903 8.6966C5.50438 9.09464 4.97029 9.13796 4.78259 8.76526L4.74128 8.68323L4.21081 7.62761L2.1088 3.45205Z" fill="#828292"/>
</svg>
