<svg width="20" height="20" viewBox="0 0 20 20" fill="none" xmlns="http://www.w3.org/2000/svg">
<mask id="mask0_2550_23664" style="mask-type:alpha" maskUnits="userSpaceOnUse" x="0" y="0" width="20" height="20">
<path d="M9.99999 14C9.41665 14 8.83332 13.775 8.39165 13.3333L2.95832 7.9C2.71665 7.65833 2.71665 7.25834 2.95832 7.01667C3.19999 6.775 3.59999 6.775 3.84165 7.01667L9.27499 12.45C9.67499 12.85 10.325 12.85 10.725 12.45L16.1583 7.01667C16.4 6.775 16.8 6.775 17.0417 7.01667C17.2833 7.25834 17.2833 7.65833 17.0417 7.9L11.6083 13.3333C11.1667 13.775 10.5833 14 9.99999 14Z" fill="#292D32"/>
<path fill-rule="evenodd" clip-rule="evenodd" d="M10 14.3333C9.33132 14.3333 8.66228 14.0753 8.15597 13.569L2.72264 8.1357C2.3508 7.76386 2.3508 7.15281 2.72264 6.78096C3.09448 6.40912 3.70553 6.40912 4.07738 6.78096L9.51071 12.2143C9.78053 12.4841 10.2195 12.4841 10.4893 12.2143L15.9226 6.78096C16.2945 6.40912 16.9055 6.40912 17.2774 6.78096C17.6492 7.15281 17.6492 7.76386 17.2774 8.1357L11.844 13.569C11.3377 14.0753 10.6687 14.3333 10 14.3333ZM8.39167 13.3333C8.83334 13.775 9.41667 14 10 14C10.5833 14 11.1667 13.775 11.6083 13.3333L17.0417 7.9C17.2833 7.65833 17.2833 7.25833 17.0417 7.01667C16.8 6.775 16.4 6.775 16.1583 7.01667L10.725 12.45C10.325 12.85 9.67501 12.85 9.27501 12.45L3.84167 7.01667C3.60001 6.775 3.20001 6.775 2.95834 7.01667C2.71667 7.25833 2.71667 7.65833 2.95834 7.9L8.39167 13.3333Z" fill="#292D32"/>
</mask>
<g mask="url(#mask0_2550_23664)">
<rect width="20" height="20" fill="#7B7B7B"/>
</g>
</svg>
