<svg width="22" height="22" viewBox="0 0 22 22" fill="none" xmlns="http://www.w3.org/2000/svg">
<mask id="mask0_2825_25260" style="mask-type:alpha" maskUnits="userSpaceOnUse" x="0" y="0" width="22" height="22">
<path d="M3.1625 7.79168V14.2083C3.1625 15.9958 4.62 17.4625 6.41667 17.4625H14.6483C16.1333 17.4625 17.38 16.4633 17.7742 15.1067C17.7833 15.0608 17.7925 15.015 17.8108 14.9783C17.8567 14.8592 17.9392 14.7492 18.0492 14.685C18.1592 14.6025 18.2875 14.5567 18.4342 14.5567C18.5625 14.5567 18.6817 14.5933 18.7733 14.6575C18.9658 14.7767 19.0942 14.9875 19.0942 15.2258C19.0942 15.2625 19.0942 15.2992 19.085 15.3358C19.0758 15.3633 19.0758 15.4 19.0667 15.4275C18.5258 17.3708 16.7475 18.7917 14.6483 18.7917H6.41667C3.88667 18.7917 1.83333 16.7383 1.83333 14.2083V7.79168C1.83333 5.29834 3.33667 3.55668 5.67417 3.26334C5.9125 3.22668 6.16 3.20834 6.41667 3.20834H14.6483C14.905 3.20834 15.1525 3.22668 15.3908 3.26334C17.3433 3.50168 18.7183 4.76668 19.1125 6.62751C19.1308 6.69168 19.1308 6.71918 19.1308 6.74668V6.80168C19.1308 7.02168 19.0208 7.21418 18.8558 7.34251C18.7458 7.41584 18.6083 7.46168 18.4617 7.46168C18.2967 7.46168 18.15 7.40668 18.0308 7.30584C17.93 7.22334 17.8567 7.11334 17.82 6.98501C17.8108 6.94834 17.8017 6.91168 17.7925 6.85668C17.6825 6.32501 17.4625 5.89418 17.1692 5.56418C16.7383 5.05084 16.0967 4.68418 15.2167 4.57418H15.18C15.015 4.54668 14.8408 4.53751 14.6483 4.53751H6.41667C6.22417 4.53751 6.05 4.54668 5.87583 4.57418H5.83917C4.96833 4.68418 4.32667 5.05084 3.88667 5.56418C3.45583 6.06834 3.1625 6.81084 3.1625 7.79168Z" fill="#292D32"/>
<path fill-rule="evenodd" clip-rule="evenodd" d="M18.6082 8.45905H18.5991H16.6832C15.9957 8.45905 15.3541 8.73405 14.8957 9.20155C14.3732 9.71488 14.0707 10.439 14.1441 11.2274C14.2632 12.6115 15.5007 13.5465 16.7841 13.5465H18.6082C19.4699 13.519 20.1666 12.8224 20.1666 11.9515V10.054C20.1666 9.18321 19.4699 8.48655 18.6082 8.45905ZM18.9474 12.034C18.9474 12.1807 18.8466 12.309 18.6816 12.3182H16.7566C16.0049 12.3182 15.3907 11.7682 15.3357 11.1265C15.2991 10.7232 15.4457 10.3474 15.7116 10.0907V10.0815C15.9407 9.84321 16.2616 9.70571 16.6191 9.70571H18.6632C18.8374 9.71488 18.9474 9.85238 18.9474 9.99905V12.034Z" fill="#292D32"/>
</mask>
<g mask="url(#mask0_2825_25260)">
<rect width="22" height="22" fill="#828292"/>
</g>
</svg>
