<svg width="25" height="24" viewBox="0 0 25 24" fill="none" xmlns="http://www.w3.org/2000/svg">
<mask id="mask0_2115_31602" style="mask-type:alpha" maskUnits="userSpaceOnUse" x="0" y="0" width="25" height="24">
<path d="M21.72 16.08C21.48 18.75 19.55 20.5 16.75 20.5H7.75C4.99 20.5 2.75 18.26 2.75 15.5V8.5C2.75 5.78 4.39 3.88 6.94 3.56C7.2 3.52 7.47 3.5 7.75 3.5H16.75C17.01 3.5 17.26 3.51 17.5 3.55C19.89 3.83 21.51 5.5 21.72 7.92C21.75 8.21 21.51 8.45 21.22 8.45H19.67C18.71 8.45 17.82 8.82 17.18 9.48C16.42 10.22 16.04 11.26 16.13 12.3C16.29 14.12 17.89 15.55 19.79 15.55H21.22C21.51 15.55 21.75 15.79 21.72 16.08Z" fill="#292D32"/>
<path d="M22.75 10.97V13.03C22.75 13.58 22.31 14.03 21.75 14.05H19.79C18.71 14.05 17.72 13.26 17.63 12.18C17.57 11.55 17.81 10.96 18.23 10.55C18.6 10.17 19.11 9.95001 19.67 9.95001H21.75C22.31 9.97001 22.75 10.42 22.75 10.97Z" fill="#292D32"/>
</mask>
<g mask="url(#mask0_2115_31602)">
<rect x="0.75" width="24" height="24" fill="#8480F7"/>
</g>
</svg>
