<svg width="25" height="24" viewBox="0 0 25 24" fill="none" xmlns="http://www.w3.org/2000/svg">
<mask id="mask0_1992_27414" style="mask-type:alpha" maskUnits="userSpaceOnUse" x="0" y="0" width="25" height="24">
<path d="M4.2 8.5V15.5C4.2 17.45 5.79 19.05 7.75 19.05H16.73C18.35 19.05 19.71 17.96 20.14 16.48C20.15 16.43 20.16 16.38 20.18 16.34C20.23 16.21 20.32 16.09 20.44 16.02C20.56 15.93 20.7 15.88 20.86 15.88C21 15.88 21.13 15.92 21.23 15.99C21.44 16.12 21.58 16.35 21.58 16.61C21.58 16.65 21.58 16.69 21.57 16.73C21.56 16.76 21.56 16.8 21.55 16.83C20.96 18.95 19.02 20.5 16.73 20.5H7.75C4.99 20.5 2.75 18.26 2.75 15.5V8.5C2.75 5.78 4.39 3.88 6.94 3.56C7.2 3.52 7.47 3.5 7.75 3.5H16.73C17.01 3.5 17.28 3.52 17.54 3.56C19.67 3.82 21.17 5.2 21.6 7.23C21.62 7.3 21.62 7.33 21.62 7.36V7.42C21.62 7.66 21.5 7.87 21.32 8.01C21.2 8.09 21.05 8.14 20.89 8.14C20.71 8.14 20.55 8.08 20.42 7.97C20.31 7.88 20.23 7.76 20.19 7.62C20.18 7.58 20.17 7.54 20.16 7.48C20.04 6.9 19.8 6.43 19.48 6.07C19.01 5.51 18.31 5.11 17.35 4.99H17.31C17.13 4.96 16.94 4.95 16.73 4.95H7.75C7.54 4.95 7.35 4.96 7.16 4.99H7.12C6.17 5.11 5.47 5.51 4.99 6.07C4.52 6.62 4.2 7.43 4.2 8.5Z" fill="#292D32"/>
<path fill-rule="evenodd" clip-rule="evenodd" d="M21.0498 9.22803H21.0398H18.9498C18.1998 9.22803 17.4998 9.52803 16.9998 10.038C16.4298 10.598 16.0998 11.388 16.1798 12.248C16.3098 13.758 17.6598 14.778 19.0598 14.778H21.0498C21.9898 14.748 22.7498 13.988 22.7498 13.038V10.968C22.7498 10.018 21.9898 9.25803 21.0498 9.22803ZM21.4198 13.128C21.4198 13.288 21.3098 13.428 21.1298 13.438H19.0298C18.2098 13.438 17.5398 12.838 17.4798 12.138C17.4398 11.698 17.5998 11.288 17.8898 11.008V10.998C18.1398 10.738 18.4898 10.588 18.8798 10.588H21.1098C21.2998 10.598 21.4198 10.748 21.4198 10.908V13.128Z" fill="#292D32"/>
</mask>
<g mask="url(#mask0_1992_27414)">
<rect x="0.75" width="24" height="24" fill="#828292"/>
</g>
</svg>
