<svg width="167" height="101" viewBox="0 0 167 101" fill="none" xmlns="http://www.w3.org/2000/svg">
<g clip-path="url(#clip0_1947_32967)">
<path fill-rule="evenodd" clip-rule="evenodd" d="M52.5245 90.5807C76.6614 82.4228 93.7539 76.6459 117.929 68.4749C120.701 67.5381 122.195 64.4494 121.263 61.6642C114.789 42.3217 108.328 23.0181 101.855 3.67532C100.922 0.890109 97.8744 -0.663327 95.1025 0.273464C70.4651 8.6006 52.911 14.5336 28.3119 22.8477C25.5017 23.7975 24.0074 26.8862 24.9396 29.6714C32.5528 52.4182 40.1532 75.1264 47.7663 97.8728C46.8211 95.0488 48.3284 91.9989 51.1386 91.0491C51.6005 90.893 52.0624 90.7368 52.5245 90.5807Z" fill="#C5C5CE"/>
<path fill-rule="evenodd" clip-rule="evenodd" d="M61.758 2.52138C76.9384 -2.58417 93.373 5.57772 98.4785 20.7578C103.584 35.9382 95.4222 52.3728 80.2421 57.4786C65.0618 62.5842 48.6272 54.4223 43.5214 39.2419C38.4158 24.0618 46.5777 7.62693 61.758 2.52138Z" fill="#EBEAF5"/>
<path fill-rule="evenodd" clip-rule="evenodd" d="M63.0108 7.25886C75.3112 3.03389 88.6304 9.78915 92.7674 22.3512C96.9043 34.9133 90.2898 48.5162 77.9894 52.7411C65.689 56.9661 52.3696 50.2108 48.2326 37.6485C44.0957 25.0864 50.7105 11.4838 63.0108 7.25886Z" fill="#DCDBE5"/>
<path fill-rule="evenodd" clip-rule="evenodd" d="M65.0777 6.6936C76.7457 3.7648 88.881 10.3417 92.7785 22.075C96.6759 33.8083 90.9438 46.5074 79.8993 51.3133C68.2642 54.2308 56.118 47.6202 52.2206 35.8869C48.3231 24.1539 54.0664 11.4882 65.078 6.6936H65.0777Z" fill="#E1E0EB"/>
<path fill-rule="evenodd" clip-rule="evenodd" d="M32.9347 32.0504L105.384 7.56347C108.156 6.62668 111.229 8.12858 112.175 10.9526L131.583 68.9415C132.515 71.7267 130.983 74.8284 128.211 75.7652L54.3757 100.72C51.5654 101.67 48.5175 100.117 47.5853 97.3317L24.7583 29.1297C25.6905 31.9152 28.7385 33.4683 31.5487 32.5185L32.9347 32.0501V32.0504Z" fill="#CBCAD3"/>
<path fill-rule="evenodd" clip-rule="evenodd" d="M121.963 40.1984L129.719 63.3704C122.318 48.0444 109.153 52.7526 109.153 52.7526L108.645 45.2164L121.963 40.1984Z" fill="#C5C5CE"/>
<path d="M83 80.1081C80.9213 80.8105 78.881 81.5002 76.8407 82.1899C76.2247 82.3982 75.8925 83.0703 76.0998 83.6891C76.307 84.3079 76.9756 84.6416 77.5916 84.4334C79.6316 83.744 81.6723 83.0543 83.7509 82.3515C84.3669 82.1432 84.6991 81.4714 84.4918 80.8523C84.2846 80.2333 83.6157 79.8998 83 80.1078V80.1081Z" fill="#C5C5CE"/>
<path d="M70.9119 84.1936C68.8716 84.8833 66.8313 85.5727 64.7527 86.2755C64.1369 86.4837 63.8048 87.1559 64.0117 87.7746C64.219 88.3934 64.8875 88.7272 65.5036 88.5189C67.5825 87.8162 69.6225 87.1268 71.6628 86.437C72.2789 86.2288 72.6111 85.5569 72.4038 84.9379C72.1965 84.3191 71.528 83.985 70.9119 84.1933V84.1936Z" fill="#C5C5CE"/>
<path d="M41.8497 37.4341L35.6905 39.5159C35.0744 39.7242 34.7552 40.4348 34.9625 41.0539C35.1697 41.6727 35.8383 42.0068 36.4543 41.7985L42.6136 39.7166C43.2297 39.5084 43.5618 38.8362 43.3546 38.2175C43.1473 37.5987 42.4658 37.2261 41.8497 37.4344V37.4341Z" fill="#C5C5CE"/>
<path d="M58.8627 88.2661L52.7034 90.3479C52.0873 90.5562 51.7555 91.2283 51.9624 91.8471C52.1697 92.4658 52.8382 92.7996 53.4543 92.5914L59.6136 90.5095C60.2296 90.3012 60.5618 89.6294 60.3545 89.0103C60.1472 88.3916 59.4784 88.0578 58.8627 88.2657V88.2661Z" fill="#C5C5CE"/>
<path d="M96.739 21.4228L102.898 19.341C103.514 19.1327 103.846 18.4606 103.639 17.8418C103.432 17.2227 102.75 16.8504 102.134 17.0584L95.9751 19.1403C95.3591 19.3486 95.0399 20.0592 95.2472 20.6783C95.4544 21.297 96.123 21.6311 96.739 21.4228Z" fill="#C5C5CE"/>
<path d="M53.899 33.3616C51.8587 34.0513 49.8184 34.7407 47.7397 35.4435C47.124 35.6517 46.8045 36.3624 47.0118 36.9814C47.219 37.6005 47.8879 37.934 48.5036 37.726C50.5826 37.0233 52.6226 36.3339 54.6629 35.6442C55.2789 35.4359 55.6108 34.7638 55.4038 34.145C55.1969 33.5262 54.5151 33.1536 53.899 33.3616Z" fill="#C5C5CE"/>
<path d="M90.0851 21.1312C88.0447 21.8209 85.9661 22.5233 83.9258 23.213C83.31 23.4213 82.9905 24.1319 83.1978 24.751C83.4051 25.3698 84.0739 25.7036 84.6897 25.4956C86.73 24.8059 88.8086 24.1034 90.8489 23.4137C91.4647 23.2055 91.7968 22.5333 91.5899 21.9146C91.3826 21.2955 90.7008 20.9232 90.0851 21.1312Z" fill="#C5C5CE"/>
<path d="M107.098 71.9631C105.058 72.6528 102.98 73.3553 100.939 74.045C100.323 74.2533 99.9913 74.9254 100.198 75.5442C100.405 76.1629 101.074 76.4967 101.69 76.2884L107.849 74.2066C108.465 73.9983 108.798 73.3265 108.59 72.7074C108.383 72.0886 107.714 71.7549 107.098 71.9628V71.9631Z" fill="#C5C5CE"/>
<path d="M65.9865 29.2761C63.9078 29.9785 61.8675 30.6682 59.8272 31.3579C59.2111 31.5662 58.8919 32.2769 59.0992 32.8959C59.3065 33.5147 59.9753 33.8485 60.5911 33.6405C62.6311 32.9511 64.6717 32.2614 66.7503 31.5586C67.3664 31.3504 67.6985 30.6782 67.4913 30.0595C67.284 29.4404 66.6025 29.0681 65.9865 29.2764V29.2761Z" fill="#C5C5CE"/>
<path d="M119.148 67.8907L112.989 69.9725C112.372 70.1808 112.041 70.8529 112.248 71.4717C112.455 72.0905 113.123 72.4243 113.739 72.216L119.899 70.1341C120.514 69.9259 120.847 69.254 120.64 68.635C120.432 68.0162 119.764 67.6824 119.148 67.8904V67.8907Z" fill="#C5C5CE"/>
<path d="M78.036 25.2036C75.9956 25.8933 73.917 26.5958 71.8767 27.2855C71.2609 27.4938 70.9418 28.2044 71.149 28.8235C71.3563 29.4422 72.0248 29.7763 72.6409 29.568C74.6812 28.8783 76.7598 28.1759 78.8001 27.4862C79.4162 27.2779 79.748 26.6058 79.5411 25.987C79.3338 25.3679 78.6523 24.9956 78.0363 25.2036H78.036Z" fill="#C5C5CE"/>
<path d="M95.049 76.0356C93.0087 76.7253 90.93 77.4278 88.8897 78.1175C88.274 78.3257 87.9418 78.9976 88.1491 79.6166C88.3563 80.2357 89.0249 80.5692 89.6409 80.3612C91.6812 79.6715 93.7599 78.9691 95.8002 78.2794C96.4162 78.0711 96.7484 77.3993 96.5411 76.7802C96.3339 76.1611 95.6653 75.8273 95.0493 76.0356H95.049Z" fill="#C5C5CE"/>
<path d="M118.232 56.7031C117.616 56.9114 117.284 57.5835 117.491 58.2023C118.177 60.2526 118.876 62.3415 119.563 64.3921C119.77 65.0109 120.439 65.3446 121.054 65.1367C121.67 64.9284 122.041 64.2435 121.834 63.6245C121.147 61.5741 120.448 59.4853 119.762 57.4347C119.555 56.8159 118.848 56.4952 118.232 56.7031Z" fill="#C5C5CE"/>
<path d="M114.18 44.5948C113.564 44.8031 113.231 45.475 113.439 46.094C114.125 48.1443 114.811 50.1947 115.51 52.2835C115.718 52.9023 116.386 53.2361 117.002 53.0281C117.618 52.8198 117.989 52.135 117.781 51.5159C117.082 49.4271 116.396 47.3767 115.71 45.3264C115.502 44.7076 114.795 44.3869 114.18 44.5948Z" fill="#C5C5CE"/>
<path d="M110.114 32.4475C109.498 32.6558 109.179 33.3664 109.386 33.9855C110.072 36.0358 110.758 38.0862 111.457 40.1753C111.665 40.7941 112.334 41.1279 112.949 40.9196C113.565 40.7113 113.936 40.0265 113.729 39.4074C113.029 37.3182 112.343 35.2682 111.657 33.2176C111.45 32.5988 110.73 32.2393 110.114 32.4475Z" fill="#C5C5CE"/>
<path d="M106.061 20.3393C105.445 20.5475 105.113 21.2197 105.32 21.8387C106.019 23.9276 106.705 25.9779 107.392 28.0282C107.599 28.647 108.268 28.9808 108.883 28.7728C109.499 28.5648 109.87 27.8797 109.663 27.2606C108.976 25.2103 108.29 23.1599 107.591 21.0711C107.384 20.452 106.677 20.1313 106.061 20.3396L106.061 20.3393Z" fill="#C5C5CE"/>
<path fill-rule="evenodd" clip-rule="evenodd" d="M121.619 31.4871L104.527 37.264C100.33 38.6822 98.0569 43.2831 99.4679 47.4999C100.879 51.7167 105.458 54.0016 109.654 52.5834L126.746 46.8065C127.015 46.7156 127.13 46.4182 127.04 46.1474L122.249 31.834C122.158 31.5632 121.888 31.3962 121.619 31.4871Z" fill="#D1D0DA"/>
<path fill-rule="evenodd" clip-rule="evenodd" d="M105.844 40.0483C108.501 39.1506 111.33 40.5624 112.21 43.193C113.09 45.8236 111.698 48.7055 109.042 49.6032C106.424 50.4879 103.582 49.0372 102.702 46.4066C101.821 43.776 103.226 40.9329 105.844 40.048L105.844 40.0483Z" fill="#EBEAF5"/>
<path d="M127.431 41.9797C127.427 41.9797 127.423 41.9797 127.42 41.9797C126.51 41.9688 125.575 41.9631 124.639 41.9625C124.148 41.9622 123.75 41.5614 123.75 41.0675C123.75 40.5736 124.149 40.1738 124.64 40.1738H124.641C125.582 40.1744 126.525 40.1801 127.441 40.191C127.933 40.1968 128.326 40.6018 128.321 41.096C128.315 41.5862 127.918 41.9797 127.431 41.9797H127.431Z" fill="#B3B3BC"/>
<path d="M39.6376 81.6633C39.6351 81.6633 39.6324 81.6633 39.6297 81.6633C37.6983 81.6469 35.791 81.6075 33.9604 81.5466C33.4692 81.5302 33.084 81.1167 33.1003 80.6231C33.1166 80.1296 33.5272 79.7418 34.0192 79.7588C35.8354 79.8191 37.7282 79.8582 39.6448 79.8746C40.1362 79.8788 40.5315 80.2827 40.5272 80.7765C40.523 81.268 40.1254 81.6633 39.6376 81.6633ZM45.2852 81.6499C44.7989 81.6499 44.4018 81.257 44.3955 80.7671C44.3892 80.2733 44.7826 79.8676 45.274 79.8616C47.1098 79.8379 49.0041 79.7952 50.9035 79.7345C51.3956 79.7197 51.8056 80.1062 51.8213 80.6001C51.8369 81.0939 51.4514 81.5065 50.9599 81.5223C49.049 81.5833 47.1436 81.6263 45.2966 81.6499C45.2927 81.6499 45.2888 81.6499 45.2852 81.6499ZM56.5744 81.2928C56.1028 81.2928 55.7094 80.9208 55.6862 80.4421C55.662 79.9489 56.0407 79.5293 56.5315 79.505C58.3778 79.4141 60.27 79.3052 62.1559 79.1819C62.6461 79.1491 63.0697 79.5232 63.102 80.0162C63.134 80.5091 62.7623 80.9348 62.2717 80.9666C60.3765 81.0906 58.4744 81.2 56.6187 81.2913C56.6039 81.2919 56.5891 81.2925 56.5744 81.2925V81.2928ZM28.3484 81.2783C28.3297 81.2783 28.3107 81.2777 28.2917 81.2764C26.3286 81.1527 24.4231 80.9981 22.6284 80.8174C22.1393 80.7683 21.7824 80.3299 21.8316 79.8382C21.8805 79.3468 22.3167 78.9881 22.8061 79.0375C24.5788 79.2161 26.4619 79.3689 28.4033 79.4911C28.8938 79.522 29.2664 79.9467 29.2356 80.4397C29.2061 80.9136 28.8142 81.278 28.3484 81.278V81.2783ZM67.8457 80.557C67.3866 80.557 66.9971 80.2023 66.9597 79.7342C66.9205 79.2419 67.2855 78.8108 67.7755 78.7711C69.6272 78.6216 71.5161 78.4552 73.389 78.2769C73.8786 78.2305 74.3127 78.5913 74.3589 79.0827C74.4054 79.5745 74.0463 80.011 73.557 80.0574C71.6754 80.2366 69.7784 80.4036 67.9178 80.554C67.8937 80.5558 67.8696 80.557 67.8454 80.557H67.8457ZM17.1132 80.1211C17.0688 80.1211 17.0239 80.1177 16.9786 80.1108C14.9486 79.8012 13.0585 79.4432 11.3612 79.0475C10.8824 78.936 10.5843 78.4552 10.6954 77.974C10.8064 77.4929 11.2846 77.1934 11.7636 77.3049C13.4166 77.6906 15.2608 78.0395 17.2459 78.3421C17.732 78.4164 18.0659 78.8723 17.9923 79.3604C17.9253 79.8033 17.5461 80.1208 17.1135 80.1208L17.1132 80.1211ZM79.0906 79.4865C78.6423 79.4865 78.2567 79.147 78.2069 78.6889C78.1538 78.1978 78.5068 77.7564 78.9952 77.703C80.8473 77.5002 82.7311 77.281 84.5946 77.0512C85.0827 76.9915 85.5265 77.3398 85.5862 77.83C85.646 78.3202 85.299 78.7665 84.8112 78.8265C82.9398 79.0573 81.0476 79.2777 79.1877 79.4811C79.1551 79.4847 79.1226 79.4865 79.0903 79.4865H79.0906ZM90.3053 78.1041C89.8672 78.1041 89.4856 77.7791 89.4246 77.3307C89.3582 76.8414 89.6992 76.3906 90.1861 76.3236C92.0493 76.068 93.927 75.7973 95.7664 75.5187C96.2524 75.445 96.7059 75.7815 96.7789 76.2699C96.8519 76.7583 96.5173 77.214 96.0313 77.2874C94.1838 77.5669 92.2979 77.8391 90.4265 78.0956C90.3858 78.1011 90.3451 78.1038 90.3049 78.1038L90.3053 78.1041ZM6.15707 77.4402C6.04876 77.4402 5.93864 77.4201 5.83185 77.378C3.52423 76.467 1.8046 75.4089 0.720336 74.2338C0.386065 73.8716 0.407485 73.3058 0.768002 72.9699C1.12852 72.634 1.69147 72.6555 2.02574 73.0178C2.92689 73.9943 4.42628 74.9014 6.48289 75.7133C6.94025 75.894 7.16561 76.413 6.9858 76.8729C6.84793 77.2252 6.51245 77.4405 6.15707 77.4405V77.4402ZM101.479 76.4118C101.051 76.4118 100.674 76.1011 100.602 75.6633C100.522 75.1761 100.85 74.7156 101.335 74.6349C103.196 74.3257 105.065 74.001 106.889 73.6696C107.373 73.5817 107.836 73.9046 107.923 74.3906C108.011 74.8766 107.689 75.3419 107.206 75.4298C105.373 75.7627 103.495 76.0889 101.625 76.3997C101.576 76.4079 101.527 76.4118 101.479 76.4118ZM112.599 74.3909C112.182 74.3909 111.81 74.0956 111.726 73.6693C111.631 73.1849 111.945 72.7144 112.427 72.6189C114.287 72.2505 116.144 71.8661 117.947 71.4771C118.427 71.3731 118.901 71.6809 119.004 72.1635C119.107 72.6465 118.801 73.1221 118.321 73.2258C116.508 73.6172 114.642 74.0034 112.772 74.3736C112.714 74.3851 112.656 74.3906 112.599 74.3906L112.599 74.3909ZM123.646 72.0025C123.242 72.0025 122.876 71.7245 122.78 71.3122C122.668 70.8314 122.965 70.3499 123.444 70.2375C125.301 69.8 127.141 69.3465 128.914 68.8899C129.39 68.7674 129.875 69.0554 129.997 69.5341C130.119 70.0125 129.832 70.5 129.356 70.6225C127.571 71.0824 125.719 71.5387 123.85 71.9792C123.782 71.9952 123.713 72.0031 123.646 72.0031L123.646 72.0025ZM0.889281 69.3392C0.733308 69.3392 0.575525 69.2979 0.432223 69.2115C0.0107642 68.9575 -0.125901 68.4081 0.126914 67.9846C0.947206 66.611 2.38234 65.1964 4.39309 63.7806C4.79554 63.4971 5.35065 63.5954 5.63273 63.9998C5.91481 64.4042 5.81706 64.962 5.41461 65.2455C3.60961 66.5167 2.34433 67.7479 1.65316 68.905C1.48632 69.1846 1.19157 69.3395 0.889281 69.3395V69.3392ZM134.591 69.1755C134.202 69.1755 133.845 68.9178 133.735 68.5237C133.601 68.0483 133.876 67.5541 134.349 67.4201C136.204 66.8941 138.018 66.3527 139.741 65.8106C140.21 65.663 140.71 65.9255 140.857 66.3969C141.004 66.8684 140.742 67.3701 140.273 67.5177C138.534 68.065 136.704 68.6113 134.833 69.1418C134.752 69.1649 134.671 69.1758 134.59 69.1758L134.591 69.1755ZM145.37 65.7697C145.003 65.7697 144.66 65.5399 144.531 65.1724C144.367 64.7065 144.61 64.1959 145.074 64.0316C146.927 63.3749 148.692 62.7043 150.319 62.0386C150.774 61.8521 151.293 62.0722 151.479 62.5297C151.664 62.9872 151.445 63.5089 150.99 63.6954C149.337 64.3718 147.546 65.0527 145.666 65.7187C145.568 65.7533 145.468 65.77 145.37 65.77V65.7697ZM9.76858 62.5315C9.44426 62.5315 9.13141 62.3527 8.97453 62.0422C8.75189 61.602 8.92657 61.0636 9.36462 60.8395C10.9198 60.0452 12.6681 59.2409 14.5603 58.4491C15.014 58.2593 15.5351 58.4748 15.7239 58.9308C15.9128 59.3868 15.6983 59.9103 15.2445 60.1001C13.3934 60.8747 11.6864 61.6599 10.171 62.4339C10.0419 62.5 9.90404 62.5312 9.76858 62.5312V62.5315ZM155.815 61.4501C155.486 61.4501 155.17 61.2667 155.016 60.9505C154.798 60.5073 154.98 59.9713 155.421 59.753C157.27 58.8383 158.891 57.9194 160.24 57.0224C160.65 56.7498 161.202 56.8626 161.474 57.2746C161.745 57.6866 161.633 58.2414 161.223 58.5139C159.811 59.4529 158.124 60.4097 156.207 61.3577C156.081 61.4201 155.947 61.4498 155.815 61.4498V61.4501ZM20.172 58.1265C19.807 58.1265 19.4649 57.8991 19.3342 57.5341C19.1683 57.0693 19.4084 56.557 19.8712 56.3902C21.5685 55.7778 23.3796 55.1636 25.254 54.5649C25.7225 54.4151 26.2227 54.6755 26.3717 55.146C26.5207 55.6169 26.2616 56.1198 25.7934 56.2693C23.9398 56.8617 22.1496 57.4686 20.4728 58.0737C20.3735 58.1095 20.2719 58.1265 20.172 58.1265ZM164.948 54.9402C164.763 54.9402 164.576 54.8823 164.416 54.7625C164.023 54.4669 163.941 53.9067 164.236 53.5108C164.889 52.6316 165.22 51.7963 165.22 51.0284C165.22 50.9187 165.213 50.808 165.2 50.6998C165.142 50.2347 164.967 49.793 164.662 49.3492C164.383 48.9426 164.485 48.3854 164.889 48.1053C165.294 47.8248 165.848 47.9273 166.127 48.3338C166.591 49.0108 166.874 49.7327 166.966 50.4797C166.988 50.6607 167 50.8453 167 51.0284C167 52.1908 166.549 53.3858 165.662 54.5809C165.487 54.8162 165.219 54.9402 164.948 54.9402H164.948ZM160.848 46.5C160.73 46.5 160.61 46.4763 160.496 46.4266C159.056 45.8027 157.298 45.23 155.268 44.7249C154.791 44.6061 154.5 44.1213 154.618 43.642C154.736 43.1624 155.219 42.8701 155.696 42.989C157.82 43.5177 159.673 44.1219 161.201 44.7846C161.652 44.9805 161.86 45.5068 161.666 45.9603C161.521 46.2984 161.193 46.5006 160.848 46.5006L160.848 46.5ZM149.945 43.6381C149.898 43.6381 149.851 43.6344 149.803 43.6265C148.081 43.3482 146.213 43.1005 144.251 42.8908C143.762 42.8386 143.408 42.3978 143.46 41.9067C143.512 41.4155 143.951 41.0596 144.439 41.1121C146.433 41.3255 148.333 41.5774 150.086 41.8606C150.571 41.9391 150.901 42.3978 150.823 42.8856C150.753 43.3252 150.375 43.6381 149.945 43.6381ZM138.718 42.409C138.698 42.409 138.678 42.4084 138.658 42.4069C136.862 42.285 134.974 42.1871 133.044 42.1156C132.553 42.0974 132.169 41.6823 132.187 41.1888C132.206 40.6952 132.619 40.3099 133.11 40.3281C135.057 40.4002 136.964 40.4994 138.778 40.6225C139.268 40.6558 139.639 41.0821 139.606 41.575C139.574 42.0473 139.183 42.4093 138.719 42.4093L138.718 42.409Z" fill="#B3B3BC"/>
<path d="M30.9762 54.6606C30.5889 54.6606 30.2326 54.4048 30.121 54.0119C29.9858 53.5368 30.2594 53.042 30.7322 52.9062C31.6122 52.6534 32.5203 52.399 33.4311 52.1498C33.9053 52.0201 34.3944 52.3011 34.5235 52.7777C34.6526 53.2543 34.373 53.7457 33.8987 53.8754C32.9951 54.1225 32.0946 54.3751 31.2215 54.6258C31.1398 54.6491 31.0574 54.6603 30.9765 54.6603L30.9762 54.6606Z" fill="#B3B3BC"/>
<path d="M19.0054 88.0992C23.979 88.0992 28.0108 84.0475 28.0108 79.0496C28.0108 74.0516 23.979 70 19.0054 70C14.0319 70 10 74.0516 10 79.0496C10 84.0475 14.0319 88.0992 19.0054 88.0992Z" fill="#B3B3BC"/>
<path d="M127.056 19.1942C129.488 19.1942 131.46 17.2125 131.46 14.7679C131.46 12.3234 129.488 10.3417 127.056 10.3417C124.623 10.3417 122.651 12.3234 122.651 14.7679C122.651 17.2125 124.623 19.1942 127.056 19.1942Z" fill="#B3B3BC"/>
<path d="M80.9664 46.9741V46.9745L84.949 51.0461C85.2162 51.3193 85.3645 51.688 85.3613 52.0708L85.3184 57.1822C85.3152 57.5654 85.1607 57.9316 84.8886 58.2001L80.8375 62.2022L79.0094 64.0094L77.6734 65.3298L76.3795 66.6068L72.5056 70.4323C71.5922 71.3344 70.0495 70.6766 70.0606 69.3896L70.1076 63.9304L70.1226 62.1093L70.139 60.2249L70.1604 57.6482L70.2082 51.939C70.2114 51.5557 70.3661 51.1893 70.6382 50.9208L74.2652 47.3395C74.5371 47.0712 74.9037 46.9222 75.2849 46.9254L80.9657 46.9738C80.9657 46.9738 80.9664 46.9743 80.9662 46.9745L80.9664 46.9741ZM71.9561 52.0836L71.8878 60.2402L71.8701 62.1253L71.856 63.9443L71.8456 65.1622C71.8345 66.4492 73.3774 67.1071 74.2908 66.2048L75.1537 65.3525L77.7838 62.7558L83.1465 57.4574C83.4183 57.1889 83.5728 56.8225 83.576 56.4395L83.6063 52.7829C83.6095 52.3999 83.4612 52.0314 83.194 51.7582L80.6455 49.1527C80.3782 48.8793 80.0136 48.724 79.6322 48.7208L75.9937 48.6902C75.6128 48.687 75.2462 48.836 74.9743 49.1043L71.9565 52.0836H71.9561Z" fill="#B3B3BC"/>
<path d="M74.5902 61.8755V61.875L70.6077 57.8034C70.3404 57.5302 70.1921 57.1616 70.1954 56.7787L70.2383 51.6674C70.2415 51.2841 70.396 50.918 70.6681 50.6494L74.7193 46.6474L76.5475 44.8401L77.8835 43.5198L79.1771 42.2428L83.0509 38.4172C83.9645 37.5152 85.5071 38.1732 85.4958 39.46L85.4488 44.9192L85.434 46.7403L85.4177 48.6246L85.3962 51.2014L85.3485 56.9106C85.3452 57.2939 85.1905 57.6602 84.9184 57.9288L81.2914 61.5101C81.0196 61.7784 80.6529 61.9274 80.2718 61.9242L74.5909 61.8757C74.5909 61.8757 74.5904 61.8753 74.5904 61.875L74.5902 61.8755ZM83.6006 56.766L83.6688 48.6094L83.6866 46.7243L83.7007 44.9053L83.7113 43.6873C83.7223 42.4003 82.1795 41.7425 81.2661 42.6446L80.4032 43.4969L77.7731 46.0935L72.4104 51.3919C72.1386 51.6604 71.9841 52.0268 71.9808 52.4098L71.9506 56.0664C71.9474 56.4495 72.0957 56.8179 72.3629 57.0911L74.9114 59.6966C75.1787 59.97 75.5432 60.1253 75.9246 60.1285L79.5632 60.1591C79.9441 60.1624 80.3107 60.0134 80.5826 59.745L83.6004 56.7658L83.6006 56.766Z" fill="#B3B3BC"/>
<path d="M93.4771 60.9395C93.8299 61.3179 93.5511 61.9357 93.0355 61.9188L87.2618 61.7276L85.8007 61.6792L85.687 61.6755C85.1714 61.6583 84.9337 61.0236 85.3103 60.6693L85.8512 60.1602L87.1836 58.9064C87.2957 58.8009 87.3614 58.6552 87.3664 58.5011L87.4276 56.6668L87.4518 55.9239C87.4686 55.4057 88.1004 55.1668 88.453 55.5452L88.5307 55.6284L89.528 56.7006L93.4776 60.9397L93.4771 60.9395Z" fill="#B3B3BC"/>
<path d="M62.1798 48.6921C61.8071 48.3338 62.0516 47.7015 62.5672 47.6899L68.3428 47.5615L69.8043 47.5291L69.9182 47.5265C70.4338 47.5149 70.7061 48.1357 70.3496 48.5104L69.8372 49.0487L68.5757 50.3744C68.4696 50.4859 68.412 50.6351 68.4152 50.7892L68.4546 52.624L68.4712 53.3671C68.4828 53.8852 67.865 54.1589 67.4921 53.8007L67.41 53.7219L66.3555 52.7067L62.1798 48.6923V48.6921Z" fill="#B3B3BC"/>
<path d="M124.846 39.5935L125.803 42.4527L122.168 42.5079C122.168 42.5079 122.638 40.3863 122.78 40.1738C122.922 39.9612 124.846 39.5935 124.846 39.5935Z" fill="#D1D0DA"/>
<path d="M33.5175 55.2989L32.251 51.5144L34.8901 51.421C34.8901 51.421 35.765 52.9975 35.765 53.1188C35.765 53.24 33.5178 55.2989 33.5178 55.2989H33.5175Z" fill="#CBCAD3"/>
</g>
<defs>
<clipPath id="clip0_1947_32967">
<rect width="167" height="101" fill="white"/>
</clipPath>
</defs>
</svg>
