<svg width="57" height="56" viewBox="0 0 57 56" fill="none" xmlns="http://www.w3.org/2000/svg">
<rect x="4.5" y="4" width="48" height="48" rx="24" fill="#DDDBFD"/>
<rect x="4.5" y="4" width="48" height="48" rx="24" stroke="#EDECFE" stroke-width="8"/>
<mask id="mask0_2825_24988" style="mask-type:alpha" maskUnits="userSpaceOnUse" x="16" y="16" width="25" height="24">
<path d="M31.05 38.42C30.72 38.42 30.41 38.2 30.32 37.86C30.21 37.46 30.45 37.05 30.86 36.94C34.92 35.87 37.75 32.19 37.75 27.99C37.75 22.89 33.6 18.74 28.5 18.74C24.17 18.74 21.33 21.27 20 22.8H22.94C23.35 22.8 23.69 23.14 23.69 23.55C23.69 23.96 23.36 24.31 22.94 24.31H18.51C18.46 24.31 18.37 24.3 18.3 24.28C18.21 24.25 18.13 24.21 18.06 24.16C17.97 24.1 17.9 24.02 17.85 23.93C17.8 23.84 17.76 23.73 17.75 23.62C17.75 23.59 17.75 23.57 17.75 23.54V19C17.75 18.59 18.09 18.25 18.5 18.25C18.91 18.25 19.25 18.59 19.25 19V21.39C20.88 19.64 23.95 17.25 28.5 17.25C34.43 17.25 39.25 22.07 39.25 28C39.25 32.88 35.96 37.16 31.24 38.4C31.18 38.41 31.11 38.42 31.05 38.42Z" fill="#292D32"/>
<path d="M27.79 38.73C27.77 38.73 27.75 38.72 27.74 38.72C26.66 38.65 25.6 38.41 24.6 38.02C24.31 37.91 24.11 37.62 24.12 37.31C24.12 37.22 24.14 37.13 24.17 37.05C24.32 36.67 24.77 36.48 25.14 36.62C26.01 36.96 26.92 37.16 27.84 37.23C28.23 37.25 28.54 37.59 28.54 37.99L28.53 38.03C28.51 38.42 28.18 38.73 27.79 38.73ZM22.28 36.58C22.11 36.58 21.95 36.52 21.81 36.42C20.97 35.74 20.23 34.95 19.63 34.07C19.54 33.94 19.49 33.8 19.49 33.65C19.49 33.4 19.61 33.17 19.82 33.03C20.15 32.8 20.63 32.89 20.86 33.21C20.86 33.22 20.86 33.22 20.86 33.22C20.87 33.23 20.88 33.25 20.89 33.26C21.41 34.01 22.04 34.68 22.75 35.24C22.92 35.38 23.03 35.59 23.03 35.82C23.03 35.99 22.98 36.16 22.87 36.3C22.72 36.48 22.51 36.58 22.28 36.58ZM18.94 31.7C18.61 31.7 18.32 31.49 18.23 31.18C17.91 30.15 17.75 29.08 17.75 28V27.99C17.76 27.58 18.09 27.25 18.5 27.25C18.91 27.25 19.25 27.59 19.25 28C19.25 28.94 19.39 29.86 19.66 30.73C19.68 30.81 19.69 30.88 19.69 30.96C19.69 31.28 19.48 31.57 19.16 31.67C19.09 31.69 19.02 31.7 18.94 31.7Z" fill="#292D32"/>
</mask>
<g mask="url(#mask0_2825_24988)">
<rect x="16.5" y="16" width="24" height="24" fill="#8480F7"/>
</g>
</svg>
