<svg width="26" height="26" viewBox="0 0 26 26" fill="none" xmlns="http://www.w3.org/2000/svg">
<mask id="mask0_2016_33697" style="mask-type:alpha" maskUnits="userSpaceOnUse" x="0" y="0" width="26" height="26">
<path d="M15.1915 4.91022C15.1041 4.91022 15.0167 4.89847 14.9292 4.87496C14.5671 4.78092 14.2175 4.71039 13.8803 4.66337C12.8188 4.53406 11.7949 4.60459 10.8333 4.87496C10.4837 4.98076 10.2305 5.37577 9.99328 5.12892C9.75602 4.88206 9.68109 4.52941 9.81846 4.21202C10.3304 2.97773 11.5792 2.16663 13.0028 2.16663C14.4264 2.16663 15.6751 2.96597 16.1871 4.21202C16.312 4.52941 16.2495 4.88206 16.0123 5.12892C15.825 5.317 15.4412 4.91022 15.1915 4.91022Z" fill="#292D32"/>
<path d="M9.93761 22.5622C10.7465 23.3711 11.8558 23.8333 12.9998 23.8333C15.3918 23.8333 17.3332 21.892 17.3332 19.5H8.6665C8.6665 20.644 9.12873 21.7533 9.93761 22.5622Z" fill="#292D32"/>
<path d="M6.71219 20.5833C5.71133 20.5833 4.71048 20.2619 3.99876 19.6289C3.74298 19.3979 3.52057 19.1568 3.43161 18.9257C3.10911 18.1521 3.22032 17.2982 3.73186 16.5347L4.99961 14.6259C5.28875 14.1939 5.52228 13.4404 5.52228 12.9381V10.316C5.52228 6.85002 8.26907 3.73566 12.0834 3.30367C16.6429 2.79131 20.5351 6.01618 20.5351 10.0347V12.9381C20.5351 13.4002 20.7798 14.214 21.0467 14.6259L22.3144 16.5347C22.7926 17.258 22.8816 18.132 22.5591 18.9257C22.4923 19.0764 22.3811 19.2371 22.2477 19.3878C21.5248 20.1815 20.4128 20.5733 19.2785 20.5733H6.71219V20.5833ZM13.5736 4.78048C10.1151 4.48914 7.17925 6.95048 7.17925 10.0347V12.9381C7.17925 13.6715 6.84564 14.7565 6.43417 15.3894L5.1553 17.3082C4.91065 17.6799 4.84393 18.0718 4.98849 18.4033C5.12194 18.7449 5.8559 18.9583 6.72331 18.9583H19.2785C20.3683 18.9583 20.8465 18.7549 20.9911 18.3932C21.1356 18.0316 21.1023 17.6398 20.8798 17.3082L19.601 15.3894C19.1784 14.7364 18.8559 13.6614 18.8559 12.928V10.316C18.8559 7.54322 16.6207 5.04168 13.5736 4.79053V4.78048Z" fill="#292D32"/>
</mask>
<g mask="url(#mask0_2016_33697)">
<rect width="26" height="26" fill="#828292"/>
</g>
<circle cx="23" cy="3" r="3" fill="#DA3345"/>
</svg>
