<svg width="18" height="18" viewBox="0 0 18 18" fill="none" xmlns="http://www.w3.org/2000/svg">
<mask id="mask0_2016_33750" style="mask-type:alpha" maskUnits="userSpaceOnUse" x="0" y="0" width="18" height="18">
<path d="M9.00014 12.6C8.47514 12.6 7.95014 12.3975 7.55264 12L2.66264 7.10998C2.44514 6.89248 2.44514 6.53248 2.66264 6.31498C2.88014 6.09748 3.24014 6.09748 3.45764 6.31498L8.34764 11.205C8.70764 11.565 9.29264 11.565 9.65264 11.205L14.5426 6.31498C14.7601 6.09748 15.1201 6.09748 15.3376 6.31498C15.5551 6.53248 15.5551 6.89248 15.3376 7.10998L10.4476 12C10.0501 12.3975 9.52514 12.6 9.00014 12.6Z" fill="#292D32"/>
<path fill-rule="evenodd" clip-rule="evenodd" d="M8.99984 12.9001C8.39803 12.9001 7.79589 12.6679 7.34021 12.2122L2.45021 7.32219C2.11555 6.98753 2.11555 6.43758 2.45021 6.10292C2.78487 5.76826 3.33482 5.76826 3.66948 6.10292L8.55948 10.9929C8.80232 11.2358 9.19737 11.2358 9.44021 10.9929L14.3302 6.10292C14.6649 5.76826 15.2148 5.76826 15.5495 6.10292C15.8841 6.43758 15.8841 6.98753 15.5495 7.32219L10.6595 12.2122C10.2038 12.6679 9.60166 12.9001 8.99984 12.9001ZM7.55234 12.0001C7.94984 12.3976 8.47484 12.6001 8.99984 12.6001C9.52484 12.6001 10.0498 12.3976 10.4473 12.0001L15.3373 7.11005C15.5548 6.89255 15.5548 6.53255 15.3373 6.31505C15.1198 6.09755 14.7598 6.09755 14.5423 6.31505L9.65234 11.2051C9.29234 11.5651 8.70734 11.5651 8.34734 11.2051L3.45734 6.31505C3.23984 6.09755 2.87984 6.09755 2.66234 6.31505C2.44484 6.53255 2.44484 6.89255 2.66234 7.11005L7.55234 12.0001Z" fill="#292D32"/>
</mask>
<g mask="url(#mask0_2016_33750)">
<rect width="18" height="18" fill="white"/>
</g>
</svg>
