<svg width="57" height="56" viewBox="0 0 57 56" fill="none" xmlns="http://www.w3.org/2000/svg">
<rect x="4.5" y="4" width="48" height="48" rx="24" fill="#FFE5D0"/>
<rect x="4.5" y="4" width="48" height="48" rx="24" stroke="#FFF4EB" stroke-width="8"/>
<mask id="mask0_2550_24752" style="mask-type:alpha" maskUnits="userSpaceOnUse" x="16" y="16" width="25" height="24">
<path d="M33.94 31.37C33.75 31.37 33.56 31.3 33.41 31.15C33.12 30.86 33.12 30.38 33.41 30.09L35.44 28.06L33.41 26.03C33.12 25.74 33.12 25.26 33.41 24.97C33.7 24.68 34.18 24.68 34.47 24.97L37.03 27.53C37.32 27.82 37.32 28.3 37.03 28.59L34.47 31.15C34.32 31.3 34.13 31.37 33.94 31.37Z" fill="#292D32"/>
<path d="M36.43 28.81H26.26C25.85 28.81 25.51 28.47 25.51 28.06C25.51 27.65 25.85 27.31 26.26 27.31H36.43C36.84 27.31 37.18 27.65 37.18 28.06C37.18 28.47 36.84 28.81 36.43 28.81Z" fill="#292D32"/>
<path d="M28.26 36.75C23.11 36.75 19.51 33.15 19.51 28C19.51 22.85 23.11 19.25 28.26 19.25C28.67 19.25 29.01 19.59 29.01 20C29.01 20.41 28.67 20.75 28.26 20.75C23.99 20.75 21.01 23.73 21.01 28C21.01 32.27 23.99 35.25 28.26 35.25C28.67 35.25 29.01 35.59 29.01 36C29.01 36.41 28.67 36.75 28.26 36.75Z" fill="#292D32"/>
</mask>
<g mask="url(#mask0_2550_24752)">
<rect x="16.5" y="16" width="24" height="24" fill="#FC9842"/>
</g>
</svg>
