<svg width="61" height="45" viewBox="0 0 61 45" fill="none" xmlns="http://www.w3.org/2000/svg">
<path d="M8.5 22.5C8.5 10.3497 18.3497 0.5 30.5 0.5C42.6503 0.5 52.5 10.3497 52.5 22.5C52.5 34.6503 42.6503 44.5 30.5 44.5C18.3497 44.5 8.5 34.6503 8.5 22.5Z" fill="#6F6CCF"/>
<mask id="mask0_1992_27424" style="mask-type:alpha" maskUnits="userSpaceOnUse" x="16" y="8" width="29" height="29">
<path d="M19.7318 20.1666C19.2302 20.1666 18.8335 19.77 18.8335 19.2683V16.5733C18.8335 13.4116 21.4118 10.8333 24.5735 10.8333H27.2685C27.7702 10.8333 28.1668 11.23 28.1668 11.7316C28.1668 12.2333 27.7702 12.63 27.2685 12.63H24.5735C22.3918 12.63 20.6302 14.4033 20.6302 16.5733V19.2683C20.6302 19.77 20.2218 20.1666 19.7318 20.1666Z" fill="#292D32"/>
<path d="M41.2685 20.1666C40.7785 20.1666 40.3702 19.77 40.3702 19.2683V16.5733C40.3702 14.3916 38.5968 12.63 36.4268 12.63H33.7318C33.2302 12.63 32.8335 12.2216 32.8335 11.7316C32.8335 11.2416 33.2302 10.8333 33.7318 10.8333H36.4268C39.5885 10.8333 42.1668 13.4116 42.1668 16.5733V19.2683C42.1668 19.77 41.7702 20.1666 41.2685 20.1666Z" fill="#292D32"/>
<path d="M36.4267 34.1667H34.8051C34.3151 34.1667 33.9067 33.77 33.9067 33.2683C33.9067 32.7783 34.3034 32.37 34.8051 32.37H36.4267C38.6084 32.37 40.3701 30.5967 40.3701 28.4267V26.8167C40.3701 26.3267 40.7667 25.9183 41.2684 25.9183C41.7584 25.9183 42.1667 26.315 42.1667 26.8167V28.4267C42.1667 31.5883 39.5884 34.1667 36.4267 34.1667Z" fill="#292D32"/>
<path d="M27.2685 34.1666H24.5735C21.4118 34.1666 18.8335 31.5883 18.8335 28.4266V25.7316C18.8335 25.23 19.2302 24.8333 19.7318 24.8333C20.2335 24.8333 20.6302 25.23 20.6302 25.7316V28.4266C20.6302 30.6083 22.4035 32.37 24.5735 32.37H27.2685C27.7585 32.37 28.1668 32.7666 28.1668 33.2683C28.1668 33.77 27.7702 34.1666 27.2685 34.1666Z" fill="#292D32"/>
<path d="M38.0366 21.6017H36.4499H24.5499H22.9633C22.4616 21.6017 22.0649 22.01 22.0649 22.5C22.0649 22.99 22.4616 23.3984 22.9633 23.3984H24.5499H36.4499H38.0366C38.5383 23.3984 38.9349 22.99 38.9349 22.5C38.9349 22.01 38.5383 21.6017 38.0366 21.6017Z" fill="#292D32"/>
<path d="M24.5498 24.7633V25.1483C24.5498 27.085 26.1131 28.6483 28.0498 28.6483H32.9498C34.8865 28.6483 36.4498 27.085 36.4498 25.1483V24.7633C36.4498 24.6233 36.3448 24.5183 36.2048 24.5183H24.7948C24.6548 24.5183 24.5498 24.6233 24.5498 24.7633Z" fill="#292D32"/>
<path d="M24.5498 20.2367V19.8517C24.5498 17.915 26.1131 16.3517 28.0498 16.3517H32.9498C34.8865 16.3517 36.4498 17.915 36.4498 19.8517V20.2367C36.4498 20.3767 36.3448 20.4817 36.2048 20.4817H24.7948C24.6548 20.4817 24.5498 20.3767 24.5498 20.2367Z" fill="#292D32"/>
</mask>
<g mask="url(#mask0_1992_27424)">
<rect x="16.5" y="8.5" width="28" height="28" fill="white"/>
</g>
</svg>
