<svg width="32" height="33" viewBox="0 0 32 33" fill="none" xmlns="http://www.w3.org/2000/svg">
<g clip-path="url(#clip0_753_8537)">
<path d="M31.6881 16.8683C31.6881 15.7807 31.5999 14.6872 31.4118 13.6172H16.3201V19.7785H24.9624C24.6038 21.7656 23.4514 23.5235 21.7641 24.6405V28.6383H26.9201C29.9479 25.8516 31.6881 21.7362 31.6881 16.8683Z" fill="#4285F4"/>
<path d="M16.32 32.5014C20.6352 32.5014 24.2744 31.0846 26.9259 28.6389L21.7699 24.6411C20.3354 25.617 18.4835 26.1696 16.3259 26.1696C12.1517 26.1696 8.61246 23.3535 7.34257 19.5674H2.02197V23.6886C4.73812 29.0915 10.2704 32.5014 16.32 32.5014Z" fill="#34A853"/>
<path d="M7.33679 19.5666C6.66657 17.5795 6.66657 15.4277 7.33679 13.4406V9.31934H2.02207C-0.247266 13.8404 -0.247266 19.1668 2.02207 23.6879L7.33679 19.5666Z" fill="#FBBC04"/>
<path d="M16.32 6.83288C18.6011 6.79761 20.8057 7.65596 22.4578 9.23156L27.0258 4.66349C24.1333 1.94734 20.2943 0.454045 16.32 0.501078C10.2704 0.501078 4.73812 3.91096 2.02197 9.31974L7.33669 13.441C8.6007 9.64897 12.1458 6.83288 16.32 6.83288Z" fill="#EA4335"/>
</g>
<defs>
<clipPath id="clip0_753_8537">
<rect width="32" height="32" fill="white" transform="translate(0 0.5)"/>
</clipPath>
</defs>
</svg>
