<svg width="36" height="37" viewBox="0 0 36 37" fill="none" xmlns="http://www.w3.org/2000/svg">
<rect x="2" y="2.5" width="32" height="32" rx="16" fill="#DEDEE3"/>
<path d="M11.875 12.125H24.125C25.082 12.125 25.875 12.918 25.875 13.875V22.625C25.875 23.6094 25.082 24.375 24.125 24.375H11.875C10.8906 24.375 10.125 23.6094 10.125 22.625V13.875C10.125 12.918 10.8906 12.125 11.875 12.125ZM14.0625 19.125C12.832 19.125 11.875 20.1094 11.875 21.3125C11.875 21.5586 12.0664 21.75 12.3125 21.75H17.5625C17.7812 21.75 18 21.5586 18 21.3125C18 20.1094 17.0156 19.125 15.8125 19.125H14.0625ZM13.1875 16.5C13.1875 17.1289 13.5156 17.7031 14.0625 18.0312C14.582 18.332 15.2656 18.332 15.8125 18.0312C16.332 17.7031 16.6875 17.1289 16.6875 16.5C16.6875 15.8984 16.332 15.3242 15.8125 14.9961C15.2656 14.6953 14.582 14.6953 14.0625 14.9961C13.5156 15.3242 13.1875 15.8984 13.1875 16.5ZM20.1875 15.625C19.9414 15.625 19.75 15.8438 19.75 16.0625C19.75 16.3086 19.9414 16.5 20.1875 16.5H23.6875C23.9062 16.5 24.125 16.3086 24.125 16.0625C24.125 15.8438 23.9062 15.625 23.6875 15.625H20.1875ZM20.1875 17.375C19.9414 17.375 19.75 17.5938 19.75 17.8125C19.75 18.0586 19.9414 18.25 20.1875 18.25H23.6875C23.9062 18.25 24.125 18.0586 24.125 17.8125C24.125 17.5938 23.9062 17.375 23.6875 17.375H20.1875ZM20.1875 19.125C19.9414 19.125 19.75 19.3438 19.75 19.5625C19.75 19.8086 19.9414 20 20.1875 20H23.6875C23.9062 20 24.125 19.8086 24.125 19.5625C24.125 19.3438 23.9062 19.125 23.6875 19.125H20.1875Z" fill="#828292"/>
<rect x="2" y="2.5" width="32" height="32" rx="16" stroke="#ECECEE" stroke-width="4"/>
</svg>
