<svg width="16" height="17" viewBox="0 0 16 17" fill="none" xmlns="http://www.w3.org/2000/svg">
<mask id="mask0_2575_27017" style="mask-type:alpha" maskUnits="userSpaceOnUse" x="0" y="0" width="16" height="17">
<path d="M7.40004 15.6667H4.60004C1.99337 15.6667 0.833374 14.5067 0.833374 11.9V9.10004C0.833374 6.49337 1.99337 5.33337 4.60004 5.33337H7.40004C10.0067 5.33337 11.1667 6.49337 11.1667 9.10004V11.9C11.1667 14.5067 10.0067 15.6667 7.40004 15.6667ZM4.60004 6.33337C2.53337 6.33337 1.83337 7.03337 1.83337 9.10004V11.9C1.83337 13.9667 2.53337 14.6667 4.60004 14.6667H7.40004C9.46671 14.6667 10.1667 13.9667 10.1667 11.9V9.10004C10.1667 7.03337 9.46671 6.33337 7.40004 6.33337H4.60004Z" fill="#292D32"/>
<path d="M11.4 11.6667H10.6667C10.3934 11.6667 10.1667 11.44 10.1667 11.1667V9.10004C10.1667 7.03337 9.46671 6.33337 7.40004 6.33337H5.33337C5.06004 6.33337 4.83337 6.10671 4.83337 5.83337V5.10004C4.83337 2.49337 5.99337 1.33337 8.60004 1.33337H11.4C14.0067 1.33337 15.1667 2.49337 15.1667 5.10004V7.90004C15.1667 10.5067 14.0067 11.6667 11.4 11.6667ZM11.1667 10.6667H11.4C13.4667 10.6667 14.1667 9.96671 14.1667 7.90004V5.10004C14.1667 3.03337 13.4667 2.33337 11.4 2.33337H8.60004C6.53337 2.33337 5.83337 3.03337 5.83337 5.10004V5.33337H7.40004C10.0067 5.33337 11.1667 6.49337 11.1667 9.10004V10.6667Z" fill="#292D32"/>
</mask>
<g mask="url(#mask0_2575_27017)">
<rect y="0.5" width="16" height="16" fill="#5B5B67"/>
</g>
</svg>
