<svg width="67" height="66" viewBox="0 0 67 66" fill="none" xmlns="http://www.w3.org/2000/svg">
<rect x="5.5" y="5" width="56" height="56" rx="28" fill="#DDDBFD"/>
<rect x="5.5" y="5" width="56" height="56" rx="28" stroke="#EDECFE" stroke-width="10"/>
<mask id="mask0_2660_50999" style="mask-type:alpha" maskUnits="userSpaceOnUse" x="19" y="19" width="29" height="28">
<path d="M37.9099 21.3333H29.0899C24.6799 21.3333 23.5833 22.5116 23.5833 27.2133V40.3499C23.5833 43.4533 25.2866 44.1883 27.3516 41.9716L27.3633 41.9599C28.3199 40.9449 29.7783 41.0266 30.6066 42.1349L31.7849 43.7099C32.7299 44.9583 34.2583 44.9583 35.2033 43.7099L36.3816 42.1349C37.2216 41.0149 38.6799 40.9333 39.6366 41.9599C41.7133 44.1766 43.4049 43.4416 43.4049 40.3383V27.2133C43.4166 22.5116 42.3199 21.3333 37.9099 21.3333ZM28.5766 32.9999C27.9349 32.9999 27.4099 32.4749 27.4099 31.8333C27.4099 31.1916 27.9349 30.6666 28.5766 30.6666C29.2183 30.6666 29.7433 31.1916 29.7433 31.8333C29.7433 32.4749 29.2183 32.9999 28.5766 32.9999ZM28.5766 28.3333C27.9349 28.3333 27.4099 27.8083 27.4099 27.1666C27.4099 26.5249 27.9349 25.9999 28.5766 25.9999C29.2183 25.9999 29.7433 26.5249 29.7433 27.1666C29.7433 27.8083 29.2183 28.3333 28.5766 28.3333ZM38.4349 32.7083H32.0183C31.5399 32.7083 31.1433 32.3116 31.1433 31.8333C31.1433 31.3549 31.5399 30.9583 32.0183 30.9583H38.4349C38.9133 30.9583 39.3099 31.3549 39.3099 31.8333C39.3099 32.3116 38.9133 32.7083 38.4349 32.7083ZM38.4349 28.0416H32.0183C31.5399 28.0416 31.1433 27.6449 31.1433 27.1666C31.1433 26.6883 31.5399 26.2916 32.0183 26.2916H38.4349C38.9133 26.2916 39.3099 26.6883 39.3099 27.1666C39.3099 27.6449 38.9133 28.0416 38.4349 28.0416Z" fill="#292D32"/>
</mask>
<g mask="url(#mask0_2660_50999)">
<rect x="19.5" y="19" width="28" height="28" fill="#8480F7"/>
</g>
</svg>
