<svg width="20" height="21" viewBox="0 0 20 21" fill="none" xmlns="http://www.w3.org/2000/svg">
<mask id="mask0_2575_23100" style="mask-type:alpha" maskUnits="userSpaceOnUse" x="0" y="0" width="20" height="21">
<path d="M7.70835 4.66667C7.70835 3.4 8.73335 2.375 10 2.375C11.2667 2.375 12.2917 3.4 12.2917 4.66667C12.2917 5.93333 11.2667 6.95833 10 6.95833C8.73335 6.95833 7.70835 5.93333 7.70835 4.66667Z" fill="#292D32"/>
<path d="M7.70835 16.3333C7.70835 15.0666 8.73335 14.0416 10 14.0416C11.2667 14.0416 12.2917 15.0666 12.2917 16.3333C12.2917 17.6 11.2667 18.625 10 18.625C8.73335 18.625 7.70835 17.6 7.70835 16.3333Z" fill="#292D32"/>
<path d="M7.70835 10.5C7.70835 9.23337 8.73335 8.20837 10 8.20837C11.2667 8.20837 12.2917 9.23337 12.2917 10.5C12.2917 11.7667 11.2667 12.7917 10 12.7917C8.73335 12.7917 7.70835 11.7667 7.70835 10.5Z" fill="#292D32"/>
</mask>
<g mask="url(#mask0_2575_23100)">
<rect y="0.5" width="20" height="20" fill="#C0C0C8"/>
</g>
</svg>
