<svg width="18" height="19" viewBox="0 0 18 19" fill="none" xmlns="http://www.w3.org/2000/svg">
<mask id="mask0_2575_27034" style="mask-type:alpha" maskUnits="userSpaceOnUse" x="0" y="0" width="18" height="19">
<path d="M12.1425 2H5.8575C3.1275 2 1.5 3.6275 1.5 6.3575V12.635C1.5 15.3725 3.1275 17 5.8575 17H12.135C14.865 17 16.4925 15.3725 16.4925 12.6425V6.3575C16.5 3.6275 14.8725 2 12.1425 2ZM3.9375 9.4175C3.96 8.0975 4.485 6.8525 5.415 5.9225C6.375 4.9625 7.65 4.4375 9 4.4375C10.35 4.4375 11.625 4.9625 12.5775 5.9225C12.6 5.945 12.6225 5.975 12.645 6.005V5.36C12.645 5.0525 12.9 4.7975 13.2075 4.7975C13.515 4.7975 13.77 5.0525 13.77 5.36V7.3475C13.77 7.655 13.515 7.91 13.2075 7.91H11.22C10.9125 7.91 10.6575 7.655 10.6575 7.3475C10.6575 7.04 10.9125 6.785 11.22 6.785H11.8425C11.82 6.7625 11.805 6.74 11.7825 6.7175C11.04 5.975 10.05 5.5625 9 5.5625C7.95 5.5625 6.96 5.975 6.2175 6.7175C5.49 7.445 5.085 8.4125 5.07 9.44C5.0625 9.74 4.8075 9.9875 4.5 9.9875H4.4925C4.185 9.9875 3.9375 9.725 3.9375 9.4175ZM12.5775 13.0775C11.625 14.03 10.35 14.5625 9 14.5625C7.65 14.5625 6.375 14.0375 5.4225 13.0775C5.4 13.055 5.3775 13.025 5.355 12.995V13.6325C5.355 13.94 5.1 14.195 4.7925 14.195C4.485 14.195 4.23 13.94 4.23 13.6325V11.645C4.23 11.3375 4.485 11.0825 4.7925 11.0825H6.78C7.0875 11.0825 7.3425 11.3375 7.3425 11.645C7.3425 11.9525 7.0875 12.2075 6.78 12.2075H6.1575C6.18 12.23 6.195 12.2525 6.2175 12.275C6.96 13.0175 7.95 13.43 9 13.43C10.05 13.43 11.04 13.0175 11.7825 12.275C12.5175 11.54 12.93 10.5575 12.93 9.5075C12.93 9.2 13.185 8.945 13.4925 8.945C13.8 8.945 14.055 9.2 14.055 9.5075C14.055 10.865 13.53 12.1325 12.5775 13.0775Z" fill="#292D32"/>
</mask>
<g mask="url(#mask0_2575_27034)">
<rect y="0.5" width="18" height="18" fill="#5B5B67"/>
</g>
</svg>
