<svg width="18" height="19" viewBox="0 0 18 19" fill="none" xmlns="http://www.w3.org/2000/svg">
<mask id="mask0_2575_23067" style="mask-type:alpha" maskUnits="userSpaceOnUse" x="0" y="0" width="18" height="19">
<path d="M9 2C4.8675 2 1.5 5.3675 1.5 9.5C1.5 13.6325 4.8675 17 9 17C13.1325 17 16.5 13.6325 16.5 9.5C16.5 5.3675 13.1325 2 9 2ZM8.4375 6.5C8.4375 6.1925 8.6925 5.9375 9 5.9375C9.3075 5.9375 9.5625 6.1925 9.5625 6.5V10.25C9.5625 10.5575 9.3075 10.8125 9 10.8125C8.6925 10.8125 8.4375 10.5575 8.4375 10.25V6.5ZM9.69 12.785C9.6525 12.8825 9.6 12.9575 9.5325 13.0325C9.4575 13.1 9.375 13.1525 9.285 13.19C9.195 13.2275 9.0975 13.25 9 13.25C8.9025 13.25 8.805 13.2275 8.715 13.19C8.625 13.1525 8.5425 13.1 8.4675 13.0325C8.4 12.9575 8.3475 12.8825 8.31 12.785C8.2725 12.695 8.25 12.5975 8.25 12.5C8.25 12.4025 8.2725 12.305 8.31 12.215C8.3475 12.125 8.4 12.0425 8.4675 11.9675C8.5425 11.9 8.625 11.8475 8.715 11.81C8.895 11.735 9.105 11.735 9.285 11.81C9.375 11.8475 9.4575 11.9 9.5325 11.9675C9.6 12.0425 9.6525 12.125 9.69 12.215C9.7275 12.305 9.75 12.4025 9.75 12.5C9.75 12.5975 9.7275 12.695 9.69 12.785Z" fill="#292D32"/>
</mask>
<g mask="url(#mask0_2575_23067)">
<rect y="0.5" width="18" height="18" fill="#FC9842"/>
</g>
</svg>
