<svg width="26" height="26" viewBox="0 0 26 26" fill="none" xmlns="http://www.w3.org/2000/svg">
<mask id="mask0_2432_15440" style="mask-type:alpha" maskUnits="userSpaceOnUse" x="4" y="4" width="18" height="18">
<path d="M19.75 20.5H6.25C5.9425 20.5 5.6875 20.245 5.6875 19.9375C5.6875 19.63 5.9425 19.375 6.25 19.375H19.75C20.0575 19.375 20.3125 19.63 20.3125 19.9375C20.3125 20.245 20.0575 20.5 19.75 20.5Z" fill="#292D32"/>
<path d="M18.2649 6.61C16.8099 5.155 15.3849 5.1175 13.8924 6.61L12.9849 7.5175C12.9099 7.5925 12.8799 7.7125 12.9099 7.8175C13.4799 9.805 15.0699 11.395 17.0574 11.965C17.0874 11.9725 17.1174 11.98 17.1474 11.98C17.2299 11.98 17.3049 11.95 17.3649 11.89L18.2649 10.9825C19.0074 10.2475 19.3674 9.535 19.3674 8.815C19.3749 8.0725 19.0149 7.3525 18.2649 6.61Z" fill="#292D32"/>
<path d="M15.7077 12.6476C15.4902 12.5426 15.2802 12.4376 15.0777 12.3176C14.9127 12.2201 14.7552 12.1151 14.5977 12.0026C14.4702 11.9201 14.3202 11.8001 14.1777 11.6801C14.1627 11.6726 14.1102 11.6276 14.0502 11.5676C13.8027 11.3576 13.5252 11.0876 13.2777 10.7876C13.2552 10.7726 13.2177 10.7201 13.1652 10.6526C13.0902 10.5626 12.9627 10.4126 12.8502 10.2401C12.7602 10.1276 12.6552 9.9626 12.5577 9.7976C12.4377 9.5951 12.3327 9.3926 12.2277 9.1826C12.0901 8.88759 11.7029 8.79996 11.4727 9.03015L7.25524 13.2476C7.15774 13.3451 7.06774 13.5326 7.04524 13.6601L6.64024 16.5326C6.56524 17.0426 6.70774 17.5226 7.02274 17.8451C7.29274 18.1076 7.66774 18.2501 8.07274 18.2501C8.16274 18.2501 8.25274 18.2426 8.34274 18.2276L11.2227 17.8226C11.3577 17.8001 11.5452 17.7101 11.6352 17.6126L15.8596 13.3882C16.0852 13.1626 16.0005 12.7744 15.7077 12.6476Z" fill="#292D32"/>
</mask>
<g mask="url(#mask0_2432_15440)">
<rect x="4" y="4" width="18" height="18" fill="#8480F7"/>
</g>
</svg>
