<svg width="18" height="19" viewBox="0 0 18 19" fill="none" xmlns="http://www.w3.org/2000/svg">
<mask id="mask0_2575_25797" style="mask-type:alpha" maskUnits="userSpaceOnUse" x="0" y="0" width="18" height="19">
<path d="M15.375 8.1425H13.2075C11.43 8.1425 9.9825 6.695 9.9825 4.9175V2.75C9.9825 2.3375 9.645 2 9.2325 2H6.0525C3.7425 2 1.875 3.5 1.875 6.1775V12.8225C1.875 15.5 3.7425 17 6.0525 17H11.9475C14.2575 17 16.125 15.5 16.125 12.8225V8.8925C16.125 8.48 15.7875 8.1425 15.375 8.1425ZM9.36 12.275C8.97 13.5275 7.5975 14.2025 7.125 14.2025C6.645 14.2025 5.3025 13.55 4.89 12.275C4.62 11.4425 4.9275 10.355 5.88 10.0475C6.315 9.905 6.78 9.9875 7.1175 10.25C7.455 9.9875 7.92 9.905 8.3625 10.0475C9.3225 10.355 9.6225 11.4425 9.36 12.275Z" fill="#292D32"/>
<path d="M13.0725 7.10749C13.785 7.115 14.775 7.11499 15.6225 7.11499C16.05 7.11499 16.275 6.61249 15.975 6.31249C14.895 5.22499 12.96 3.26749 11.85 2.15749C11.5425 1.84999 11.01 2.05999 11.01 2.48749V5.10499C11.01 6.19999 11.94 7.10749 13.0725 7.10749Z" fill="#292D32"/>
</mask>
<g mask="url(#mask0_2575_25797)">
<rect y="0.5" width="18" height="18" fill="#5B5B67"/>
</g>
</svg>
