<svg width="18" height="19" viewBox="0 0 18 19" fill="none" xmlns="http://www.w3.org/2000/svg">
<mask id="mask0_2575_26419" style="mask-type:alpha" maskUnits="userSpaceOnUse" x="0" y="0" width="18" height="19">
<path d="M6.6825 16.0025C6.54 16.0025 6.3975 15.95 6.285 15.8375C6.0675 15.62 6.0675 15.26 6.285 15.0425L11.175 10.1525C11.535 9.79251 11.535 9.20751 11.175 8.84751L6.285 3.95751C6.0675 3.74001 6.0675 3.38001 6.285 3.16251C6.5025 2.94501 6.8625 2.94501 7.08 3.16251L11.97 8.05251C12.3525 8.43501 12.57 8.95252 12.57 9.50002C12.57 10.0475 12.36 10.565 11.97 10.9475L7.08 15.8375C6.9675 15.9425 6.825 16.0025 6.6825 16.0025Z" fill="#292D32"/>
<path fill-rule="evenodd" clip-rule="evenodd" d="M7.28469 16.0568C7.12286 16.2078 6.90909 16.3025 6.68249 16.3025C6.46472 16.3025 6.24459 16.2213 6.07286 16.0496C5.7382 15.7149 5.7382 15.165 6.07286 14.8303L10.9629 9.94033C11.2057 9.69749 11.2057 9.30244 10.9629 9.0596L6.07286 4.1696C5.7382 3.83494 5.7382 3.28499 6.07286 2.95033C6.40752 2.61568 6.95747 2.61568 7.29213 2.95033L12.1821 7.84033C12.6204 8.27862 12.87 8.87223 12.87 9.49997C12.87 10.1247 12.63 10.7198 12.1812 11.1606C12.1808 11.1609 12.1804 11.1613 12.1801 11.1616L7.28469 16.0568ZM11.97 10.9475C12.36 10.565 12.57 10.0475 12.57 9.49997C12.57 8.95247 12.3525 8.43497 11.97 8.05247L7.07999 3.16247C6.86249 2.94497 6.50249 2.94497 6.28499 3.16247C6.06749 3.37997 6.06749 3.73997 6.28499 3.95747L11.175 8.84747C11.535 9.20747 11.535 9.79247 11.175 10.1525L6.28499 15.0425C6.06749 15.26 6.06749 15.62 6.28499 15.8375C6.39749 15.95 6.53999 16.0025 6.68249 16.0025C6.82499 16.0025 6.96749 15.9425 7.07999 15.8375L11.97 10.9475Z" fill="#292D32"/>
</mask>
<g mask="url(#mask0_2575_26419)">
<rect y="0.5" width="18" height="18" fill="#AEAEB7"/>
</g>
</svg>
