<svg width="18" height="18" viewBox="0 0 18 18" fill="none" xmlns="http://www.w3.org/2000/svg">
<path d="M5.7375 15.6825C5.715 15.6825 5.685 15.6975 5.6625 15.6975C4.2075 14.9775 3.0225 13.785 2.295 12.33C2.295 12.3075 2.31 12.2775 2.31 12.255C3.225 12.525 4.17 12.7275 5.1075 12.885C5.2725 13.83 5.4675 14.7675 5.7375 15.6825Z" fill="#5B5B67"/>
<path d="M15.705 12.3375C14.9625 13.83 13.725 15.0375 12.2175 15.765C12.5025 14.8125 12.7425 13.8525 12.9 12.885C13.845 12.7275 14.775 12.525 15.69 12.255C15.6825 12.285 15.705 12.315 15.705 12.3375Z" fill="#5B5B67"/>
<path d="M15.765 5.7825C14.82 5.4975 13.8675 5.265 12.9 5.1C12.7425 4.1325 12.51 3.1725 12.2175 2.235C13.77 2.9775 15.0225 4.23 15.765 5.7825Z" fill="#5B5B67"/>
<path d="M5.7375 2.3175C5.4675 3.2325 5.2725 4.1625 5.115 5.1075C4.1475 5.2575 3.1875 5.4975 2.235 5.7825C2.9625 4.275 4.17 3.0375 5.6625 2.295C5.685 2.295 5.715 2.3175 5.7375 2.3175Z" fill="#5B5B67"/>
<path d="M11.6175 4.9425C9.87751 4.7475 8.12251 4.7475 6.38251 4.9425C6.57001 3.915 6.81001 2.8875 7.14751 1.8975C7.16251 1.8375 7.15501 1.7925 7.16251 1.7325C7.75501 1.59 8.36251 1.5 9.00001 1.5C9.63001 1.5 10.245 1.59 10.83 1.7325C10.8375 1.7925 10.8375 1.8375 10.8525 1.8975C11.19 2.895 11.43 3.915 11.6175 4.9425Z" fill="#5B5B67"/>
<path d="M4.9425 11.6175C3.9075 11.43 2.8875 11.19 1.8975 10.8525C1.8375 10.8375 1.7925 10.845 1.7325 10.8375C1.59 10.245 1.5 9.6375 1.5 9C1.5 8.37 1.59 7.755 1.7325 7.17C1.7925 7.1625 1.8375 7.1625 1.8975 7.1475C2.895 6.8175 3.9075 6.57 4.9425 6.3825C4.755 8.1225 4.755 9.8775 4.9425 11.6175Z" fill="#5B5B67"/>
<path d="M16.5 9C16.5 9.6375 16.41 10.245 16.2675 10.8375C16.2075 10.845 16.1625 10.8375 16.1025 10.8525C15.105 11.1825 14.085 11.43 13.0575 11.6175C13.2525 9.8775 13.2525 8.1225 13.0575 6.3825C14.085 6.57 15.1125 6.81 16.1025 7.1475C16.1625 7.1625 16.2075 7.17 16.2675 7.17C16.41 7.7625 16.5 8.37 16.5 9Z" fill="#5B5B67"/>
<path d="M11.6175 13.0575C11.43 14.0925 11.19 15.1125 10.8525 16.1025C10.8375 16.1625 10.8375 16.2075 10.83 16.2675C10.245 16.41 9.63001 16.5 9.00001 16.5C8.36251 16.5 7.75501 16.41 7.16251 16.2675C7.15501 16.2075 7.16251 16.1625 7.14751 16.1025C6.81751 15.105 6.57001 14.0925 6.38251 13.0575C7.25251 13.155 8.12251 13.2225 9.00001 13.2225C9.87751 13.2225 10.755 13.155 11.6175 13.0575Z" fill="#5B5B67"/>
<path d="M11.8225 11.8225C9.94668 12.0592 8.05332 12.0592 6.1775 11.8225C5.94083 9.94668 5.94083 8.05332 6.1775 6.1775C8.05332 5.94083 9.94668 5.94083 11.8225 6.1775C12.0592 8.05332 12.0592 9.94668 11.8225 11.8225Z" fill="#5B5B67"/>
</svg>
