<svg width="18" height="19" viewBox="0 0 18 19" fill="none" xmlns="http://www.w3.org/2000/svg">
<mask id="mask0_2575_25840" style="mask-type:alpha" maskUnits="userSpaceOnUse" x="0" y="0" width="18" height="19">
<path d="M12.75 2.3225H5.25C3 2.3225 1.5 3.8225 1.5 6.0725V10.5725C1.5 12.8225 3 14.3225 5.25 14.3225V15.92C5.25 16.52 5.9175 16.88 6.4125 16.5425L9.75 14.3225H12.75C15 14.3225 16.5 12.8225 16.5 10.5725V6.0725C16.5 3.8225 15 2.3225 12.75 2.3225ZM9 11.45C8.685 11.45 8.4375 11.195 8.4375 10.8875C8.4375 10.58 8.685 10.325 9 10.325C9.315 10.325 9.5625 10.58 9.5625 10.8875C9.5625 11.195 9.315 11.45 9 11.45ZM9.945 8.3375C9.6525 8.5325 9.5625 8.66 9.5625 8.87V9.0275C9.5625 9.335 9.3075 9.59 9 9.59C8.6925 9.59 8.4375 9.335 8.4375 9.0275V8.87C8.4375 8 9.075 7.5725 9.315 7.4075C9.5925 7.22 9.6825 7.0925 9.6825 6.8975C9.6825 6.5225 9.375 6.215 9 6.215C8.625 6.215 8.3175 6.5225 8.3175 6.8975C8.3175 7.205 8.0625 7.46 7.755 7.46C7.4475 7.46 7.1925 7.205 7.1925 6.8975C7.1925 5.9 8.0025 5.09 9 5.09C9.9975 5.09 10.8075 5.9 10.8075 6.8975C10.8075 7.7525 10.1775 8.18 9.945 8.3375Z" fill="#292D32"/>
</mask>
<g mask="url(#mask0_2575_25840)">
<rect y="0.5" width="18" height="18" fill="#5B5B67"/>
</g>
</svg>
