<svg width="20" height="21" viewBox="0 0 20 21" fill="none" xmlns="http://www.w3.org/2000/svg">
<mask id="mask0_2257_37101" style="mask-type:alpha" maskUnits="userSpaceOnUse" x="0" y="0" width="20" height="21">
<path d="M2.30817 8.83317C1.94984 8.83317 1.6665 8.54984 1.6665 8.1915V6.2665C1.6665 4.00817 3.50817 2.1665 5.7665 2.1665H7.6915C8.04984 2.1665 8.33317 2.44984 8.33317 2.80817C8.33317 3.1665 8.04984 3.44984 7.6915 3.44984H5.7665C4.20817 3.44984 2.94984 4.7165 2.94984 6.2665V8.1915C2.94984 8.54984 2.65817 8.83317 2.30817 8.83317Z" fill="#292D32"/>
<path d="M17.6915 8.83317C17.3415 8.83317 17.0498 8.54984 17.0498 8.1915V6.2665C17.0498 4.70817 15.7832 3.44984 14.2332 3.44984H12.3082C11.9498 3.44984 11.6665 3.15817 11.6665 2.80817C11.6665 2.45817 11.9498 2.1665 12.3082 2.1665H14.2332C16.4915 2.1665 18.3332 4.00817 18.3332 6.2665V8.1915C18.3332 8.54984 18.0498 8.83317 17.6915 8.83317Z" fill="#292D32"/>
<path d="M14.2331 18.8336H13.0748C12.7248 18.8336 12.4331 18.5502 12.4331 18.1919C12.4331 17.8419 12.7164 17.5502 13.0748 17.5502H14.2331C15.7914 17.5502 17.0498 16.2836 17.0498 14.7336V13.5836C17.0498 13.2336 17.3331 12.9419 17.6914 12.9419C18.0414 12.9419 18.3331 13.2252 18.3331 13.5836V14.7336C18.3331 16.9919 16.4914 18.8336 14.2331 18.8336Z" fill="#292D32"/>
<path d="M7.6915 18.8332H5.7665C3.50817 18.8332 1.6665 16.9915 1.6665 14.7332V12.8082C1.6665 12.4498 1.94984 12.1665 2.30817 12.1665C2.6665 12.1665 2.94984 12.4498 2.94984 12.8082V14.7332C2.94984 16.2915 4.2165 17.5498 5.7665 17.5498H7.6915C8.0415 17.5498 8.33317 17.8332 8.33317 18.1915C8.33317 18.5498 8.04984 18.8332 7.6915 18.8332Z" fill="#292D32"/>
<path d="M15.3834 9.8584H14.2501H5.7501H4.61676C4.25843 9.8584 3.9751 10.1501 3.9751 10.5001C3.9751 10.8501 4.25843 11.1417 4.61676 11.1417H5.7501H14.2501H15.3834C15.7418 11.1417 16.0251 10.8501 16.0251 10.5001C16.0251 10.1501 15.7418 9.8584 15.3834 9.8584Z" fill="#292D32"/>
<path d="M5.75 12.1169V12.3919C5.75 13.7752 6.86667 14.8919 8.25 14.8919H11.75C13.1333 14.8919 14.25 13.7752 14.25 12.3919V12.1169C14.25 12.0169 14.175 11.9419 14.075 11.9419H5.925C5.825 11.9419 5.75 12.0169 5.75 12.1169Z" fill="#292D32"/>
<path d="M5.75 8.8834V8.6084C5.75 7.22506 6.86667 6.1084 8.25 6.1084H11.75C13.1333 6.1084 14.25 7.22506 14.25 8.6084V8.8834C14.25 8.9834 14.175 9.0584 14.075 9.0584H5.925C5.825 9.0584 5.75 8.9834 5.75 8.8834Z" fill="#292D32"/>
</mask>
<g mask="url(#mask0_2257_37101)">
<rect y="0.5" width="20" height="20" fill="#828292"/>
</g>
</svg>
