<svg width="18" height="19" viewBox="0 0 18 19" fill="none" xmlns="http://www.w3.org/2000/svg">
<mask id="mask0_2575_25777" style="mask-type:alpha" maskUnits="userSpaceOnUse" x="0" y="0" width="18" height="19">
<path d="M12.18 2H5.82C3.75 2 3 2.75 3 4.8575V14.1425C3 16.25 3.75 17 5.82 17H12.1725C14.25 17 15 16.25 15 14.1425V4.8575C15 2.75 14.25 2 12.18 2ZM9 14.975C8.28 14.975 7.6875 14.3825 7.6875 13.6625C7.6875 12.9425 8.28 12.35 9 12.35C9.72 12.35 10.3125 12.9425 10.3125 13.6625C10.3125 14.3825 9.72 14.975 9 14.975ZM10.5 5.1875H7.5C7.1925 5.1875 6.9375 4.9325 6.9375 4.625C6.9375 4.3175 7.1925 4.0625 7.5 4.0625H10.5C10.8075 4.0625 11.0625 4.3175 11.0625 4.625C11.0625 4.9325 10.8075 5.1875 10.5 5.1875Z" fill="#292D32"/>
</mask>
<g mask="url(#mask0_2575_25777)">
<rect y="0.5" width="18" height="18" fill="#5B5B67"/>
</g>
</svg>
