<svg width="38" height="38" viewBox="0 0 38 38" fill="none" xmlns="http://www.w3.org/2000/svg">
<mask id="mask0_2512_26091" style="mask-type:alpha" maskUnits="userSpaceOnUse" x="8" y="8" width="22" height="22">
<path d="M21.7498 26.9474C21.5757 26.9474 21.4015 26.8832 21.264 26.7457L15.2873 20.7691C14.3157 19.7974 14.3157 18.2024 15.2873 17.2307L21.264 11.2541C21.5298 10.9882 21.9698 10.9882 22.2357 11.2541C22.5015 11.5199 22.5015 11.9599 22.2357 12.2257L16.259 18.2024C15.819 18.6424 15.819 19.3574 16.259 19.7974L22.2357 25.7741C22.5015 26.0399 22.5015 26.4799 22.2357 26.7457C22.0982 26.8741 21.924 26.9474 21.7498 26.9474Z" fill="#292D32"/>
<path fill-rule="evenodd" clip-rule="evenodd" d="M22.486 27.0139L22.4858 27.0137C22.288 27.1984 22.0268 27.314 21.7498 27.314C21.4836 27.314 21.2146 27.2149 21.0047 27.005L15.028 21.0283C13.9132 19.9134 13.9132 18.0863 15.028 16.9714L21.0047 10.9948C21.4137 10.5857 22.0859 10.5857 22.4949 10.9948C22.9039 11.4038 22.9039 12.0759 22.4949 12.485L16.5183 18.4616C16.2214 18.7584 16.2214 19.2413 16.5183 19.5381L22.4949 25.5148C22.9039 25.9238 22.9039 26.5959 22.4949 27.005L22.486 27.0139ZM21.264 26.7457C21.4015 26.8832 21.5756 26.9474 21.7498 26.9474C21.924 26.9474 22.0981 26.874 22.2356 26.7457C22.5015 26.4799 22.5015 26.0399 22.2356 25.774L16.259 19.7974C15.819 19.3574 15.819 18.6424 16.259 18.2024L22.2356 12.2257C22.5015 11.9599 22.5015 11.5199 22.2356 11.254C21.9698 10.9882 21.5298 10.9882 21.264 11.254L15.2873 17.2307C14.3156 18.2024 14.3156 19.7974 15.2873 20.769L21.264 26.7457Z" fill="#292D32"/>
</mask>
<g mask="url(#mask0_2512_26091)">
<rect x="8" y="8" width="22" height="22" fill="white"/>
</g>
</svg>
