<svg width="18" height="19" viewBox="0 0 18 19" fill="none" xmlns="http://www.w3.org/2000/svg">
<path d="M14.8425 3.66523C12.6225 1.45273 9.02249 1.45273 6.81749 3.66523C5.26499 5.20273 4.79999 7.41523 5.39999 9.36523L1.87499 12.8902C1.62749 13.1452 1.45499 13.6477 1.50749 14.0077L1.73249 15.6427C1.81499 16.1827 2.31749 16.6927 2.85749 16.7677L4.49249 16.9927C4.85249 17.0452 5.35499 16.8802 5.60999 16.6177L6.22499 16.0027C6.37499 15.8602 6.37499 15.6202 6.22499 15.4702L4.76999 14.0152C4.55249 13.7977 4.55249 13.4377 4.76999 13.2202C4.98749 13.0027 5.34749 13.0027 5.56499 13.2202L7.02749 14.6827C7.16999 14.8252 7.40999 14.8252 7.55249 14.6827L9.14249 13.1002C11.085 13.7077 13.2975 13.2352 14.8425 11.6977C17.055 9.48523 17.055 5.87773 14.8425 3.66523ZM10.875 9.50023C9.83999 9.50023 8.99999 8.66023 8.99999 7.62523C8.99999 6.59023 9.83999 5.75023 10.875 5.75023C11.91 5.75023 12.75 6.59023 12.75 7.62523C12.75 8.66023 11.91 9.50023 10.875 9.50023Z" fill="#6B6B7A"/>
</svg>
