<svg width="18" height="19" viewBox="0 0 18 19" fill="none" xmlns="http://www.w3.org/2000/svg">
<mask id="mask0_2575_25757" style="mask-type:alpha" maskUnits="userSpaceOnUse" x="0" y="0" width="18" height="19">
<path d="M12.1425 2H5.8575C3.1275 2 1.5 3.6275 1.5 6.3575V12.635C1.5 15.3725 3.1275 17 5.8575 17H12.135C14.865 17 16.4925 15.3725 16.4925 12.6425V6.3575C16.5 3.6275 14.8725 2 12.1425 2ZM9 14.0075C6.6225 14.0075 4.6875 12.0725 4.6875 9.695C4.6875 8.84 4.935 8.0075 5.415 7.3025C5.5875 7.04 5.94 6.9725 6.195 7.145C6.45 7.3175 6.525 7.67 6.345 7.925C6 8.45 5.8125 9.065 5.8125 9.695C5.8125 11.45 7.245 12.8825 9 12.8825C10.755 12.8825 12.1875 11.45 12.1875 9.695C12.1875 7.94 10.755 6.5075 9 6.5075C8.8575 6.5075 8.7225 6.5225 8.58 6.5375L9 6.845C9.2475 7.025 9.3075 7.3775 9.12 7.6325C9.0075 7.7825 8.835 7.865 8.6625 7.865C8.55 7.865 8.43 7.8275 8.3325 7.76L6.8775 6.6875C6.8775 6.6875 6.87 6.68 6.8625 6.6725C6.855 6.665 6.8475 6.665 6.84 6.6575C6.8175 6.6425 6.81 6.6125 6.7875 6.59C6.765 6.56 6.7425 6.5375 6.72 6.5C6.705 6.47 6.6975 6.4325 6.6825 6.4025C6.675 6.365 6.66 6.335 6.66 6.2975C6.66 6.26 6.66 6.23 6.6675 6.1925C6.6675 6.155 6.6675 6.125 6.6825 6.0875C6.6825 6.05 6.705 6.02 6.72 5.9825C6.735 5.96 6.735 5.93 6.7575 5.9C6.765 5.9 6.7725 5.8925 6.78 5.885C6.7875 5.8775 6.7875 5.87 6.795 5.8625L8.0475 4.43C8.25 4.1975 8.61 4.1675 8.8425 4.3775C9.075 4.58 9.0975 4.94 8.895 5.1725L8.685 5.4125C8.79 5.405 8.895 5.39 9.0075 5.39C11.385 5.39 13.32 7.325 13.32 9.7025C13.32 12.08 11.3775 14.0075 9 14.0075Z" fill="#292D32"/>
</mask>
<g mask="url(#mask0_2575_25757)">
<rect y="0.5" width="18" height="18" fill="#5B5B67"/>
</g>
</svg>
