<svg width="18" height="19" viewBox="0 0 18 19" fill="none" xmlns="http://www.w3.org/2000/svg">
<mask id="mask0_2512_26106" style="mask-type:alpha" maskUnits="userSpaceOnUse" x="0" y="0" width="18" height="19">
<path d="M15.7275 1.25H13.5225C12.57 1.25 12 1.82 12 2.7725V4.9775C12 5.93 12.57 6.5 13.5225 6.5H15.7275C16.68 6.5 17.25 5.93 17.25 4.9775V2.7725C17.25 1.82 16.68 1.25 15.7275 1.25ZM15.8925 3.7325C15.8025 3.8225 15.6825 3.8675 15.5625 3.8675C15.4425 3.8675 15.3225 3.8225 15.2325 3.7325L15.0975 3.5975V5.2775C15.0975 5.54 14.8875 5.75 14.625 5.75C14.3625 5.75 14.1525 5.54 14.1525 5.2775V3.5975L14.0175 3.7325C13.8375 3.9125 13.5375 3.9125 13.3575 3.7325C13.1775 3.5525 13.1775 3.2525 13.3575 3.0725L14.295 2.135C14.3325 2.0975 14.385 2.0675 14.4375 2.045C14.4525 2.0375 14.4675 2.0375 14.4825 2.03C14.52 2.015 14.5575 2.0075 14.6025 2.0075C14.6175 2.0075 14.6325 2.0075 14.6475 2.0075C14.7 2.0075 14.745 2.015 14.7975 2.0375C14.805 2.0375 14.805 2.0375 14.8125 2.0375C14.865 2.06 14.91 2.09 14.9475 2.1275C14.955 2.135 14.955 2.135 14.9625 2.135L15.9 3.0725C16.08 3.2525 16.08 3.5525 15.8925 3.7325Z" fill="#292D32"/>
<path d="M6.74984 8.28484C7.73567 8.28484 8.53484 7.48567 8.53484 6.49984C8.53484 5.51402 7.73567 4.71484 6.74984 4.71484C5.76402 4.71484 4.96484 5.51402 4.96484 6.49984C4.96484 7.48567 5.76402 8.28484 6.74984 8.28484Z" fill="#292D32"/>
<path d="M15.7275 6.5H15.375V9.9575L15.2775 9.875C14.6925 9.3725 13.7475 9.3725 13.1625 9.875L10.0425 12.5525C9.4575 13.055 8.5125 13.055 7.9275 12.5525L7.6725 12.3425C7.14 11.8775 6.2925 11.8325 5.6925 12.2375L2.8875 14.12C2.7225 13.7 2.625 13.2125 2.625 12.6425V6.3575C2.625 4.2425 3.7425 3.125 5.8575 3.125H12V2.7725C12 2.4725 12.0525 2.2175 12.1725 2H5.8575C3.1275 2 1.5 3.6275 1.5 6.3575V12.6425C1.5 13.46 1.6425 14.1725 1.92 14.7725C2.565 16.1975 3.945 17 5.8575 17H12.1425C14.8725 17 16.5 15.3725 16.5 12.6425V6.3275C16.2825 6.4475 16.0275 6.5 15.7275 6.5Z" fill="#292D32"/>
</mask>
<g mask="url(#mask0_2512_26106)">
<rect y="0.5" width="18" height="18" fill="white"/>
</g>
</svg>
